<?xml version="1.0" encoding="UTF-8"?>
<svg version="1.1" xmlns="http://www.w3.org/2000/svg" width="1536" height="1024">
<path d="M0 0 C506.88 0 1013.76 0 1536 0 C1536 337.92 1536 675.84 1536 1024 C1029.12 1024 522.24 1024 0 1024 C0 686.08 0 348.16 0 0 Z " fill="#FDFDFD" transform="translate(0,0)"/>
<path d="M0 0 C0 0.66 0 1.32 0 2 C-1.32907562 3.13920767 -2.71757511 4.20913915 -4.125 5.25 C-25.85210228 22.37390264 -40.13124615 44.17605131 -47 71 C-47.65358131 73.33729521 -48.32586899 75.66850761 -49 78 C-49.78721436 78.17539307 -50.57442871 78.35078613 -51.38549805 78.53149414 C-65.88769428 81.76876942 -80.3741609 85.0497259 -94.8125 88.5625 C-129.49078911 96.99546311 -129.49078911 96.99546311 -143 99.5625 C-161.46703034 103.21808962 -181.25413376 108.25475021 -192.80859375 124.55078125 C-198.69293497 134.07579402 -200.66503781 142.87696149 -199 154 C-196.71862861 162.06313841 -192.22767014 169.56555609 -185 174 C-184.43023438 174.37253906 -183.86046875 174.74507812 -183.2734375 175.12890625 C-160.05071346 188.51903011 -127.39971399 178.48586054 -103.4375 172.375 C-101.29352524 171.83786305 -99.14923253 171.30199375 -97.00463867 170.76733398 C-92.70527873 169.6944163 -88.40727533 168.61632313 -84.11035156 167.53369141 C-75.35544194 165.33130968 -66.58507333 163.19321661 -57.8125 161.0625 C-57.05215454 160.8772879 -56.29180908 160.69207581 -55.50842285 160.50125122 C-46.75029253 158.36788168 -37.98385451 156.28352754 -29.1875 154.3125 C18.88054435 143.93677909 18.88054435 143.93677909 54.8125 112.0625 C59.924142 103.27254805 61.00812654 94.06817288 60 84 C59.34 83.01 58.68 82.02 58 81 C58.16223086 78.20291615 58.84195673 77.16389673 60.79296875 75.140625 C76.19296558 62.98141054 92.55459252 56.57336381 111.3125 51.5625 C112.32175537 51.29099121 113.33101074 51.01948242 114.37084961 50.73974609 C115.31710205 50.49691895 116.26335449 50.2540918 117.23828125 50.00390625 C118.08430908 49.78549072 118.93033691 49.5670752 119.80200195 49.34204102 C122 49 122 49 125 50 C126.58905749 52.22587079 127.9984208 54.39769454 129.375 56.75 C129.77348145 57.42667725 130.17196289 58.10335449 130.58251953 58.80053711 C143.10666895 80.59663829 145.07978995 104.87855695 139 129 C138.68289063 130.27875 138.36578125 131.5575 138.0390625 132.875 C133.62612316 149.23625759 125.10094411 164.26488747 114 177 C113.47390137 177.60827637 112.94780273 178.21655273 112.40576172 178.84326172 C96.95267151 196.51859822 78.79646359 208.06892659 57.76611328 218.14941406 C56.24150892 218.88368578 54.7271273 219.6391142 53.21484375 220.3984375 C40.72282552 226.4610244 27.02774147 229.80422719 13.63671875 233.24609375 C12.47005173 233.54719559 11.3033847 233.84829742 10.10136414 234.15852356 C-3.14500558 237.56764529 -16.41514052 240.88132387 -29.6875 244.1875 C-32.1269815 244.79611023 -34.56643469 245.40483396 -37.00585938 246.01367188 C-41.64950957 247.17255589 -46.29341288 248.3304171 -50.9375 249.48754883 C-54.49569554 250.37445861 -58.05329801 251.26356973 -61.609375 252.15893555 C-130.25854117 269.44040338 -130.25854117 269.44040338 -159.4375 269.4375 C-160.45091461 269.4382402 -160.45091461 269.4382402 -161.48480225 269.43899536 C-197.42094514 269.31067166 -233.02067529 257.32181385 -259 232 C-259.51143555 231.50242187 -260.02287109 231.00484375 -260.54980469 230.4921875 C-283.39557915 207.84322885 -294.21398012 177.39522287 -294.3868103 145.6427002 C-294.40091869 133.78169938 -293.11741842 123.17119849 -289 112 C-288.65066406 110.94039063 -288.30132812 109.88078125 -287.94140625 108.7890625 C-276.81295287 78.37944265 -249.77832394 55.93111425 -221.3046875 42.54541016 C-202.16864663 33.94168808 -181.35817013 29.68324755 -161 25 C-160.14599609 24.8030957 -159.29199219 24.60619141 -158.41210938 24.40332031 C-151.13379517 22.73550369 -143.83423676 21.17395839 -136.52734375 19.63671875 C-125.38623679 17.28577924 -114.28155309 14.88765384 -103.25 12.0625 C-69.53878777 3.51115543 -34.99541779 -4.4948243 0 0 Z " fill="#0A0A0A" transform="translate(707,375)"/>
<path d="M0 0 C20.65539424 17.10667012 35.3133668 36.91246087 44.03515625 62.390625 C44.27387451 63.07801758 44.51259277 63.76541016 44.75854492 64.47363281 C48.44734914 75.86690155 48.98244497 87.43663097 48.91015625 99.328125 C48.91789062 100.60816406 48.925625 101.88820313 48.93359375 103.20703125 C48.88660729 126.15991648 41.02103187 148.96008675 25.66015625 166.203125 C25.06976562 166.9353125 24.479375 167.6675 23.87109375 168.421875 C-4.11968028 202.24902319 -53.83294572 211.85101825 -94.55322266 220.1171875 C-103.36887361 221.93755311 -112.10088246 224.05105503 -120.83984375 226.203125 C-131.41251596 228.80593216 -141.99330299 231.26159173 -152.66943359 233.41015625 C-158.72056811 234.63414273 -164.72584196 235.98789039 -170.72851562 237.43066406 C-198.3289305 244.01845168 -224.06889262 247.02275561 -252.33984375 246.203125 C-248.87394728 242.67602064 -245.40217527 239.67596899 -241.40234375 236.765625 C-217.25806344 218.61132462 -201.5001909 194.51275867 -194.33984375 165.203125 C-193.48680664 164.99743896 -192.63376953 164.79175293 -191.75488281 164.57983398 C-187.69958383 163.60127743 -183.64460824 162.62139362 -179.58984375 161.640625 C-178.47257401 161.37043549 -178.47257401 161.37043549 -177.33273315 161.0947876 C-167.17679163 158.63711913 -157.03397865 156.13434104 -146.90234375 153.578125 C-138.04983942 151.34603777 -129.18022013 149.2246127 -120.27734375 147.203125 C-76.61712038 139.34495782 -76.61712038 139.34495782 -43.0390625 113.2890625 C-37.53745489 104.20640848 -37.20372152 94.51737747 -38.33984375 84.203125 C-41.32619599 72.51405527 -48.31342301 63.68708794 -58.33984375 57.203125 C-74.74864979 47.89001887 -93.15447528 49.05086333 -111.02734375 52.828125 C-112.38006648 53.10339421 -113.7330183 53.37753972 -115.08618164 53.65063477 C-118.5197923 54.34808812 -121.94919113 55.06405791 -125.37719727 55.78851318 C-127.24249088 56.18255907 -129.10853092 56.57306669 -130.97460938 56.96337891 C-141.66740883 59.20381792 -152.33847291 61.54141261 -163.0078125 63.890625 C-176.93786529 66.95728955 -190.8740734 69.99023761 -204.83984375 72.890625 C-205.91241425 73.11380402 -205.91241425 73.11380402 -207.00665283 73.3414917 C-216.08553137 75.22278908 -225.17351187 76.86206066 -234.33984375 78.265625 C-258.75095658 82.09875801 -281.18532505 91.89842948 -296.16113281 112.43017578 C-301.04514668 119.77642862 -307.08956431 129.38512089 -305.98046875 138.43359375 C-304.82978808 151.31186635 -304.82978808 151.31186635 -308.73828125 156.20703125 C-311.60682701 158.20390027 -314.35000156 159.83855622 -317.49755859 161.32519531 C-319.22251465 162.14721254 -320.88857571 163.0897316 -322.546875 164.0390625 C-336.22907565 171.61638765 -357.75251676 180.36682773 -373.609375 180.17578125 C-378.00873397 177.70300386 -379.00945204 169.88806969 -380.33984375 165.203125 C-388.30038433 136.29878123 -382.98155471 106.5637831 -368.47265625 80.8046875 C-361.58863521 68.98807151 -353.13022958 58.7424753 -343.33984375 49.203125 C-342.85128906 48.65785156 -342.36273437 48.11257813 -341.859375 47.55078125 C-311.06532097 14.30951763 -261.97489471 6.45044619 -219.8972168 -2.34887695 C-212.91156694 -3.81132099 -205.9424297 -5.32421148 -198.99194336 -6.94604492 C-147.55870621 -18.92845227 -147.55870621 -18.92845227 -123.33984375 -23.796875 C-122.31632812 -24.00570313 -121.2928125 -24.21453125 -120.23828125 -24.4296875 C-78.54078551 -32.76918665 -34.07075537 -26.80670162 0 0 Z " fill="#0B0C0D" transform="translate(1051.33984375,341.796875)"/>
<path d="M0 0 C0 0.66 0 1.32 0 2 C-1.32907562 3.13920767 -2.71757511 4.20913915 -4.125 5.25 C-25.85210228 22.37390264 -40.13124615 44.17605131 -47 71 C-47.65358131 73.33729521 -48.32586899 75.66850761 -49 78 C-49.78721436 78.17539307 -50.57442871 78.35078613 -51.38549805 78.53149414 C-65.88769428 81.76876942 -80.3741609 85.0497259 -94.8125 88.5625 C-129.49078911 96.99546311 -129.49078911 96.99546311 -143 99.5625 C-161.46703034 103.21808962 -181.25413376 108.25475021 -192.80859375 124.55078125 C-198.69293497 134.07579402 -200.66503781 142.87696149 -199 154 C-196.71862861 162.06313841 -192.22767014 169.56555609 -185 174 C-184.43023438 174.37253906 -183.86046875 174.74507812 -183.2734375 175.12890625 C-160.05071346 188.51903011 -127.39971399 178.48586054 -103.4375 172.375 C-101.29352524 171.83786305 -99.14923253 171.30199375 -97.00463867 170.76733398 C-92.70527873 169.6944163 -88.40727533 168.61632313 -84.11035156 167.53369141 C-75.35544194 165.33130968 -66.58507333 163.19321661 -57.8125 161.0625 C-57.05215454 160.8772879 -56.29180908 160.69207581 -55.50842285 160.50125122 C-46.75029253 158.36788168 -37.98385451 156.28352754 -29.1875 154.3125 C-6.60613323 149.23153045 14.44743586 143.85432294 35 133 C35.33 133.99 35.66 134.98 36 136 C33.69 136.99 31.38 137.98 29 139 C29.680625 139.5775 30.36125 140.155 31.0625 140.75 C33 143 33 143 32.91015625 144.98828125 C30.95950138 149.29981455 25.15731981 150.40028279 21 152 C1.99435843 158.94062678 -17.76196669 163.47938316 -37.40478516 168.19775391 C-47.89044047 170.72060505 -58.33494974 173.31319036 -68.71348572 176.24815369 C-75.62174231 178.19603041 -82.57851206 179.90719004 -89.5625 181.5625 C-91.42684692 182.00855591 -91.42684692 182.00855591 -93.32885742 182.46362305 C-101.38737379 184.38891422 -109.45013184 186.29660605 -117.51953125 188.17578125 C-119.92079372 188.74443039 -122.31390547 189.34824739 -124.69921875 189.98046875 C-134.77983587 192.46318902 -144.62217699 193.34847157 -154.97290039 193.31567383 C-157.06383759 193.31249797 -159.15337525 193.33613229 -161.24414062 193.36132812 C-169.28187845 193.39987088 -176.39259509 192.65892179 -184 190 C-184.67925537 189.77562256 -185.35851074 189.55124512 -186.05834961 189.32006836 C-195.26644749 186.15639562 -203.21859114 181.8922807 -211 176 C-211.78890625 175.40703125 -212.5778125 174.8140625 -213.390625 174.203125 C-227.20503493 162.90042597 -236.54339169 145.51279255 -238.3203125 127.80859375 C-238.90416104 111.63598929 -231.90819417 98.10818804 -221.33203125 86.34375 C-204.11687975 68.34918265 -180.15924831 61.51562789 -156.77064514 55.69821167 C-140.10541901 51.54183579 -123.50440017 47.12516496 -106.89306641 42.75958252 C-104.16093187 42.0422531 -101.42821473 41.32719109 -98.6953125 40.61279297 C-65.05314603 32.24481673 -65.05314603 32.24481673 -32.84863281 19.72998047 C-31 19 -31 19 -28 19 C-28 18.34 -28 17.68 -28 17 C-44.60859443 17.1098623 -60.16778363 18.99506867 -76.39916992 22.46118164 C-86.17382213 24.48621284 -86.17382213 24.48621284 -91 22 C-90.95875 21.21625 -90.9175 20.4325 -90.875 19.625 C-90.71271266 16.83883881 -90.71271266 16.83883881 -93 15 C-92.01 14.01 -91.02 13.02 -90 12 C-91.98 11.01 -91.98 11.01 -94 10 C-63.1590017 2.34958305 -31.93268221 -4.10144542 0 0 Z " fill="#0C0C0C" transform="translate(707,375)"/>
<path d="M0 0 C1.10859375 0.00322266 2.2171875 0.00644531 3.359375 0.00976562 C4.50148438 0.01814453 5.64359375 0.02652344 6.8203125 0.03515625 C8.56828125 0.04192383 8.56828125 0.04192383 10.3515625 0.04882812 C13.21619895 0.06056844 16.08072883 0.07699055 18.9453125 0.09765625 C18.9453125 0.75765625 18.9453125 1.41765625 18.9453125 2.09765625 C-9.07632747 14.28689939 -38.80078026 21.49481618 -68.32958984 29.01220703 C-80.51987231 32.11872253 -92.66808975 35.32734107 -104.76721191 38.77409363 C-110.34018368 40.35879609 -115.91499553 41.83171007 -121.5546875 43.16015625 C-146.21355044 49.24112977 -168.99095197 60.1881176 -183.0546875 82.09765625 C-185.03508109 85.67921912 -186.66305742 89.25092331 -188.0546875 93.09765625 C-188.29832031 93.75894531 -188.54195313 94.42023438 -188.79296875 95.1015625 C-192.96898691 108.70913187 -189.13022714 123.5546203 -182.8671875 135.84765625 C-171.62014579 155.35050517 -154.32622625 167.05010225 -133.12915039 173.7019043 C-125.75079737 175.65134557 -118.19155303 175.44915533 -110.6171875 175.41015625 C-109.90637024 175.40866577 -109.19555298 175.40717529 -108.4631958 175.40563965 C-93.67335994 175.34983995 -80.35602591 173.56547034 -66.171875 169.2578125 C-60.73560711 167.66701521 -55.20165907 166.47428166 -49.6796875 165.22265625 C-40.95131584 163.23687619 -32.24023012 161.20123635 -23.5546875 159.03515625 C-22.21591553 158.70378662 -22.21591553 158.70378662 -20.85009766 158.36572266 C-15.82964061 157.10539104 -10.83895526 155.76167251 -5.85824585 154.35394287 C3.85739657 151.61193805 13.63022901 149.21954983 23.45526123 146.9050293 C60.55493933 138.11090324 98.31441608 127.43074978 119.72265625 93.0625 C123.40139838 86.77323887 125.74891411 80.01700626 127.9453125 73.09765625 C128.15414063 72.44829102 128.36296875 71.79892578 128.578125 71.12988281 C129.74926792 67.46635503 130.87034651 63.7904806 131.9453125 60.09765625 C134.54021658 61.39510829 134.61412007 62.31666797 135.54296875 65.01953125 C137.15565553 70.16791935 137.44507513 74.98022189 137.3828125 80.34765625 C137.37145264 81.72800049 137.37145264 81.72800049 137.35986328 83.13623047 C136.96293108 99.64223595 129.66180908 112.88821263 118.9453125 125.09765625 C118.05585937 126.11279297 118.05585937 126.11279297 117.1484375 127.1484375 C96.93537985 148.70039427 67.24931755 157.00252833 39.484375 163.73046875 C35.30989411 164.74656109 31.18608791 165.86190234 27.0703125 167.09765625 C18.2238544 169.69955569 9.20560459 171.61104474 0.21875 173.66015625 C-8.85667852 175.73145762 -17.89174539 177.92967445 -26.859375 180.4296875 C-37.6858756 183.44644414 -48.54695055 186.2322738 -59.4921875 188.78515625 C-60.71115723 189.07044189 -61.93012695 189.35572754 -63.18603516 189.6496582 C-99.36091166 198.00315697 -135.45795354 200.45789182 -168.44140625 180.44140625 C-173.7108611 177.09677191 -178.45724044 173.31537317 -183.0546875 169.09765625 C-183.54420898 168.65583008 -184.03373047 168.21400391 -184.53808594 167.75878906 C-200.93651405 152.81615038 -212.42534793 132.51468557 -214.40234375 110.16796875 C-214.82072625 92.37761719 -208.08547065 75.24975511 -196.0546875 62.09765625 C-194.79591797 60.68419922 -194.79591797 60.68419922 -193.51171875 59.2421875 C-171.8416153 35.76749267 -139.63436391 27.96173239 -109.33984375 22.3359375 C-103.04381918 21.1413072 -96.82258163 19.66175293 -90.59106445 18.17504883 C-82.78159427 16.31279624 -74.94894905 14.55084718 -67.1171875 12.78515625 C-66.26537903 12.59300537 -65.41357056 12.40085449 -64.53594971 12.20288086 C-52.02393594 9.38567939 -39.4931025 6.67602262 -26.9296875 4.09765625 C-26.21144806 3.95008881 -25.49320862 3.80252136 -24.75320435 3.65048218 C-6.77253276 -0.03490996 -6.77253276 -0.03490996 0 0 Z " fill="#F8F8F8" transform="translate(660.0546875,391.90234375)"/>
<path d="M0 0 C1.13824219 -0.01224609 2.27648437 -0.02449219 3.44921875 -0.03710938 C14.56409405 -0.05603368 25.22374476 1.22023565 35.75 4.875 C36.51272217 5.13700195 37.27544434 5.39900391 38.0612793 5.66894531 C53.45884309 11.14579005 66.61829138 20.27916055 77.75 32.1875 C77.42 32.8475 77.09 33.5075 76.75 34.1875 C76.24855469 33.775 75.74710938 33.3625 75.23046875 32.9375 C49.70916195 13.45956908 15.50154447 12.66963516 -15.05883789 16.70849609 C-34.37424825 19.54061288 -53.31017344 24.65277799 -72.25366211 29.29125977 C-81.13198224 31.46092149 -90.03076005 33.49176243 -98.97119141 35.39038086 C-108.12812344 37.34574159 -117.22259791 39.54555157 -126.3203125 41.7578125 C-130.40530379 42.74971704 -134.49628333 43.70942177 -138.59375 44.6484375 C-165.41509609 50.83062026 -189.4210045 58.27551935 -212.25 74.1875 C-213.37650938 74.94823828 -214.50413256 75.70732959 -215.6328125 76.46484375 C-222.4334455 81.05872673 -228.97162085 85.90098205 -235.25 91.1875 C-236.08273437 91.88488281 -236.91546875 92.58226562 -237.7734375 93.30078125 C-243.24704001 98.04176312 -247.86960293 103.10938975 -252.33984375 108.8046875 C-253.89212705 110.74107362 -255.45139636 112.48474671 -257.25 114.1875 C-256.72737221 93.13985366 -242.5931118 73.82721848 -228.0625 59.6953125 C-215.45120074 48.45023733 -201.04524728 40.94659754 -185.125 35.5 C-184.37017334 35.23872314 -183.61534668 34.97744629 -182.83764648 34.70825195 C-164.91209679 28.88331159 -145.9295221 25.81146883 -127.5 22 C-125.37235844 21.55812272 -123.24475415 21.11606597 -121.1171875 20.67382812 C-112.1671283 18.8156402 -103.21527109 16.97102531 -94.25 15.1875 C-93.2489624 14.98729248 -92.2479248 14.78708496 -91.21655273 14.58081055 C-90.38067627 14.41363525 -89.5447998 14.24645996 -88.68359375 14.07421875 C-87.71655518 13.88077881 -86.7495166 13.68733887 -85.75317383 13.48803711 C-83.63977945 13.06542556 -81.52633225 12.6430781 -79.4128418 12.22094727 C-73.88600659 11.11670007 -68.35999518 10.0086902 -62.8359375 8.890625 C-52.65396319 6.83339745 -42.46646651 4.81694021 -32.25 2.9375 C-30.9338269 2.69277954 -30.9338269 2.69277954 -29.59106445 2.44311523 C-19.66718152 0.64269271 -10.09232859 0.00563817 0 0 Z " fill="#F8F8F8" transform="translate(960.25,330.8125)"/>
<path d="M0 0 C5.00489134 2.50244567 7.22615724 12.78127001 9.05859375 18.03515625 C13.79414815 34.50763494 10.99041262 50.53842828 3.15234375 65.53515625 C-0.31615695 71.42913583 -5.04635969 76.32586808 -10 81 C-10.60191162 81.56992676 -11.20382324 82.13985352 -11.82397461 82.72705078 C-16.43919788 86.94008462 -21.14004268 90.1411298 -26.6875 93 C-27.91907837 93.63663574 -27.91907837 93.63663574 -29.17553711 94.28613281 C-45.38983374 102.39864654 -62.83712908 106.41307437 -80.45996094 110.23193359 C-84.06205743 111.01346432 -87.66012386 111.8117212 -91.2578125 112.61328125 C-106.00410494 115.88537913 -120.77629496 119.0386146 -135.55618286 122.15512085 C-137.40236197 122.54473586 -139.2482989 122.93550066 -141.09396362 123.32754517 C-150.29774893 125.28028568 -159.50748088 127.16131007 -168.78125 128.75390625 C-169.49227875 128.87912659 -170.2033075 129.00434692 -170.93588257 129.13336182 C-177.63585795 130.24497461 -184.21365898 130.29458394 -191 130 C-188.70841622 125.41683244 -180.6967707 123.69041818 -176 122 C-163.86741196 118.02549356 -151.50748031 114.79474414 -139.10717773 111.77758789 C-132.36875913 110.12896376 -125.72860803 108.21968974 -119.08984375 106.2109375 C-112.06384697 104.1023507 -104.96525651 102.24993363 -97.87109375 100.38671875 C-79.03774317 95.43095575 -61.12022089 90.42065065 -44 81 C-43.35401855 80.65066406 -42.70803711 80.30132812 -42.04248047 79.94140625 C-22.43458325 69.23281722 -7.55146363 53.94848206 -0.84375 32.26171875 C1.82883829 21.93018532 2.02704458 10.456976 0 0 Z " fill="#F6F7F7" transform="translate(1054,399)"/>
<path d="M0 0 C0.33 0.66 0.66 1.32 1 2 C-0.16972688 4.60234692 -1.3933703 7.06063324 -2.75 9.5625 C-3.1109375 10.26052734 -3.471875 10.95855469 -3.84375 11.67773438 C-6.62667872 16.87555957 -6.62667872 16.87555957 -10 18 C-11.37334617 20.28891028 -12.15250816 22.45752447 -13 25 C-13.66 25 -14.32 25 -15 25 C-15.35191406 25.85464844 -15.35191406 25.85464844 -15.7109375 26.7265625 C-23.24123267 40.00726489 -44.41671454 51.40135676 -58 57 C-59.98901061 57.39363423 -61.98857659 57.74448683 -64 58 C-64 58.66 -64 59.32 -64 60 C-67.8269178 61.24971038 -71.66263229 62.47029395 -75.5 63.6875 C-76.53898437 64.02716797 -77.57796875 64.36683594 -78.6484375 64.71679688 C-89.14679391 68.02069139 -99.82882702 70.16473972 -110.6105957 72.32095337 C-114.0981238 73.01965851 -117.58345005 73.72853946 -121.06835938 74.44018555 C-129.81072262 76.22492964 -138.55554078 77.99751296 -147.30029297 79.77050781 C-169.40549232 84.25363934 -191.50108735 88.77295794 -213.54089355 93.568573 C-217.48622475 94.42642653 -221.43266821 95.27914224 -225.37890625 96.1328125 C-229.37527771 96.99766639 -233.37151136 97.86309065 -237.36669922 98.73339844 C-239.99362888 99.30540895 -242.62157511 99.87240917 -245.25 100.4375 C-245.93811768 100.58904541 -246.62623535 100.74059082 -247.33520508 100.89672852 C-266.0340641 104.88622835 -287.54782298 105.0287692 -306 100 C-306.66918457 99.81775879 -307.33836914 99.63551758 -308.02783203 99.44775391 C-321.64340112 95.66020192 -334.48121035 90.29572609 -346 82 C-346 81.34 -346 80.68 -346 80 C-346.78375 79.731875 -347.5675 79.46375 -348.375 79.1875 C-351 78 -351 78 -353 75 C-349.70489865 75.91956317 -347.31654083 76.74129885 -344.6484375 78.921875 C-341.92389335 81.0597179 -339.52206398 82.23160088 -336.3125 83.5 C-335.24773437 83.9228125 -334.18296875 84.345625 -333.0859375 84.78125 C-332.06757813 85.1834375 -331.04921875 85.585625 -330 86 C-329.22914063 86.3403125 -328.45828125 86.680625 -327.6640625 87.03125 C-305.39562945 96.71997175 -281.86535131 97.48559541 -257.96533203 97.05322266 C-256.22166939 97.02192688 -254.47781233 96.99763716 -252.73388672 96.98974609 C-230.66437798 96.8834005 -207.72643275 90.22000656 -186.51708984 84.65527344 C-182.97826374 83.73401163 -179.42698445 82.86914079 -175.875 82 C-168.79529305 80.2337226 -161.76518245 78.3033145 -154.73217773 76.36035156 C-146.47578047 74.09464587 -138.17684316 72.01750269 -129.85546875 70.00439453 C-128.9015625 69.77091309 -127.94765625 69.53743164 -126.96484375 69.296875 C-126.1255835 69.09416992 -125.28632324 68.89146484 -124.42163086 68.68261719 C-121.85948441 67.96039101 -119.46910773 66.99012585 -117 66 C-114.95187515 65.52993856 -112.90263563 65.06412748 -110.84765625 64.625 C-101.51996345 62.57776976 -92.35290166 60.35115042 -83.42578125 56.92578125 C-81.21660543 56.08266584 -79.00319886 55.33983674 -76.75 54.625 C-72.52552573 53.23214797 -68.3858585 51.63415385 -64.25 50 C-63.6115918 49.75072754 -62.97318359 49.50145508 -62.31542969 49.24462891 C-58.65093725 47.77940841 -55.34802568 46.07868725 -52 44 C-50.948125 43.566875 -49.89625 43.13375 -48.8125 42.6875 C-35.02263846 36.90945866 -21.24054787 26.72838768 -12 15 C-11.34 15 -10.68 15 -10 15 C-10 14.34 -10 13.68 -10 13 C-9.34 13 -8.68 13 -8 13 C-7.73445313 12.43796875 -7.46890625 11.8759375 -7.1953125 11.296875 C-5.90668966 8.82069778 -4.43869639 6.56155118 -2.875 4.25 C-2.06675781 3.05117188 -2.06675781 3.05117188 -1.2421875 1.828125 C-0.62730469 0.92320312 -0.62730469 0.92320312 0 0 Z " fill="#505050" transform="translate(818,520)"/>
<path d="M0 0 C2.4375 2 2.4375 2 4 4 C2 7 2 7 -0.6328125 7.66796875 C-1.78523437 7.83941406 -2.93765625 8.01085937 -4.125 8.1875 C-26.36346367 12.05457436 -45.5969712 20.84401749 -63 35 C-62.62095792 38.29075996 -62.62095792 38.29075996 -61 41 C-59.76647518 55.17542454 -62.86412826 65.26250346 -71.71875 76.31640625 C-72.4715625 77.20199219 -73.224375 78.08757812 -74 79 C-74.5671875 79.66902344 -75.134375 80.33804688 -75.71875 81.02734375 C-80.67290683 86.38220444 -86.87438759 90.12748641 -93 94 C-93.103125 93.360625 -93.20625 92.72125 -93.3125 92.0625 C-93.539375 91.381875 -93.76625 90.70125 -94 90 C-94.99 89.67 -95.98 89.34 -97 89 C-97 88.34 -97 87.68 -97 87 C-97.66 86.67 -98.32 86.34 -99 86 C-98.39671875 85.60167969 -97.7934375 85.20335937 -97.171875 84.79296875 C-96.37265625 84.26316406 -95.5734375 83.73335938 -94.75 83.1875 C-93.96109375 82.66542969 -93.1721875 82.14335937 -92.359375 81.60546875 C-90.81382041 80.55377514 -89.3004844 79.45271711 -87.828125 78.30078125 C-86 77 -86 77 -84 77 C-84.33 76.01 -84.66 75.02 -85 74 C-85.67970905 64.28350343 -85.42173183 55.88517811 -81 47 C-80.61070312 46.20722656 -80.22140625 45.41445313 -79.8203125 44.59765625 C-68.84080074 24.55517472 -50.87927609 11.30842902 -29.22387695 4.69360352 C-19.84300616 1.9818844 -9.80069139 -0.61254321 0 0 Z " fill="#F6F6F6" transform="translate(829,418)"/>
<path d="M0 0 C3.29510135 0.91956317 5.68345917 1.74129885 8.3515625 3.921875 C11.07610665 6.0597179 13.47793602 7.23160088 16.6875 8.5 C17.75226563 8.9228125 18.81703125 9.345625 19.9140625 9.78125 C21.44160156 10.38453125 21.44160156 10.38453125 23 11 C23.77085937 11.3403125 24.54171875 11.680625 25.3359375 12.03125 C47.60437055 21.71997175 71.13464869 22.48559541 95.03466797 22.05322266 C96.77833061 22.02192688 98.52218767 21.99763716 100.26611328 21.98974609 C120.52667355 21.89211722 141.938775 16.2329724 161.33789062 10.74145508 C167.02395765 9.20003292 171.2006398 8.85369371 177 10 C177 10.33 177 10.66 177 11 C176.24420654 11.13986328 175.48841309 11.27972656 174.7097168 11.42382812 C171.03424106 12.10855921 167.36033539 12.80126811 163.6875 13.5 C163.00327972 13.6301651 162.31905945 13.7603302 161.61410522 13.8944397 C151.03901904 15.91803047 140.54498157 18.20311905 130.06292725 20.66113281 C102.88927279 27.01695707 74.59233598 32.51973543 47 25 C46.33081543 24.81775879 45.66163086 24.63551758 44.97216797 24.44775391 C31.35659888 20.66020192 18.51878965 15.29572609 7 7 C7 6.34 7 5.68 7 5 C6.21625 4.731875 5.4325 4.46375 4.625 4.1875 C2 3 2 3 0 0 Z " fill="#474747" transform="translate(465,595)"/>
<path d="M0 0 C0.495 0.99 0.495 0.99 1 2 C-0.16972688 4.60234692 -1.3933703 7.06063324 -2.75 9.5625 C-3.1109375 10.26052734 -3.471875 10.95855469 -3.84375 11.67773438 C-6.62667872 16.87555957 -6.62667872 16.87555957 -10 18 C-11.37334617 20.28891028 -12.15250816 22.45752447 -13 25 C-13.66 25 -14.32 25 -15 25 C-15.23460937 25.56976562 -15.46921875 26.13953125 -15.7109375 26.7265625 C-23.24123267 40.00726489 -44.41671454 51.40135676 -58 57 C-59.98901061 57.39363423 -61.98857659 57.74448683 -64 58 C-64 58.66 -64 59.32 -64 60 C-66.3125 60.625 -66.3125 60.625 -69 61 C-72.0109362 58.9927092 -72.63016497 58.16115776 -74 55 C-71.31724936 52.31724936 -68.17010151 51.38051029 -64.6875 50.0625 C-60.18083666 48.35337743 -56.10250801 46.57129023 -52 44 C-50.948125 43.566875 -49.89625 43.13375 -48.8125 42.6875 C-35.02263846 36.90945866 -21.24054787 26.72838768 -12 15 C-11.34 15 -10.68 15 -10 15 C-10 14.34 -10 13.68 -10 13 C-9.34 13 -8.68 13 -8 13 C-7.73445312 12.43796875 -7.46890625 11.8759375 -7.1953125 11.296875 C-5.90668966 8.82069778 -4.43869639 6.56155118 -2.875 4.25 C-2.33617187 3.45078125 -1.79734375 2.6515625 -1.2421875 1.828125 C-0.83226562 1.22484375 -0.42234375 0.6215625 0 0 Z " fill="#4E4E4D" transform="translate(818,520)"/>
<path d="M0 0 C-3.09496777 2.06331184 -5.22792233 2.69027266 -8.8125 3.55078125 C-9.97136719 3.83759766 -11.13023437 4.12441406 -12.32421875 4.41992188 C-14.7425456 5.0071564 -17.16179751 5.59059657 -19.58203125 6.16992188 C-30.21734102 8.81409206 -39.23152924 12.76970577 -48.5 18.5625 C-50.94360101 19.96757058 -53.36108429 21.01983131 -56 22 C-56 22.66 -56 23.32 -56 24 C-57.65532623 25.01866229 -59.32260138 26.01810813 -61 27 C-61.33 27.66 -61.66 28.32 -62 29 C-62.66 29 -63.32 29 -64 29 C-64 29.66 -64 30.32 -64 31 C-65.16626663 32.13196467 -66.33330988 33.26313841 -67.50390625 34.390625 C-76.96058705 44.56334691 -84.62280231 61.45604611 -85.31640625 75.328125 C-85.35830078 76.12734375 -85.40019531 76.9265625 -85.44335938 77.75 C-85.50233398 78.9875 -85.50233398 78.9875 -85.5625 80.25 C-85.60568359 81.09046875 -85.64886719 81.9309375 -85.69335938 82.796875 C-85.79908543 84.86440671 -85.90001295 86.93218281 -86 89 C-86.66 88.67 -87.32 88.34 -88 88 C-88.50311437 85.28318239 -88.80894456 82.7458665 -89 80 C-89.06574219 79.20335937 -89.13148438 78.40671875 -89.19921875 77.5859375 C-89.67844046 66.64646256 -86.46800601 55.89257699 -82 46 C-81.5875 45.071875 -81.175 44.14375 -80.75 43.1875 C-78.1911302 38.52670144 -75.15475472 34.27418381 -72 30 C-71.51402344 29.33226562 -71.02804687 28.66453125 -70.52734375 27.9765625 C-67.23172489 23.77212396 -63.76463909 21.52515267 -59.01953125 19.1171875 C-56.85066929 18.05205687 -56.85066929 18.05205687 -55.0625 15.9375 C-51.16168289 12.27309605 -45.34201486 10 -40 10 C-40 9.34 -40 8.68 -40 8 C-7.75455545 -0.2199053 -7.75455545 -0.2199053 0 0 Z " fill="#212323" transform="translate(816,403)"/>
<path d="M0 0 C0.99 0.495 0.99 0.495 2 1 C-9.63241332 11.12492455 -22.045628 17.07572022 -36.06811523 23.13378906 C-37.42559945 23.74245253 -38.7602703 24.40335395 -40.07446289 25.10058594 C-42.48185852 26.22507503 -44.37511039 26.1458272 -47 26 C-47 26.66 -47 27.32 -47 28 C-51.79057322 29.2126978 -56.58232842 30.42062676 -61.375 31.625 C-62.44962494 31.89511398 -62.44962494 31.89511398 -63.54595947 32.17068481 C-74.73461185 34.97839617 -85.94469749 37.65722801 -97.20068359 40.18408203 C-98.20437988 40.4107959 -99.20807617 40.63750977 -100.2421875 40.87109375 C-101.55485596 41.16391235 -101.55485596 41.16391235 -102.89404297 41.46264648 C-105.03711217 41.93014193 -105.03711217 41.93014193 -107 43 C-108.6322789 43.28457187 -110.27030161 43.53638835 -111.91015625 43.7734375 C-117.44528936 44.66441458 -122.86246461 45.85038727 -128.30859375 47.1640625 C-129.12953522 47.36199402 -129.95047668 47.55992554 -130.79629517 47.76385498 C-134.21438417 48.59212417 -137.63077407 49.42722495 -141.04663086 50.26464844 C-143.57031977 50.88172449 -146.09559639 51.49193744 -148.62109375 52.1015625 C-149.77272255 52.38744736 -149.77272255 52.38744736 -150.94761658 52.67910767 C-154.6995842 53.58232762 -158.13467834 54.23206255 -162 54 C-159.08188026 52.05458684 -157.26320595 51.41731946 -153.91552734 50.59887695 C-152.87528412 50.34133133 -151.83504089 50.08378571 -150.76327515 49.81843567 C-149.06674301 49.40750923 -149.06674301 49.40750923 -147.3359375 48.98828125 C-146.15649567 48.69696823 -144.97705383 48.40565521 -143.76187134 48.10551453 C-139.96759778 47.16891976 -136.17149275 46.24005494 -132.375 45.3125 C-115.91574651 41.28230034 -99.52322718 37.12867169 -83.22949219 32.46948242 C-78.7989728 31.20813598 -74.35554352 30.06962174 -69.875 29 C-59.45377203 26.46092962 -49.22804854 23.21931325 -39 20 C-37.47246094 19.52046875 -37.47246094 19.52046875 -35.9140625 19.03125 C-31.71272079 17.54444811 -27.6106003 15.84467571 -23.5 14.125 C-22.67113281 13.78597656 -21.84226562 13.44695313 -20.98828125 13.09765625 C-17.29519389 11.55348777 -13.83523776 10.01768878 -10.53125 7.7421875 C-8 6 -8 6 -6 6 C-6 5.34 -6 4.68 -6 4 C-4.03852126 2.61061923 -2.03833424 1.2739589 0 0 Z " fill="#353535" transform="translate(1052,506)"/>
<path d="M0 0 C0.66 0.33 1.32 0.66 2 1 C2.99 1 3.98 1 5 1 C5.66 1.66 6.32 2.32 7 3 C6.01 3.495 6.01 3.495 5 4 C5.66 5.98 6.32 7.96 7 10 C6.01 10.66 5.02 11.32 4 12 C3.86335937 12.59683594 3.72671875 13.19367188 3.5859375 13.80859375 C2.73724749 16.98269439 0.84863649 18.67694823 -1.375 21.0625 C-2.16648437 21.91972656 -2.95796875 22.77695312 -3.7734375 23.66015625 C-5.49252948 25.4667108 -7.22257138 27.25123959 -9 29 C-9.433125 28.54625 -9.86625 28.0925 -10.3125 27.625 C-12.10798342 25.79975666 -12.10798342 25.79975666 -15 24 C-15.66 24.33 -16.32 24.66 -17 25 C-17 24.34 -17 23.68 -17 23 C-17.99 22.67 -18.98 22.34 -20 22 C-16.65730383 16.42297534 -12.38436591 12.15292287 -7.75 7.625 C-7.00492188 6.88894531 -6.25984375 6.15289062 -5.4921875 5.39453125 C-3.66594238 3.59169953 -1.83517795 1.79373022 0 0 Z " fill="#F7F8F8" transform="translate(700,381)"/>
<path d="M0 0 C0.8971875 0.27457031 1.794375 0.54914063 2.71875 0.83203125 C5.57190807 1.74847285 8.31815965 2.65907983 11 4 C11 4.66 11 5.32 11 6 C11.66 6.20625 12.32 6.4125 13 6.625 C17.07180186 8.49124252 20.68796998 10.97561527 24 14 C24 14.66 24 15.32 24 16 C25.485 16.495 25.485 16.495 27 17 C27 17.66 27 18.32 27 19 C27.66 19 28.32 19 29 19 C29 19.66 29 20.32 29 21 C25.58638198 19.8006207 23.43511004 18.66702528 21 16 C20.34 15.67 19.68 15.34 19 15 C19 14.34 19 13.68 19 13 C17.02 12.34 15.04 11.68 13 11 C13 10.34 13 9.68 13 9 C12.030625 8.731875 11.06125 8.46375 10.0625 8.1875 C6.49810117 7.1742334 3.00190871 6.00256395 -0.49609375 4.78125 C-1.32238281 4.5234375 -2.14867187 4.265625 -3 4 C-4.10085938 3.64550781 -5.20171875 3.29101562 -6.3359375 2.92578125 C-12.82955888 1.34521131 -19.546097 1.65668008 -26.1875 1.6875 C-27.24573471 1.6877417 -27.24573471 1.6877417 -28.3253479 1.68798828 C-39.78547756 1.70616994 -50.85072435 2.69545588 -62.13427734 4.71875 C-64.43834277 5.06607837 -66.67463392 5.11184125 -69 5 C-65.40341464 2.60227643 -61.90659321 1.88952649 -57.75 1 C-56.53836182 0.73944824 -56.53836182 0.73944824 -55.30224609 0.47363281 C-37.09156651 -3.34548669 -18.06082542 -5.60595845 0 0 Z " fill="#232424" transform="translate(989,375)"/>
<path d="M0 0 C0.495 0.99 0.495 0.99 1 2 C-0.16972688 4.60234692 -1.3933703 7.06063324 -2.75 9.5625 C-3.1109375 10.26052734 -3.471875 10.95855469 -3.84375 11.67773438 C-6.62667872 16.87555957 -6.62667872 16.87555957 -10 18 C-11.37334617 20.28891028 -12.15250816 22.45752447 -13 25 C-13.66 25 -14.32 25 -15 25 C-15.23460937 25.56976562 -15.46921875 26.13953125 -15.7109375 26.7265625 C-19.78435438 33.91058863 -28.35362425 39.26584968 -35 44 C-35.66 43.34 -36.32 42.68 -37 42 C-36.67 41.01 -36.34 40.02 -36 39 C-36.66 38.34 -37.32 37.68 -38 37 C-37.29875 36.49210938 -36.5975 35.98421875 -35.875 35.4609375 C-33.89851586 34.02691232 -31.92470035 32.5892041 -29.953125 31.1484375 C-28.223373 29.89002004 -26.48677632 28.64074342 -24.734375 27.4140625 C-20.29146679 24.2480531 -16.86984884 20.79185879 -13.4453125 16.5390625 C-12.96835937 16.03117188 -12.49140625 15.52328125 -12 15 C-11.34 15 -10.68 15 -10 15 C-10 14.34 -10 13.68 -10 13 C-9.34 13 -8.68 13 -8 13 C-7.73445312 12.43796875 -7.46890625 11.8759375 -7.1953125 11.296875 C-5.90668966 8.82069778 -4.43869639 6.56155118 -2.875 4.25 C-2.33617187 3.45078125 -1.79734375 2.6515625 -1.2421875 1.828125 C-0.83226562 1.22484375 -0.42234375 0.6215625 0 0 Z " fill="#484848" transform="translate(818,520)"/>
<path d="M0 0 C0.66 0.33 1.32 0.66 2 1 C1.31292969 1.39832031 0.62585938 1.79664063 -0.08203125 2.20703125 C-0.98308594 2.73683594 -1.88414062 3.26664062 -2.8125 3.8125 C-3.70582031 4.33457031 -4.59914063 4.85664063 -5.51953125 5.39453125 C-7.68492455 6.79606928 -9.2398804 8.14697086 -11 10 C-13.68021728 11.74214123 -15.95982762 12.98660921 -19 14 C-19.28875 14.5775 -19.5775 15.155 -19.875 15.75 C-21.37356537 18.74713073 -23.64271698 20.64271698 -26 23 C-26.33 23.99 -26.66 24.98 -27 26 C-27.66 26 -28.32 26 -29 26 C-29.103125 26.845625 -29.20625 27.69125 -29.3125 28.5625 C-30 32 -30 32 -31.51953125 35.19140625 C-33.31147652 39.27902831 -33.45849647 42.95813594 -33.375 47.375 C-33.36919922 48.1187085 -33.36339844 48.86241699 -33.35742188 49.62866211 C-33.2249794 55.24091205 -32.2597274 59.82145805 -30 65 C-30.66 65 -31.32 65 -32 65 C-36.55352032 55.46937607 -36.55352032 55.46937607 -37 50 C-37.06316406 49.29617188 -37.12632812 48.59234375 -37.19140625 47.8671875 C-37.79076215 35.84140142 -33.18991747 24.57166934 -25.43798828 15.47070312 C-21.03689489 10.96948299 -15.4805871 7.98490732 -10 5 C-8.99324219 4.44054687 -7.98648438 3.88109375 -6.94921875 3.3046875 C-2.2101476 0.7945572 -2.2101476 0.7945572 0 0 Z " fill="#202020" transform="translate(526,464)"/>
<path d="M0 0 C0.66 0.33 1.32 0.66 2 1 C-9.63241332 11.12492455 -22.045628 17.07572022 -36.06811523 23.13378906 C-37.42559945 23.74245253 -38.7602703 24.40335395 -40.07446289 25.10058594 C-42.48185852 26.22507503 -44.37511039 26.1458272 -47 26 C-47 26.66 -47 27.32 -47 28 C-54.425 29.485 -54.425 29.485 -62 31 C-62 28 -62 28 -60 26 C-58.15399149 25.40157863 -56.28092151 24.88534749 -54.3984375 24.4140625 C-53.26792969 24.12273438 -52.13742187 23.83140625 -50.97265625 23.53125 C-48.59810766 22.93310095 -46.22311544 22.33670995 -43.84765625 21.7421875 C-38.13511545 20.26714865 -32.88417836 18.75011477 -27.69482422 15.91943359 C-25.17845225 14.55431449 -22.53520937 13.54989596 -19.875 12.5 C-15.48862551 10.71111243 -11.84491471 8.73191309 -8 6 C-7.34 6 -6.68 6 -6 6 C-6 5.34 -6 4.68 -6 4 C-4.03852126 2.61061923 -2.03833424 1.2739589 0 0 Z " fill="#272727" transform="translate(1052,506)"/>
<path d="M0 0 C1.16648389 3.49945168 0.77896246 4.07538109 -0.41796875 7.42578125 C-2.70543317 15.34653411 -2.41272649 23.30627491 -2.33618164 31.48022461 C-2.31245893 34.19219464 -2.31565505 36.90318583 -2.32226562 39.61523438 C-2.31669109 41.36198495 -2.30958263 43.10873145 -2.30078125 44.85546875 C-2.30169266 45.65462204 -2.30260406 46.45377533 -2.30354309 47.27714539 C-2.23847174 52.49760044 -1.37698601 56.96555424 0 62 C0.125 65 0.125 65 0 67 C-2.23008785 63.65486822 -3.08880825 60.46053102 -4.0625 56.625 C-4.23587891 55.965 -4.40925781 55.305 -4.58789062 54.625 C-5.07427443 52.75400635 -5.53772987 50.8770969 -6 49 C-6.19722656 48.22785156 -6.39445312 47.45570313 -6.59765625 46.66015625 C-8.92191729 31.29295462 -7.65573083 13.80893505 0 0 Z " fill="#262626" transform="translate(439,482)"/>
<path d="M0 0 C2.48496124 7.45488373 -1.22011789 14.84194183 -3.84375 21.828125 C-5.26979084 25.74010189 -6.10860447 29.17208936 -6.31640625 33.328125 C-6.35830078 34.12734375 -6.40019531 34.9265625 -6.44335938 35.75 C-6.48267578 36.575 -6.52199219 37.4 -6.5625 38.25 C-6.60568359 39.09046875 -6.64886719 39.9309375 -6.69335938 40.796875 C-6.79908543 42.86440671 -6.90001295 44.93218281 -7 47 C-7.66 46.67 -8.32 46.34 -9 46 C-9.50311437 43.28318239 -9.80894456 40.7458665 -10 38 C-10.09861328 36.80503906 -10.09861328 36.80503906 -10.19921875 35.5859375 C-10.70649089 24.00613896 -7.58292237 9.02728854 0 0 Z " fill="#424344" transform="translate(737,445)"/>
<path d="M0 0 C0 0.99 0 1.98 0 3 C-0.79881592 3.04487549 -1.59763184 3.08975098 -2.4206543 3.13598633 C-17.37452959 3.99732783 -32.16785688 5.03113495 -46.97265625 7.4140625 C-50.01450864 7.89534618 -52.9114651 8.13671583 -56 8 C-52.40341464 5.60227643 -48.90659321 4.88952649 -44.75 4 C-43.53836182 3.73944824 -43.53836182 3.73944824 -42.30224609 3.47363281 C-28.03774234 0.48210006 -14.52620712 -0.26545353 0 0 Z " fill="#343635" transform="translate(976,372)"/>
<path d="M0 0 C0.66 0.33 1.32 0.66 2 1 C1.57619232 5.94442292 -0.5375044 7.61444875 -4 11 C-5.5973207 13.22984368 -7.08984284 15.50767383 -8.5703125 17.81640625 C-9.96618138 19.94834806 -11.45026722 21.97801137 -13 24 C-14.46291512 15.77110245 -14.46291512 15.77110245 -12.57421875 12.625 C-11.95160156 11.75875 -11.32898438 10.8925 -10.6875 10 C-10.07261719 9.13375 -9.45773437 8.2675 -8.82421875 7.375 C-6.23864607 4.00877262 -4.01474033 1.55409303 0 0 Z " fill="#2E2F31" transform="translate(751,428)"/>
<path d="M0 0 C3.29510135 0.91956317 5.68345917 1.74129885 8.3515625 3.921875 C11.07610665 6.0597179 13.47793602 7.23160088 16.6875 8.5 C18.24791016 9.12455078 18.24791016 9.12455078 19.83984375 9.76171875 C20.88269531 10.17035156 21.92554688 10.57898438 23 11 C24.91690107 11.77025024 26.83358988 12.54102907 28.75 13.3125 C30.16630695 13.87590512 31.58282785 14.43877475 33 15 C33 16.65 33 18.3 33 20 C23.63677939 17.23708244 14.80846318 12.90910727 7 7 C7 6.34 7 5.68 7 5 C6.21625 4.731875 5.4325 4.46375 4.625 4.1875 C2 3 2 3 0 0 Z " fill="#414141" transform="translate(465,595)"/>
<path d="M0 0 C1.08809212 0.03541649 1.08809212 0.03541649 2.19816589 0.07154846 C4.5008217 0.14773945 6.80310264 0.23195328 9.10546875 0.31640625 C10.67250808 0.36967166 12.23956536 0.42241171 13.80664062 0.47460938 C17.63565123 0.60329367 21.46434616 0.73917087 25.29296875 0.87890625 C25.29296875 1.53890625 25.29296875 2.19890625 25.29296875 2.87890625 C24.17277344 2.85570312 23.05257812 2.8325 21.8984375 2.80859375 C20.42578791 2.78983388 18.95313112 2.77163391 17.48046875 2.75390625 C16.74248047 2.73714844 16.00449219 2.72039063 15.24414062 2.703125 C11.38050449 2.66815997 9.58393207 2.6849307 6.29296875 4.87890625 C3.58012004 5.10018734 1.00377489 5.203465 -1.70703125 5.19140625 C-2.79371094 5.21557617 -2.79371094 5.21557617 -3.90234375 5.24023438 C-9.20433885 5.24512551 -9.20433885 5.24512551 -11.70703125 3.421875 C-12.70703125 1.87890625 -12.70703125 1.87890625 -12.70703125 0.87890625 C-8.43270081 -0.19601004 -4.36844254 -0.16967863 0 0 Z " fill="#525252" transform="translate(537.70703125,618.12109375)"/>
<path d="M0 0 C2.8002232 1.4001116 3.56776098 3.26572551 5 6 C5 6.99 5 7.98 5 9 C3.03125 10.60546875 3.03125 10.60546875 0.5 12.1875 C-0.3353125 12.71730469 -1.170625 13.24710937 -2.03125 13.79296875 C-2.6809375 14.19128906 -3.330625 14.58960938 -4 15 C-4.103125 14.360625 -4.20625 13.72125 -4.3125 13.0625 C-4.539375 12.381875 -4.76625 11.70125 -5 11 C-5.99 10.67 -6.98 10.34 -8 10 C-8 9.34 -8 8.68 -8 8 C-8.66 7.67 -9.32 7.34 -10 7 C-9.36191406 6.57847656 -8.72382812 6.15695312 -8.06640625 5.72265625 C-7.24011719 5.17480469 -6.41382813 4.62695312 -5.5625 4.0625 C-4.73878906 3.51722656 -3.91507813 2.97195313 -3.06640625 2.41015625 C-1.10014075 1.16197019 -1.10014075 1.16197019 0 0 Z " fill="#F1F1F1" transform="translate(740,497)"/>
<path d="M0 0 C0.66 0.66 1.32 1.32 2 2 C1.01 3.485 1.01 3.485 0 5 C0 6.32 0 7.64 0 9 C-0.66 9.66 -1.32 10.32 -2 11 C-2.71408334 12.98356483 -3.38617742 14.98315437 -4 17 C-5.9375 16.625 -5.9375 16.625 -8 16 C-8.33 15.34 -8.66 14.68 -9 14 C-9.66 13.67 -10.32 13.34 -11 13 C-11.33 12.34 -11.66 11.68 -12 11 C-11.34 10.67 -10.68 10.34 -10 10 C-9.7834375 9.071875 -9.7834375 9.071875 -9.5625 8.125 C-8.8812409 5.5513545 -8.04846973 4.66912348 -6 3 C-3.9375 1.875 -3.9375 1.875 -2 1 C-1.34 0.67 -0.68 0.34 0 0 Z " fill="#080808" transform="translate(757,497)"/>
<path d="M0 0 C4.59229953 6.8884493 3.80584257 15.69436439 2.328125 23.58984375 C1.61537907 26.41729342 0.85744442 29.21330565 0 32 C-0.66 32 -1.32 32 -2 32 C-2.4021875 33.11375 -2.4021875 33.11375 -2.8125 34.25 C-3.95276751 36.89061949 -5.09380306 38.85552844 -7 41 C-7.66 41 -8.32 41 -9 41 C-9 40.01 -9 39.02 -9 38 C-8.34 38 -7.68 38 -7 38 C-1.66616759 24.7252153 0.18113352 14.32967376 0 0 Z " fill="#2B2D2C" transform="translate(1028,418)"/>
<path d="M0 0 C0.33 0.66 0.66 1.32 1 2 C-0.16972688 4.60234692 -1.3933703 7.06063324 -2.75 9.5625 C-3.1109375 10.26052734 -3.471875 10.95855469 -3.84375 11.67773438 C-6.62667872 16.87555957 -6.62667872 16.87555957 -10 18 C-11.37334617 20.28891028 -12.15250816 22.45752447 -13 25 C-13.66 25 -14.32 25 -15 25 C-15.66 26.32 -16.32 27.64 -17 29 C-17.99 28.34 -18.98 27.68 -20 27 C-18.68 25.68 -17.36 24.36 -16 23 C-16.66 22.67 -17.32 22.34 -18 22 C-17.04882866 20.8274869 -16.08882991 19.66212985 -15.125 18.5 C-14.32449219 17.52546875 -14.32449219 17.52546875 -13.5078125 16.53125 C-13.01023437 16.0259375 -12.51265625 15.520625 -12 15 C-11.34 15 -10.68 15 -10 15 C-10 14.34 -10 13.68 -10 13 C-9.34 13 -8.68 13 -8 13 C-7.73445312 12.43796875 -7.46890625 11.8759375 -7.1953125 11.296875 C-5.90668966 8.82069778 -4.43869639 6.56155118 -2.875 4.25 C-2.33617187 3.45078125 -1.79734375 2.6515625 -1.2421875 1.828125 C-0.83226562 1.22484375 -0.42234375 0.6215625 0 0 Z " fill="#424242" transform="translate(818,520)"/>
<path d="M0 0 C6.93860929 4.18284957 12.45946696 9.10581592 18 15 C17.67 15.66 17.34 16.32 17 17 C16.40574219 16.55269531 15.81148437 16.10539062 15.19921875 15.64453125 C9.09770258 11.19412521 2.97589584 7.87788859 -4 5 C-3.67 4.01 -3.34 3.02 -3 2 C-2.01 2 -1.02 2 0 2 C0 1.34 0 0.68 0 0 Z " fill="#E7E8EA" transform="translate(1020,348)"/>
<path d="M0 0 C0 0.33 0 0.66 0 1 C-2.31 1.33 -4.62 1.66 -7 2 C-4.525 2.495 -4.525 2.495 -2 3 C-2 3.33 -2 3.66 -2 4 C-10.73952546 5.44796872 -19.13911833 6.29211698 -28 6 C-27.34 5.01 -26.68 4.02 -26 3 C-23.03471821 2.9437721 -20.31149974 3.04316196 -17.375 3.3125 C-16.57320312 3.37373047 -15.77140625 3.43496094 -14.9453125 3.49804688 C-12.96241876 3.65148508 -10.98101481 3.82395693 -9 4 C-9 3.34 -9 2.68 -9 2 C-16.92 2 -24.84 2 -33 2 C-33 1.67 -33 1.34 -33 1 C-29.18763538 0.83013993 -25.37509074 0.66470036 -21.5625 0.5 C-20.49322266 0.45230469 -19.42394531 0.40460937 -18.32226562 0.35546875 C-12.20770603 0.09368332 -6.12009114 -0.05148342 0 0 Z " fill="#3C3C3C" transform="translate(572,617)"/>
<path d="M0 0 C0.33 0 0.66 0 1 0 C1 10.23 1 20.46 1 31 C0.34 31 -0.32 31 -1 31 C-2.20993218 25.61776305 -2.18392083 20.43152544 -2.1875 14.9375 C-2.19974609 13.94427734 -2.21199219 12.95105469 -2.22460938 11.92773438 C-2.22654297 10.97060547 -2.22847656 10.01347656 -2.23046875 9.02734375 C-2.23457764 8.15843506 -2.23868652 7.28952637 -2.24291992 6.39428711 C-1.98327559 3.8351595 -1.28941962 2.20546012 0 0 Z " fill="#3D3D3D" transform="translate(434,500)"/>
<path d="M0 0 C0.99 0 1.98 0 3 0 C2.84015625 0.98226563 2.6803125 1.96453125 2.515625 2.9765625 C1.08232388 13.08590973 0.87423403 23.54511966 5 33 C4.34 33 3.68 33 3 33 C-2.30473866 21.89705862 -3.52371827 11.89254917 0 0 Z " fill="#2B2B2B" transform="translate(491,496)"/>
<path d="M0 0 C1.65 1.65 3.3 3.3 5 5 C5 4.34 5 3.68 5 3 C5.66 3 6.32 3 7 3 C7.33 4.65 7.66 6.3 8 8 C8.66 8 9.32 8 10 8 C10.061875 8.928125 10.061875 8.928125 10.125 9.875 C10.41375 10.57625 10.7025 11.2775 11 12 C13.97503122 13.15835673 13.97503122 13.15835673 17 14 C17.33 14.66 17.66 15.32 18 16 C17.01 16 16.02 16 15 16 C14.67 16.66 14.34 17.32 14 18 C11.34987305 15.54626122 8.70565003 13.086251 6.0625 10.625 C5.30775391 9.92632813 4.55300781 9.22765625 3.77539062 8.5078125 C3.05673828 7.8375 2.33808594 7.1671875 1.59765625 6.4765625 C0.93258057 5.85861816 0.26750488 5.24067383 -0.41772461 4.60400391 C-2 3 -2 3 -3 1 C-2.01 0.67 -1.02 0.34 0 0 Z " fill="#131313" transform="translate(445,599)"/>
<path d="M0 0 C-5.898811 2.06458385 -11.78603535 3.76666433 -17.859375 5.23828125 C-22.08584624 6.26335823 -26.29382943 7.35895981 -30.50390625 8.44921875 C-33 9 -33 9 -36 9 C-35.67 8.01 -35.34 7.02 -35 6 C-34.40429199 5.8868042 -33.80858398 5.7736084 -33.19482422 5.65698242 C-28.62358505 4.76820431 -24.08880994 3.80417998 -19.5703125 2.67578125 C-18.673125 2.45212891 -17.7759375 2.22847656 -16.8515625 1.99804688 C-15.00903082 1.53477422 -13.1679062 1.06587457 -11.328125 0.59179688 C-10.43867187 0.37201172 -9.54921875 0.15222656 -8.6328125 -0.07421875 C-7.83762207 -0.27619873 -7.04243164 -0.47817871 -6.22314453 -0.6862793 C-3.83636933 -1.02309086 -2.27424164 -0.74174167 0 0 Z " fill="#2F3030" transform="translate(649,438)"/>
<path d="M0 0 C-0.99 0.33 -1.98 0.66 -3 1 C-3.66 2.98 -4.32 4.96 -5 7 C-9.62 7 -14.24 7 -19 7 C-17.42366861 3.84733722 -14.29046963 3.13788904 -11.1875 1.8125 C-10.55779297 1.52697266 -9.92808594 1.24144531 -9.27929688 0.94726562 C-3.52304506 -1.53523122 -3.52304506 -1.53523122 0 0 Z " fill="#D8D8D8" transform="translate(882,522)"/>
<path d="M0 0 C2 2 2 2 2 5 C3.32 5.33 4.64 5.66 6 6 C2.82679218 9.53586014 0.83256305 11.58578031 -4 12 C-3.01 9.69 -2.02 7.38 -1 5 C-1.78375 5.515625 -2.5675 6.03125 -3.375 6.5625 C-4.24125 7.036875 -5.1075 7.51125 -6 8 C-6.66 7.67 -7.32 7.34 -8 7 C-5.36 4.69 -2.72 2.38 0 0 Z " fill="#EDEDED" transform="translate(770,438)"/>
<path d="M0 0 C6.3343346 5.09500827 11.62789574 10.92530665 17 17 C15.02 17.99 15.02 17.99 13 19 C12.67 17.68 12.34 16.36 12 15 C11.01 15.33 10.02 15.66 9 16 C8.896875 15.236875 8.79375 14.47375 8.6875 13.6875 C7.94348803 10.77908957 7.20194413 9.92670112 5 8 C4.67 7.34 4.34 6.68 4 6 C3.01 6 2.02 6 1 6 C0.67 4.02 0.34 2.04 0 0 Z " fill="#151617" transform="translate(1057,347)"/>
<path d="M0 0 C0.33 0.66 0.66 1.32 1 2 C-2.39499304 2.50581854 -5.79111482 3.00362244 -9.1875 3.5 C-10.62706055 3.71462891 -10.62706055 3.71462891 -12.09570312 3.93359375 C-13.02705078 4.06894531 -13.95839844 4.20429688 -14.91796875 4.34375 C-15.77156982 4.46943359 -16.6251709 4.59511719 -17.50463867 4.72460938 C-20.02469675 5.00272556 -22.46685782 5.047608 -25 5 C-21.15791476 2.43860984 -17.52721214 1.79014843 -13.0625 0.8125 C-12.25103516 0.62236328 -11.43957031 0.43222656 -10.60351562 0.23632812 C-9.81783203 0.06166016 -9.03214844 -0.11300781 -8.22265625 -0.29296875 C-7.50859619 -0.4530542 -6.79453613 -0.61313965 -6.05883789 -0.77807617 C-3.74328309 -1.02767173 -2.17911455 -0.81077141 0 0 Z " fill="#313234" transform="translate(945,375)"/>
<path d="M0 0 C0.99 0.33 1.98 0.66 3 1 C2.67 2.98 2.34 4.96 2 7 C1.01 7 0.02 7 -1 7 C-1.66 8.32 -2.32 9.64 -3 11 C-4.32 10.01 -5.64 9.02 -7 8 C-4.69 5.36 -2.38 2.72 0 0 Z " fill="#121413" transform="translate(716,429)"/>
<path d="M0 0 C-7.06498939 4.70999292 -14.80758825 4.24577235 -23 4 C-22.67 3.34 -22.34 2.68 -22 2 C-14.77297327 0.41142696 -7.38921642 -0.29556866 0 0 Z " fill="#505050" transform="translate(587,616)"/>
<path d="M0 0 C-0.185625 0.61875 -0.37125 1.2375 -0.5625 1.875 C-1.23686176 4.04160178 -1.23686176 4.04160178 0 6 C-10.55808656 6.3690205 -10.55808656 6.3690205 -15 4 C-12.15436696 2.45374278 -9.54069019 1.54201833 -6.375 0.875 C-5.59898437 0.70742188 -4.82296875 0.53984375 -4.0234375 0.3671875 C-2 0 -2 0 0 0 Z " fill="#1D1D1D" transform="translate(714,521)"/>
<path d="M0 0 C3.3 0.66 6.6 1.32 10 2 C9.67 2.66 9.34 3.32 9 4 C-4.86 3.505 -4.86 3.505 -19 3 C-19 2.67 -19 2.34 -19 2 C-12.73 2 -6.46 2 0 2 C0 1.34 0 0.68 0 0 Z " fill="#2C2E2A" transform="translate(976,373)"/>
<path d="M0 0 C1 2 1 2 0.875 4.5 C0 7 0 7 -2.5625 8.3125 C-3.7690625 8.6528125 -3.7690625 8.6528125 -5 9 C-5 9.99 -5 10.98 -5 12 C-6.65 12.33 -8.3 12.66 -10 13 C-10.33 12.01 -10.66 11.02 -11 10 C-5.555 5.05 -5.555 5.05 0 0 Z " fill="#191A1C" transform="translate(715,384)"/>
<path d="M0 0 C0.33 0.66 0.66 1.32 1 2 C0.01 2.495 0.01 2.495 -1 3 C-1.65213292 5.02463255 -1.65213292 5.02463255 -2 7 C-2.804375 7.12375 -3.60875 7.2475 -4.4375 7.375 C-5.7059375 7.684375 -5.7059375 7.684375 -7 8 C-7.33 8.66 -7.66 9.32 -8 10 C-8.98020375 11.0194119 -9.97803008 12.02246356 -11 13 C-11.66 11.68 -12.32 10.36 -13 9 C-8.71 6.03 -4.42 3.06 0 0 Z " fill="#16171A" transform="translate(729,374)"/>
<path d="M0 0 C2.475 0.99 2.475 0.99 5 2 C4.67 4.64 4.34 7.28 4 10 C3.01 10.33 2.02 10.66 1 11 C1 10.01 1 9.02 1 8 C0.01 7.67 -0.98 7.34 -2 7 C-2 5.68 -2 4.36 -2 3 C-1.34 3 -0.68 3 0 3 C0 2.01 0 1.02 0 0 Z " fill="#161616" transform="translate(843,491)"/>
<path d="M0 0 C0.66 1.32 1.32 2.64 2 4 C-0.1385485 6.1385485 -1.13275314 6.42655063 -4 7 C-4.33 8.98 -4.66 10.96 -5 13 C-5.33 12.01 -5.66 11.02 -6 10 C-8.31 10.33 -10.62 10.66 -13 11 C-10.64105041 8.51929818 -8.09146469 6.45437851 -5.375 4.375 C-2.58809969 2.30239094 -2.58809969 2.30239094 0 0 Z " fill="#151516" transform="translate(1044,479)"/>
<path d="M0 0 C-3.01447835 2.57075841 -5.35979771 3.52207066 -9.25 4.1875 C-10.58804688 4.42533203 -10.58804688 4.42533203 -11.953125 4.66796875 C-12.96632813 4.83232422 -12.96632813 4.83232422 -14 5 C-13.67 3.68 -13.34 2.36 -13 1 C-11.58622218 0.63447197 -10.16879424 0.28304505 -8.75 -0.0625 C-7.96109375 -0.25972656 -7.1721875 -0.45695313 -6.359375 -0.66015625 C-3.89605178 -1.01497267 -2.34395868 -0.76877544 0 0 Z " fill="#303030" transform="translate(992,535)"/>
<path d="M0 0 C0.33 0.66 0.66 1.32 1 2 C-0.19416099 4.59766871 -1.44024102 7.06178439 -2.8125 9.5625 C-3.18181641 10.26052734 -3.55113281 10.95855469 -3.93164062 11.67773438 C-6.73557932 16.86778966 -6.73557932 16.86778966 -9 18 C-9.33 16.35 -9.66 14.7 -10 13 C-9.34 13 -8.68 13 -8 13 C-7.73445312 12.43796875 -7.46890625 11.8759375 -7.1953125 11.296875 C-5.90668966 8.82069778 -4.43869639 6.56155118 -2.875 4.25 C-2.33617187 3.45078125 -1.79734375 2.6515625 -1.2421875 1.828125 C-0.62730469 0.92320312 -0.62730469 0.92320312 0 0 Z " fill="#383838" transform="translate(818,520)"/>
<path d="M0 0 C2 4 2 4 1.125 7.25 C0.75375 8.1575 0.3825 9.065 0 10 C0.66 10 1.32 10 2 10 C2 10.66 2 11.32 2 12 C1.34 12 0.68 12 0 12 C-0.33 12.66 -0.66 13.32 -1 14 C-2.32 12.68 -3.64 11.36 -5 10 C-3.35 6.7 -1.7 3.4 0 0 Z " fill="#111214" transform="translate(1060,456)"/>
<path d="M0 0 C4.57798244 1.27757649 7.32611916 3.06089533 11 6 C14.17921787 7.25556887 14.17921787 7.25556887 17 8 C16.01 9.485 16.01 9.485 15 11 C12.0280615 9.87548273 9.66559313 8.77706209 7 7 C7 6.34 7 5.68 7 5 C6.21625 4.731875 5.4325 4.46375 4.625 4.1875 C2 3 2 3 0 0 Z " fill="#383838" transform="translate(465,595)"/>
<path d="M0 0 C0.98484375 0.00902344 1.9696875 0.01804687 2.984375 0.02734375 C4.10585938 0.04474609 4.10585938 0.04474609 5.25 0.0625 C4.23046875 1.55078125 4.23046875 1.55078125 2.25 3.0625 C-0.39996326 3.2797101 -2.80076558 3.34601554 -5.4375 3.25 C-6.13939453 3.23646484 -6.84128906 3.22292969 -7.56445312 3.20898438 C-9.29329829 3.17370182 -11.02174765 3.11989583 -12.75 3.0625 C-8.38228707 0.15069138 -5.19846409 -0.06188648 0 0 Z " fill="#3C3D3D" transform="translate(954.75,372.9375)"/>
<path d="M0 0 C0 3 0 3 -1 6 C-1.66 6 -2.32 6 -3 6 C-3.12375 6.94875 -3.2475 7.8975 -3.375 8.875 C-4 12 -4 12 -6 14 C-6 13.34 -6 12.68 -6 12 C-6.66 12 -7.32 12 -8 12 C-6.79444959 5.85169289 -5.08441876 3.64751781 0 0 Z " fill="#272727" transform="translate(500,484)"/>
<path d="M0 0 C2.6486859 3.19668988 4.93992341 6.39486597 7 10 C6.01 10 5.02 10 4 10 C3.67 10.66 3.34 11.32 3 12 C-1 7.5 -1 7.5 -1 3 C-0.67 2.01 -0.34 1.02 0 0 Z " fill="#161616" transform="translate(458,538)"/>
<path d="M0 0 C1.4800841 0.11362262 2.95910074 0.24122908 4.4375 0.375 C5.26121094 0.44460938 6.08492187 0.51421875 6.93359375 0.5859375 C7.95646484 0.79089844 7.95646484 0.79089844 9 1 C9.33 1.66 9.66 2.32 10 3 C9.34 3 8.68 3 8 3 C8 3.66 8 4.32 8 5 C8.66 5.33 9.32 5.66 10 6 C4.95749572 6 3.22094347 4.59750368 -1 2 C-0.67 1.34 -0.34 0.68 0 0 Z " fill="#19191B" transform="translate(990,395)"/>
<path d="M0 0 C0 0.66 0 1.32 0 2 C-2.31 3.32 -4.62 4.64 -7 6 C-7 6.66 -7 7.32 -7 8 C-7.66 8 -8.32 8 -9 8 C-9 7.34 -9 6.68 -9 6 C-10.98 6 -12.96 6 -15 6 C-12.29954818 4.19969878 -9.93322119 3.06622934 -6.9375 1.875 C-6.05964844 1.52179687 -5.18179688 1.16859375 -4.27734375 0.8046875 C-2 0 -2 0 0 0 Z " fill="#1A1A1A" transform="translate(740,543)"/>
<path d="M0 0 C0.99 0 1.98 0 3 0 C2.30834212 5.41798672 1.24200752 10.6822785 0 16 C-0.33 16 -0.66 16 -1 16 C-1.02725341 14.2709226 -1.04650987 12.54171824 -1.0625 10.8125 C-1.07410156 9.84957031 -1.08570313 8.88664062 -1.09765625 7.89453125 C-1.00486622 5.14423487 -0.62111685 2.67520409 0 0 Z " fill="#3B3B3B" transform="translate(491,496)"/>
<path d="M0 0 C-4.51368168 3.81926912 -9.09749318 5.34720628 -15 5 C-11.36209658 -0.45685513 -6.16592088 -0.24663684 0 0 Z " fill="#282A29" transform="translate(794,408)"/>
<path d="M0 0 C0.99 0.33 1.98 0.66 3 1 C2.34 1 1.68 1 1 1 C1 1.66 1 2.32 1 3 C0.01 3.495 0.01 3.495 -1 4 C-1.65555119 6.52733235 -1.65555119 6.52733235 -2 9 C-2.66 9 -3.32 9 -4 9 C-4 9.66 -4 10.32 -4 11 C-5.32 10.67 -6.64 10.34 -8 10 C-5.61820737 6.25718301 -3.25524265 3.02272532 0 0 Z " fill="#E6E6E7" transform="translate(688,393)"/>
<path d="M0 0 C1.48285242 0.95262034 2.96118201 1.91228405 4.4375 2.875 C5.67306641 3.67550781 5.67306641 3.67550781 6.93359375 4.4921875 C9 6 9 6 10 8 C9.34 8.66 8.68 9.32 8 10 C0.6 5.8 0.6 5.8 -1 1 C-0.67 0.67 -0.34 0.34 0 0 Z " fill="#141414" transform="translate(477,561)"/>
<path d="M0 0 C0.96805366 2.90416097 1.05846827 4.07654856 0.6875 7 C0.60886719 7.680625 0.53023437 8.36125 0.44921875 9.0625 C0 11 0 11 -2 14 C-3.41752577 4.60889175 -3.41752577 4.60889175 -1.5 1.8125 C-1.005 1.214375 -0.51 0.61625 0 0 Z " fill="#3B3D3E" transform="translate(737,445)"/>
<path d="M0 0 C3.33333333 1.66666667 6.66666667 3.33333333 10 5 C10 5.66 10 6.32 10 7 C5.25 8.125 5.25 8.125 3 7 C3 6.01 3 5.02 3 4 C1.68 3.67 0.36 3.34 -1 3 C-0.67 2.01 -0.34 1.02 0 0 Z " fill="#1C1D1F" transform="translate(1030,360)"/>
<path d="M0 0 C4.8527811 -0.32351874 9.21996348 0.0439927 14 1 C10.5233662 3.14336161 7.78770805 3.21277626 3.75 3.125 C2.67234375 3.10695313 1.5946875 3.08890625 0.484375 3.0703125 C-0.33546875 3.04710937 -1.1553125 3.02390625 -2 3 C-1.34 2.01 -0.68 1.02 0 0 Z " fill="#454545" transform="translate(546,620)"/>
<path d="M0 0 C0.66 0.33 1.32 0.66 2 1 C1.02526874 2.66926454 0.04510211 4.33535642 -0.9375 6 C-1.75541016 7.3921875 -1.75541016 7.3921875 -2.58984375 8.8125 C-3.05519531 9.534375 -3.52054688 10.25625 -4 11 C-4.33 11 -4.66 11 -5 11 C-5.25 4.375 -5.25 4.375 -3 1 C-2.01 0.67 -1.02 0.34 0 0 Z " fill="#121313" transform="translate(1047,443)"/>
<path d="M0 0 C0 3 0 3 -1.20703125 4.67578125 C-3.51694102 6.38179304 -4.84890819 6.31091704 -7.6875 6.1875 C-8.49574219 6.16042969 -9.30398438 6.13335937 -10.13671875 6.10546875 C-10.75160156 6.07066406 -11.36648438 6.03585937 -12 6 C-8.59780735 3.25207517 -4.51535412 0 0 0 Z " fill="#1F1F1F" transform="translate(754,361)"/>
<path d="M0 0 C4.29238623 1.65091778 6.8793915 4.73754566 10 8 C9.67 8.66 9.34 9.32 9 10 C5.7 7.69 2.4 5.38 -1 3 C-0.67 2.01 -0.34 1.02 0 0 Z " fill="#CFD0D1" transform="translate(1028,355)"/>
<path d="M0 0 C-0.33 0.99 -0.66 1.98 -1 3 C-4.63 3.33 -8.26 3.66 -12 4 C-10 1 -10 1 -8.25 0.3125 C-5.48083033 -0.0721069 -2.79197653 -0.06345401 0 0 Z " fill="#3B3B3B" transform="translate(966,541)"/>
<path d="M0 0 C3.3 0 6.6 0 10 0 C10 0.66 10 1.32 10 2 C5.545 3.485 5.545 3.485 1 5 C0.67 3.35 0.34 1.7 0 0 Z " fill="#D6D7D8" transform="translate(669,392)"/>
<path d="M0 0 C2.25245881 2.68841859 3.88213958 4.64641875 5 8 C2.07120629 7.37240135 -0.36095629 6.41377341 -3 5 C-1.125 1.125 -1.125 1.125 0 0 Z " fill="#191919" transform="translate(510,536)"/>
<path d="M0 0 C0.33 0.99 0.66 1.98 1 3 C-1.30368736 4.06652192 -3.64018187 5.06421005 -6 6 C-6.66 5.67 -7.32 5.34 -8 5 C-7.6875 3.0625 -7.6875 3.0625 -7 1 C-4 0 -4 0 0 0 Z " fill="#121315" transform="translate(785,426)"/>
<path d="M0 0 C3.47775179 1.51553404 5.9557984 3.5773456 8.75 6.125 C9.94882812 7.21167969 9.94882812 7.21167969 11.171875 8.3203125 C11.77515625 8.87460937 12.3784375 9.42890625 13 10 C12.34 10.66 11.68 11.32 11 12 C9.66079162 10.88200014 8.32877444 9.75538103 7 8.625 C5.88625 7.68527344 5.88625 7.68527344 4.75 6.7265625 C4.1725 6.15679688 3.595 5.58703125 3 5 C3 4.34 3 3.68 3 3 C2.34 3 1.68 3 1 3 C0.67 2.01 0.34 1.02 0 0 Z " fill="#212121" transform="translate(453,584)"/>
<path d="M0 0 C-0.33 1.32 -0.66 2.64 -1 4 C-7.625 3.25 -7.625 3.25 -11 1 C-7.32589215 -0.17571451 -3.83070817 -0.07366746 0 0 Z " fill="#1E1E1E" transform="translate(645,570)"/>
<path d="M0 0 C1 2 2 4 3 6 C2.34 6.66 1.68 7.32 1 8 C-0.32 8 -1.64 8 -3 8 C-3.66 7.34 -4.32 6.68 -5 6 C-3.35 4.02 -1.7 2.04 0 0 Z " fill="#131313" transform="translate(1053,469)"/>
<path d="M0 0 C1.875 1.5 1.875 1.5 3 3 C-5.57142857 4.28571429 -5.57142857 4.28571429 -9 3 C-9 2.34 -9 1.68 -9 1 C-5.72429875 -0.09190042 -3.43202271 -0.28600189 0 0 Z " fill="#181818" transform="translate(889,402)"/>
<path d="M0 0 C2 1 2 1 2.6328125 2.84765625 C2.79523437 3.57855469 2.95765625 4.30945313 3.125 5.0625 C3.29257812 5.79597656 3.46015625 6.52945312 3.6328125 7.28515625 C3.75398437 7.85105469 3.87515625 8.41695313 4 9 C1.525 8.01 1.525 8.01 -1 7 C-1.33 7.99 -1.66 8.98 -2 10 C-1.125 2.25 -1.125 2.25 0 0 Z " fill="#DADADA" transform="translate(792,452)"/>
<path d="M0 0 C0.33 0.66 0.66 1.32 1 2 C0.34 1.67 -0.32 1.34 -1 1 C-0.67 0.67 -0.34 0.34 0 0 Z M-1 2 C-1 2.66 -1 3.32 -1 4 C-0.34 4.33 0.32 4.66 1 5 C-1.8125 6.5625 -1.8125 6.5625 -5 8 C-5.99 7.67 -6.98 7.34 -8 7 C-3.25 2 -3.25 2 -1 2 Z " fill="#141414" transform="translate(779,442)"/>
<path d="M0 0 C0.66 0.33 1.32 0.66 2 1 C0.94958421 3.86477034 0.29875437 4.83913226 -2.4375 6.3125 C-5 7 -5 7 -8 6 C-5.36 4.02 -2.72 2.04 0 0 Z " fill="#151516" transform="translate(742,408)"/>
<path d="M0 0 C-0.99 0.33 -1.98 0.66 -3 1 C-3 1.66 -3 2.32 -3 3 C-4.98 3 -6.96 3 -9 3 C-9 3.66 -9 4.32 -9 5 C-9.66 5 -10.32 5 -11 5 C-11 4.34 -11 3.68 -11 3 C-12.32 2.67 -13.64 2.34 -15 2 C-9.77487721 0.53329887 -5.4185766 -0.22577402 0 0 Z " fill="#282828" transform="translate(717,552)"/>
<path d="M0 0 C3.37503669 1.1858237 5.64722731 2.27573689 8 5 C5.75 5.6875 5.75 5.6875 3 6 C0.6875 4.5625 0.6875 4.5625 -1 3 C-0.67 2.01 -0.34 1.02 0 0 Z " fill="#141414" transform="translate(1030,329)"/>
<path d="M0 0 C-1.45255699 3.82946843 -3.42895561 5.12050295 -7 7 C-7.33 6.01 -7.66 5.02 -8 4 C-5.29881977 1.17603885 -4.05589853 0 0 0 Z " fill="#171717" transform="translate(1032,464)"/>
<path d="M0 0 C2 2 2 2 2 6 C1.4225 5.773125 0.845 5.54625 0.25 5.3125 C-2.12172477 4.73494807 -2.12172477 4.73494807 -4.25 6.4375 C-4.8275 6.953125 -5.405 7.46875 -6 8 C-6.66 7.67 -7.32 7.34 -8 7 C-5.36 4.69 -2.72 2.38 0 0 Z " fill="#DCDDDD" transform="translate(770,438)"/>
<path d="M0 0 C0.66 0.33 1.32 0.66 2 1 C0.375 6.75 0.375 6.75 -3 9 C-4 7 -4 7 -3.1875 3.9375 C-2 1 -2 1 0 0 Z " fill="#EFEFEF" transform="translate(452,433)"/>
<path d="M0 0 C1.1875 2.0625 1.1875 2.0625 2 4 C1.01 4.66 0.02 5.32 -1 6 C-1.33 4.68 -1.66 3.36 -2 2 C-2.99 2.33 -3.98 2.66 -5 3 C-5 2.34 -5 1.68 -5 1 C-5.99 0.67 -6.98 0.34 -8 0 C-4.71303767 -0.79953138 -3.28976808 -1.09658936 0 0 Z " fill="#222222" transform="translate(832,425)"/>
<path d="M0 0 C-0.99 1.485 -0.99 1.485 -2 3 C-5 3.125 -5 3.125 -8 3 C-8.99 3.495 -8.99 3.495 -10 4 C-10 2.68 -10 1.36 -10 0 C-6.30458414 -0.95024979 -3.69541586 -0.95024979 0 0 Z " fill="#1C1C1C" transform="translate(867,507)"/>
<path d="M0 0 C1.66666667 0 3.33333333 0 5 0 C3.76551991 3.70344028 1.76665659 5.30250982 -1 8 C-1.33 8.66 -1.66 9.32 -2 10 C-2.66 9.67 -3.32 9.34 -4 9 C-2.68 6.03 -1.36 3.06 0 0 Z " fill="#1B1B1B" transform="translate(793,493)"/>
<path d="M0 0 C0 1.32 0 2.64 0 4 C-3.63 3.34 -7.26 2.68 -11 2 C-4.31914894 -1.34042553 -4.31914894 -1.34042553 0 0 Z " fill="#2B2B2B" transform="translate(572,427)"/>
<path d="M0 0 C-0.33 0.66 -0.66 1.32 -1 2 C-3.06640625 2.4140625 -3.06640625 2.4140625 -5.5625 2.625 C-6.38878906 2.69976562 -7.21507812 2.77453125 -8.06640625 2.8515625 C-9.02353516 2.92503906 -9.02353516 2.92503906 -10 3 C-10.33 2.34 -10.66 1.68 -11 1 C-3.57142857 -1.42857143 -3.57142857 -1.42857143 0 0 Z " fill="#212223" transform="translate(857,368)"/>
<path d="M0 0 C0.99 0.66 1.98 1.32 3 2 C2.01 2.495 2.01 2.495 1 3 C1 3.99 1 4.98 1 6 C-1.5 8.6875 -1.5 8.6875 -4 11 C-3.39301257 6.87248551 -1.96189209 3.6678852 0 0 Z " fill="#E0E0E0" transform="translate(455,466)"/>
<path d="M0 0 C0.99 0.66 1.98 1.32 3 2 C3 2.99 3 3.98 3 5 C2.01 5.33 1.02 5.66 0 6 C-0.66 5.67 -1.32 5.34 -2 5 C-2.33 5.99 -2.66 6.98 -3 8 C-3.33 7.34 -3.66 6.68 -4 6 C-2.68 4.02 -1.36 2.04 0 0 Z " fill="#171918" transform="translate(708,438)"/>
<path d="M0 0 C0.66 0.99 1.32 1.98 2 3 C0.35 4.32 -1.3 5.64 -3 7 C-3.66 5.68 -4.32 4.36 -5 3 C-3.35 2.01 -1.7 1.02 0 0 Z " fill="#E7E7E7" transform="translate(702,393)"/>
<path d="M0 0 C0.928125 0.20625 1.85625 0.4125 2.8125 0.625 C1.8225 2.11 1.8225 2.11 0.8125 3.625 C-1.4975 2.965 -3.8075 2.305 -6.1875 1.625 C-3.1875 -0.375 -3.1875 -0.375 0 0 Z M-6.1875 2.625 C-5.5275 2.955 -4.8675 3.285 -4.1875 3.625 C-5.1775 3.625 -6.1675 3.625 -7.1875 3.625 C-6.8575 3.295 -6.5275 2.965 -6.1875 2.625 Z " fill="#1F1F1F" transform="translate(814.1875,377.375)"/>
<path d="M0 0 C0 1.65 0 3.3 0 5 C-0.99 5 -1.98 5 -3 5 C-3.66 4.01 -4.32 3.02 -5 2 C-7.56282742 1.27034634 -7.56282742 1.27034634 -10 1 C-6.42181037 -1.33958553 -4.07775191 -0.9267618 0 0 Z M-5 5 C-3 6 -3 6 -3 6 Z " fill="#141616" transform="translate(784,353)"/>
<path d="M0 0 C2.0625 0.4375 2.0625 0.4375 4 1 C3.25 5.75 3.25 5.75 1 8 C0.34 5.69 -0.32 3.38 -1 1 C-0.67 0.67 -0.34 0.34 0 0 Z " fill="#101010" transform="translate(818,513)"/>
<path d="M0 0 C0.66 0.99 1.32 1.98 2 3 C-0.97 4.32 -3.94 5.64 -7 7 C-7.66 6.34 -8.32 5.68 -9 5 C-6.03 3.35 -3.06 1.7 0 0 Z " fill="#1D1D1D" transform="translate(741,508)"/>
<path d="M0 0 C-1.90598443 2.43542455 -3.00596275 3.00158196 -6.0625 3.8125 C-7.5165625 3.9053125 -7.5165625 3.9053125 -9 4 C-9.66 3.34 -10.32 2.68 -11 2 C-9.54494642 1.47007308 -8.08581873 0.9513211 -6.625 0.4375 C-5.81289063 0.14746094 -5.00078125 -0.14257812 -4.1640625 -0.44140625 C-2 -1 -2 -1 0 0 Z " fill="#303030" transform="translate(1011,500)"/>
<path d="M0 0 C0.99 0 1.98 0 3 0 C3 0.66 3 1.32 3 2 C2.34 2 1.68 2 1 2 C0.938125 2.61875 0.87625 3.2375 0.8125 3.875 C0 6 0 6 -2.5625 7.25 C-3.366875 7.4975 -4.17125 7.745 -5 8 C-4.24266726 6.6589523 -3.46867264 5.32730219 -2.6875 4 C-2.25824219 3.2575 -1.82898438 2.515 -1.38671875 1.75 C-0.70029297 0.88375 -0.70029297 0.88375 0 0 Z " fill="#1B1B1B" transform="translate(434,458)"/>
<path d="M0 0 C0 0.66 0 1.32 0 2 C-2.97 2.66 -5.94 3.32 -9 4 C-8.67 3.01 -8.34 2.02 -8 1 C-5.29120665 -0.35439668 -2.99066732 -0.06501451 0 0 Z " fill="#212224" transform="translate(622,443)"/>
<path d="M0 0 C0.99 0.33 1.98 0.66 3 1 C3 1.66 3 2.32 3 3 C3.99 3.33 4.98 3.66 6 4 C6 4.66 6 5.32 6 6 C6.66 6 7.32 6 8 6 C8 6.66 8 7.32 8 8 C4.60390956 6.80677904 2.37566073 5.71504084 0 3 C-0.66 2.34 -1.32 1.68 -2 1 C-1.34 0.67 -0.68 0.34 0 0 Z " fill="#1B1C1E" transform="translate(1010,388)"/>
<path d="M0 0 C3.02419525 0.58803797 6.01758453 1.22678118 9 2 C9 2.66 9 3.32 9 4 C8.01 4 7.02 4 6 4 C5.67 4.66 5.34 5.32 5 6 C3.35 4.02 1.7 2.04 0 0 Z " fill="#191919" transform="translate(454,611)"/>
<path d="M0 0 C2.0625 0.4375 2.0625 0.4375 4 1 C3.6875 2.9375 3.6875 2.9375 3 5 C2.01 5.33 1.02 5.66 0 6 C-0.38218767 4.34385343 -0.71395102 2.67542976 -1 1 C-0.67 0.67 -0.34 0.34 0 0 Z " fill="#141414" transform="translate(731,498)"/>
<path d="M0 0 C0.99 0.33 1.98 0.66 3 1 C3.33 1.99 3.66 2.98 4 4 C3.01 4.33 2.02 4.66 1 5 C0.26676204 7.01508358 0.26676204 7.01508358 0 9 C-0.87890625 2.84765625 -0.87890625 2.84765625 -1 1 C-0.67 0.67 -0.34 0.34 0 0 Z " fill="#070707" transform="translate(760,498)"/>
<path d="M0 0 C0.33 0.66 0.66 1.32 1 2 C1.66 2 2.32 2 3 2 C3.33 4.31 3.66 6.62 4 9 C3.01 8.67 2.02 8.34 1 8 C-0.1875 4.4375 -0.1875 4.4375 -1 1 C-0.67 0.67 -0.34 0.34 0 0 Z " fill="#141414" transform="translate(794,451)"/>
<path d="M0 0 C0 0.99 0 1.98 0 3 C-1.65 3.66 -3.3 4.32 -5 5 C-5 4.34 -5 3.68 -5 3 C-5.66 3 -6.32 3 -7 3 C-7 2.34 -7 1.68 -7 1 C-4 0 -4 0 0 0 Z " fill="#141517" transform="translate(612,386)"/>
<path d="M0 0 C0.66 0.33 1.32 0.66 2 1 C2 1.66 2 2.32 2 3 C3.65 3.33 5.3 3.66 7 4 C5.68 4.99 4.36 5.98 3 7 C1.68 5.02 0.36 3.04 -1 1 C-0.67 0.67 -0.34 0.34 0 0 Z " fill="#121212" transform="translate(436,590)"/>
<path d="M0 0 C2.31 0.33 4.62 0.66 7 1 C4.60490662 3.89932357 2.68754757 4.50168276 -1 5 C-1 2 -1 2 0 0 Z " fill="#060606" transform="translate(1018,538)"/>
<path d="M0 0 C0 3.67718093 -0.82184858 5.07076189 -3 8 C-5.6875 9.3125 -5.6875 9.3125 -8 10 C-7.04367001 8.70684939 -6.08486149 7.41553147 -5.125 6.125 C-4.59132813 5.40570313 -4.05765625 4.68640625 -3.5078125 3.9453125 C-2 2 -2 2 0 0 Z " fill="#2C2C2C" transform="translate(489,458)"/>
<path d="M0 0 C0.66 0.99 1.32 1.98 2 3 C2.66 3.33 3.32 3.66 4 4 C2.69593116 6.01920337 1.36176581 8.01924973 0 10 C-0.33 10 -0.66 10 -1 10 C-0.67 6.7 -0.34 3.4 0 0 Z " fill="#C4C6C5" transform="translate(704,435)"/>
<path d="M0 0 C0.66 0.33 1.32 0.66 2 1 C-0.46153846 5.8 -0.46153846 5.8 -3.1875 6.8125 C-3.785625 6.874375 -4.38375 6.93625 -5 7 C-5.33 6.34 -5.66 5.68 -6 5 C-4.02 3.35 -2.04 1.7 0 0 Z " fill="#1A1A1C" transform="translate(728,418)"/>
<path d="M0 0 C1.98 0.66 3.96 1.32 6 2 C4.35 3.65 2.7 5.3 1 7 C0.67 6.01 0.34 5.02 0 4 C0.66 4 1.32 4 2 4 C2 3.34 2 2.68 2 2 C1.34 2 0.68 2 0 2 C0 1.34 0 0.68 0 0 Z " fill="#18191B" transform="translate(728,387)"/>
<path d="M0 0 C0 0.66 0 1.32 0 2 C-2.5 3.625 -2.5 3.625 -5 5 C-5.33 4.01 -5.66 3.02 -6 2 C-6.66 1.67 -7.32 1.34 -8 1 C-5.07175348 0.02391783 -3.04386724 -0.08226668 0 0 Z " fill="#272727" transform="translate(707,375)"/>
<path d="M0 0 C0.33 0.66 0.66 1.32 1 2 C-5.625 3.25 -5.625 3.25 -9 1 C-5.92677456 0.08941469 -3.19902639 -0.08886184 0 0 Z " fill="#232323" transform="translate(622,544)"/>
<path d="M0 0 C0.66 1.32 1.32 2.64 2 4 C0.35 5.32 -1.3 6.64 -3 8 C-3.66 7.67 -4.32 7.34 -5 7 C-3.35 4.69 -1.7 2.38 0 0 Z " fill="#E6E6E6" transform="translate(778,487)"/>
<path d="M0 0 C0.33 0.99 0.66 1.98 1 3 C-1.475 4.485 -1.475 4.485 -4 6 C-4.99 5.34 -5.98 4.68 -7 4 C-4.69 2.68 -2.38 1.36 0 0 Z " fill="#171718" transform="translate(761,396)"/>
<path d="M0 0 C-0.33 1.32 -0.66 2.64 -1 4 C-4 4 -4 4 -5.6875 2.5 C-6.120625 2.005 -6.55375 1.51 -7 1 C-4 0 -4 0 0 0 Z " fill="#1A1A1C" transform="translate(1030,349)"/>
<path d="M0 0 C0.66 0 1.32 0 2 0 C2 0.66 2 1.32 2 2 C3.32 2.33 4.64 2.66 6 3 C3.29120665 4.35439668 0.99066732 4.06501451 -2 4 C-1.34 2.68 -0.68 1.36 0 0 Z " fill="#585858" transform="translate(676,594)"/>
<path d="M0 0 C-3.00617269 3.00617269 -5.82381598 2.59585316 -10 3 C-4.37755102 -1.45918367 -4.37755102 -1.45918367 0 0 Z " fill="#1F1F1F" transform="translate(493,417)"/>
<path d="M0 0 C0.66 0.99 1.32 1.98 2 3 C1.34 4.32 0.68 5.64 0 7 C-1.32 6.34 -2.64 5.68 -4 5 C-2.68 3.35 -1.36 1.7 0 0 Z " fill="#1C1C1C" transform="translate(694,406)"/>
<path d="M0 0 C-0.66 1.65 -1.32 3.3 -2 5 C-4.97 4.505 -4.97 4.505 -8 4 C-2.7826087 0 -2.7826087 0 0 0 Z " fill="#1D1E1F" transform="translate(778,388)"/>
<path d="M0 0 C-1.65 1.32 -3.3 2.64 -5 4 C-5.66 2.68 -6.32 1.36 -7 0 C-3.86650268 -1.04449911 -3.01031744 -0.93423645 0 0 Z " fill="#171717" transform="translate(615,578)"/>
<path d="M0 0 C0.66 0.33 1.32 0.66 2 1 C1 4 1 4 -1.0625 5.1875 C-1.701875 5.455625 -2.34125 5.72375 -3 6 C-3.66 5.34 -4.32 4.68 -5 4 C-3.35 2.68 -1.7 1.36 0 0 Z " fill="#E7E7E7" transform="translate(805,567)"/>
<path d="M0 0 C0.99 0.33 1.98 0.66 3 1 C3 2.32 3 3.64 3 5 C0.03 4.505 0.03 4.505 -3 4 C-2.67 3.01 -2.34 2.02 -2 1 C-1.34 0.67 -0.68 0.34 0 0 Z " fill="#050706" transform="translate(716,505)"/>
<path d="M0 0 C0.99 0.33 1.98 0.66 3 1 C3 1.99 3 2.98 3 4 C1.35 4.33 -0.3 4.66 -2 5 C-2 2 -2 2 0 0 Z " fill="#050505" transform="translate(967,481)"/>
<path d="M0 0 C3.375 -0.125 3.375 -0.125 7 0 C7.66 0.66 8.32 1.32 9 2 C6.36 2.33 3.72 2.66 1 3 C0.67 2.01 0.34 1.02 0 0 Z " fill="#191919" transform="translate(649,451)"/>
<path d="M0 0 C0.99 0.66 1.98 1.32 3 2 C1.35 3.32 -0.3 4.64 -2 6 C-2 5.34 -2 4.68 -2 4 C-2.66 3.67 -3.32 3.34 -4 3 C-2.68 2.01 -1.36 1.02 0 0 Z " fill="#181818" transform="translate(473,441)"/>
<path d="M0 0 C4.42857143 5.14285714 4.42857143 5.14285714 5 9 C3.0625 8.4375 3.0625 8.4375 1 7 C0.25 3.375 0.25 3.375 0 0 Z " fill="#191919" transform="translate(835,431)"/>
<path d="M0 0 C2.61047801 1.305239 2.68066423 2.35826574 3.625 5.0625 C3.88539062 5.79597656 4.14578125 6.52945312 4.4140625 7.28515625 C4.60742188 7.85105469 4.80078125 8.41695313 5 9 C4.01 9 3.02 9 2 9 C1.34 6.03 0.68 3.06 0 0 Z " fill="#CDCED0" transform="translate(1054,399)"/>
<path d="M0 0 C0 0.99 0 1.98 0 3 C-1.65 3.33 -3.3 3.66 -5 4 C-5 3.34 -5 2.68 -5 2 C-5.66 1.67 -6.32 1.34 -7 1 C-4.50935112 0.31292445 -2.62113708 0 0 0 Z " fill="#121414" transform="translate(909,355)"/>
<path d="M0 0 C3.73487777 0.4979837 5.81237635 0.87491756 9 3 C5.06329512 4.31223496 2.87511856 3.24296256 -1 2 C-0.67 1.34 -0.34 0.68 0 0 Z " fill="#131416" transform="translate(1016,354)"/>
<path d="M0 0 C-0.8125 1.9375 -0.8125 1.9375 -2 4 C-2.99 4.33 -3.98 4.66 -5 5 C-5.33 4.01 -5.66 3.02 -6 2 C-2.25 0 -2.25 0 0 0 Z " fill="#232323" transform="translate(810,562)"/>
<path d="M0 0 C0.66 0.99 1.32 1.98 2 3 C0.02 5.97 0.02 5.97 -2 9 C-2.66 8.67 -3.32 8.34 -4 8 C-2.68 5.36 -1.36 2.72 0 0 Z " fill="#242424" transform="translate(849,531)"/>
<path d="M0 0 C0.99 0 1.98 0 3 0 C3.66 1.98 4.32 3.96 5 6 C4.01 6 3.02 6 2 6 C1.34 5.34 0.68 4.68 0 4 C0 2.68 0 1.36 0 0 Z " fill="#121212" transform="translate(850,529)"/>
<path d="M0 0 C0.598125 0.20625 1.19625 0.4125 1.8125 0.625 C-0.1675 1.945 -2.1475 3.265 -4.1875 4.625 C-4.5175 3.635 -4.8475 2.645 -5.1875 1.625 C-2.1875 -0.375 -2.1875 -0.375 0 0 Z " fill="#E8E8E8" transform="translate(1040.1875,481.375)"/>
<path d="M0 0 C1.125 1.625 1.125 1.625 2 4 C1.125 7.25 1.125 7.25 0 10 C-1.125 8.375 -1.125 8.375 -2 6 C-1.125 2.75 -1.125 2.75 0 0 Z " fill="#191A1C" transform="translate(1060,456)"/>
<path d="M0 0 C0 0.66 0 1.32 0 2 C0.66 2.33 1.32 2.66 2 3 C0.02 3.33 -1.96 3.66 -4 4 C-4.33 3.01 -4.66 2.02 -5 1 C-3 0 -3 0 0 0 Z " fill="#131514" transform="translate(616,459)"/>
<path d="M0 0 C-3.63423209 2.32590854 -6.77088331 2.16265833 -11 2 C-6.98764085 -0.6749061 -4.6342454 -1.48957888 0 0 Z " fill="#373737" transform="translate(622,414)"/>
<path d="M0 0 C-0.99 1.485 -0.99 1.485 -2 3 C-1.34 3.33 -0.68 3.66 0 4 C-2.97 3.505 -2.97 3.505 -6 3 C-6 2.01 -6 1.02 -6 0 C-3 -1 -3 -1 0 0 Z " fill="#1F1F1F" transform="translate(639,409)"/>
<path d="M0 0 C0.99 0.33 1.98 0.66 3 1 C0.03 3.475 0.03 3.475 -3 6 C-3.33 5.34 -3.66 4.68 -4 4 C-2.68 2.68 -1.36 1.36 0 0 Z " fill="#2A2A2A" transform="translate(692,386)"/>
<path d="M0 0 C-1.32 1.65 -2.64 3.3 -4 5 C-4 4.34 -4 3.68 -4 3 C-4.66 2.67 -5.32 2.34 -6 2 C-6.33 1.34 -6.66 0.68 -7 0 C-3.86650268 -1.04449911 -3.01031744 -0.93423645 0 0 Z " fill="#2F3032" transform="translate(921,353)"/>
<path d="M0 0 C2.88437779 1.29299694 4.87219421 2.65941363 7 5 C5.68 5.33 4.36 5.66 3 6 C0 2.25 0 2.25 0 0 Z " fill="#191A1C" transform="translate(1050,342)"/>
</svg>
