<?xml version="1.0" encoding="UTF-8"?>
<svg version="1.1" xmlns="http://www.w3.org/2000/svg" width="1024" height="1024">
<path d="M0 0 C337.92 0 675.84 0 1024 0 C1024 337.92 1024 675.84 1024 1024 C686.08 1024 348.16 1024 0 1024 C0 686.08 0 348.16 0 0 Z " fill="#FEFEFE" transform="translate(0,0)"/>
<path d="M0 0 C109.68121859 0 109.68121859 0 132.421875 19.39453125 C143.69338972 30.78559234 147.74806515 45.91910554 148.25 61.5 C148.01565163 78.39438683 143.25285644 92.37041801 131.390625 104.77734375 C124.51760616 111.1674544 116.70618825 117 107 117 C107.52001587 117.83640015 107.52001587 117.83640015 108.05053711 118.68969727 C114.05896115 128.35939606 120.05590334 138.03288888 125.8918457 147.80786133 C131.14700335 156.60609455 136.54337272 165.31169161 142.05859375 173.94921875 C144.53043236 177.83353657 146.98806429 181.72652333 149.4375 185.625 C149.88722168 186.33696533 150.33694336 187.04893066 150.80029297 187.7824707 C154 192.88499148 154 192.88499148 154 194 C118.64433325 197.46981013 118.64433325 197.46981013 109.95947266 192.13085938 C105.42394861 187.16757018 103.21148493 181.19019735 101.06591797 174.89746094 C99.49595376 170.62986238 97.16897068 167.03612941 94.6875 163.25 C93.8017438 161.81641672 92.92039152 160.38010509 92.04296875 158.94140625 C91.02882549 157.29416022 90.01448186 155.64703753 89 154 C87.62104001 151.75914763 86.24213174 149.51826349 84.86328125 147.27734375 C82.7075416 143.77384826 80.55143505 140.27058176 78.39331055 136.76855469 C77.73758057 135.70411133 77.08185059 134.63966797 76.40625 133.54296875 C75.82166016 132.59446045 75.23707031 131.64595215 74.63476562 130.66870117 C73.07458245 128.12175341 71.536708 125.56118 70 123 C59.11 122.67 48.22 122.34 37 122 C37 145.76 37 169.52 37 194 C24.79 194 12.58 194 0 194 C0 129.98 0 65.96 0 0 Z " fill="#E181DC" transform="translate(179,388)"/>
<path d="M0 0 C11.88 0 23.76 0 36 0 C36.01458252 2.89128662 36.02916504 5.78257324 36.04418945 8.76147461 C36.09461089 18.33288274 36.1612194 27.90412948 36.23571491 37.47537899 C36.28037084 43.27629637 36.31963765 49.07714429 36.34643555 54.87817383 C36.37251595 60.48041071 36.41295223 66.08237961 36.46318626 71.68445015 C36.47982289 73.81774109 36.49135706 75.95107834 36.49761391 78.08442497 C36.50728975 81.08122477 36.53539107 84.07734391 36.56762695 87.07397461 C36.56619186 87.94863876 36.56475677 88.82330292 36.5632782 89.72447205 C36.68771133 97.94725355 38.63056717 105.58651078 44 112 C52.07971936 118.01640201 62.32902385 117.9547779 72 117 C75.88133654 116.04549882 79.40023634 114.72436231 83 113 C83.73734375 112.66097656 84.4746875 112.32195312 85.234375 111.97265625 C87.59929174 110.6698592 87.93057159 109.47305319 89 107 C89.66 105.906875 90.32 104.81375 91 103.6875 C95.95646704 95.0090763 96.1307518 85.02490848 96.20532227 75.26733398 C96.21522186 74.44671982 96.22512146 73.62610565 96.23532104 72.78062439 C96.26658806 70.10247557 96.29155385 67.42430909 96.31640625 64.74609375 C96.33700594 62.87565178 96.35800314 61.00521414 96.37937927 59.13478088 C96.43428883 54.23749327 96.48383392 49.34016583 96.53222656 44.44281006 C96.58267035 39.43514508 96.6382364 34.42753715 96.69335938 29.41992188 C96.80055974 19.61332841 96.90161362 9.80668586 97 0 C108.88 0 120.76 0 133 0 C133.33 48.18 133.66 96.36 134 146 C122.78 146 111.56 146 100 146 C99.34 139.4 98.68 132.8 98 126 C96.22625 128.02125 94.4525 130.0425 92.625 132.125 C83.46553719 142.21925469 72.64405225 148.2270004 58.85595703 149.14233398 C41.98361897 149.82832911 27.42355346 147.54121557 14.3125 136 C1.82087045 122.5633772 -0.18706865 102.76673482 -0.11352539 85.25756836 C-0.11367142 84.32966492 -0.11381744 83.40176147 -0.1139679 82.44573975 C-0.11327701 79.41041643 -0.10552358 76.37515621 -0.09765625 73.33984375 C-0.09578914 71.22278375 -0.09436662 69.10572331 -0.09336853 66.98866272 C-0.08956644 61.44030547 -0.07975605 55.89197476 -0.06866455 50.34362793 C-0.05840062 44.67244831 -0.05386027 39.00126437 -0.04882812 33.33007812 C-0.03813155 22.2200386 -0.02055363 11.11002567 0 0 Z " fill="#9194FC" transform="translate(581,436)"/>
<path d="M0 0 C8.37657731 7.4736295 12.88766223 15.93516644 14 27 C-7.60739583 31.5691466 -7.60739583 31.5691466 -17 32 C-17.20753906 31.41992188 -17.41507813 30.83984375 -17.62890625 30.2421875 C-20.2686378 23.54897695 -23.48895029 19.18691573 -30.0546875 16.00390625 C-39.48248403 12.28615252 -49.3219158 11.75574579 -59 15 C-64.07059011 17.81699451 -67.15644638 20.46933914 -69 26 C-69.27036647 30.77647422 -69.03305205 34.62893809 -67 39 C-65.1597906 40.10537915 -65.1597906 40.10537915 -63 41 C-62.34644531 41.31839844 -61.69289063 41.63679688 -61.01953125 41.96484375 C-55.86610732 44.23599872 -50.79259927 45.53055273 -45.25 46.4375 C-0.95341301 53.70334289 -0.95341301 53.70334289 10.80859375 68.234375 C17.6025276 77.94464976 17.99743335 87.50707425 17 99 C14.68627777 111.7386184 8.27841095 120.36641899 -2 128 C-20.71917173 139.52357522 -45.2295529 142.01291355 -66.625 137.875 C-80.28858425 134.3301237 -93.55799302 128.84531075 -101.4296875 116.7265625 C-104.89384417 110.71168351 -107.71253861 104.83580693 -109 98 C-105.0009789 97.18263251 -101.00062238 96.37199048 -97 95.5625 C-95.87464844 95.33240234 -94.74929688 95.10230469 -93.58984375 94.86523438 C-87.73518856 93.68403201 -81.93983965 92.63329173 -76 92 C-75.18501438 93.6029053 -74.37310073 95.20737278 -73.5625 96.8125 C-73.11003906 97.70582031 -72.65757812 98.59914063 -72.19140625 99.51953125 C-71 102 -71 102 -70 105 C-68.21664663 106.1374193 -68.21664663 106.1374193 -66 107 C-64.7934375 107.51240234 -64.7934375 107.51240234 -63.5625 108.03515625 C-62.2940625 108.54369141 -62.2940625 108.54369141 -61 109.0625 C-59.7315625 109.57490234 -59.7315625 109.57490234 -58.4375 110.09765625 C-49.40126551 113.44280075 -36.78690263 113.63689006 -27.79296875 109.9140625 C-22.88636535 107.41265684 -19.13922315 105.22921215 -17 100 C-16.41924217 96.03148815 -16.59086512 92.94747025 -18.1875 89.25 C-22.08947087 84.40617409 -25.86368707 82.42339757 -31.875 81 C-32.55554443 80.83685303 -33.23608887 80.67370605 -33.93725586 80.50561523 C-40.09937938 79.0831673 -46.32418603 78.08493151 -52.5625 77.0625 C-61.7909626 75.53485864 -70.30703706 73.49222862 -79 70 C-79.92941406 69.63261719 -80.85882813 69.26523437 -81.81640625 68.88671875 C-91.77873686 64.46070622 -98.02205273 57.38374647 -102.125 47.3828125 C-105.77889131 37.43248348 -105.37207658 24.9252988 -101.13671875 15.19140625 C-99.6189189 12.26533849 -98.00861936 9.61729189 -96 7 C-95.360625 6.05125 -94.72125 5.1025 -94.0625 4.125 C-72.65371758 -20.83002245 -24.47405918 -17.51608762 0 0 Z " fill="#AF79FA" transform="translate(534,446)"/>
<path d="M0 0 C7.14160146 6.11942568 12.49383038 13.4574444 14.9375 22.625 C14.96224214 24.291483 14.96534308 25.95856592 14.9375 27.625 C10.50081259 28.46269934 6.06302409 29.2944138 1.625 30.125 C0.36236328 30.36347656 -0.90027344 30.60195313 -2.20117188 30.84765625 C-4.01391602 31.18603516 -4.01391602 31.18603516 -5.86328125 31.53125 C-6.97872314 31.74072266 -8.09416504 31.95019531 -9.2434082 32.16601562 C-12.0625 32.625 -12.0625 32.625 -15.0625 32.625 C-15.4646875 31.64660156 -15.4646875 31.64660156 -15.875 30.6484375 C-18.76649314 24.19964687 -21.6453053 19.83359735 -28.0625 16.625 C-38.65159506 12.83081471 -48.61032927 12.17084914 -59.0625 16.625 C-62.24320642 18.53342385 -64.48597793 20.72261763 -66.5 23.875 C-67.64714194 29.48324946 -67.01754052 33.99218878 -64.125 38.9375 C-57.73190299 45.55155659 -46.98205958 46.63740688 -38.375 48.125 C-36.06315778 48.55120736 -33.75195094 48.98087618 -31.44140625 49.4140625 C-29.78842529 49.7239209 -29.78842529 49.7239209 -28.10205078 50.04003906 C-13.49175104 52.85178831 2.62501867 57.07339473 11.9375 69.625 C18.15658016 79.84429252 19.5671457 90.30915081 17.25390625 102.11328125 C15.26376283 109.14071715 12.53166354 114.94656915 7.9375 120.625 C7.45925781 121.23859375 6.98101563 121.8521875 6.48828125 122.484375 C-3.24753323 133.5689799 -20.91852751 138.39759086 -35.0625 139.625 C-55.29599724 140.85515563 -75.37315821 138.88906795 -91.4375 125.375 C-98.63058648 118.49315284 -102.98661348 110.03359408 -106.0625 100.625 C-106.0625 99.965 -106.0625 99.305 -106.0625 98.625 C-95.03192116 96.09666903 -84.40806075 93.99516511 -73.0625 93.625 C-72.83175781 94.14449219 -72.60101562 94.66398438 -72.36328125 95.19921875 C-68.28534714 103.91922805 -62.83171425 107.91768991 -54.0625 111.625 C-46.13850868 114.30517354 -33.83372578 113.73936647 -26.0625 110.625 C-19.17809666 106.96194822 -19.17809666 106.96194822 -15.0625 100.625 C-14.60024099 95.84832358 -14.56276221 93.60596677 -16.75 89.3125 C-24.42825483 80.38912276 -38.09689831 79.34872097 -49.0625 77.625 C-64.67695442 75.15079432 -82.23003198 71.74172699 -92.6484375 58.62890625 C-98.28994799 50.68951222 -100.62617006 42.96012726 -100.5 33.25 C-100.48755249 32.00500732 -100.48755249 32.00500732 -100.47485352 30.73486328 C-100.17711895 19.88291528 -96.74155703 11.40397041 -89.0625 3.625 C-65.26133951 -17.13531822 -25.53511645 -18.63021251 0 0 Z " fill="#70A8FC" transform="translate(845.0625,445.375)"/>
<path d="M0 0 C11.55 0 23.1 0 35 0 C35 47.85 35 95.7 35 145 C23.45 145 11.9 145 0 145 C0 97.15 0 49.3 0 0 Z " fill="#BE77F5" transform="translate(363,437)"/>
<path d="M0 0 C7.033125 -0.04125 14.06625 -0.0825 21.3125 -0.125 C23.50946533 -0.14320801 25.70643066 -0.16141602 27.9699707 -0.18017578 C29.74690508 -0.18602694 31.52384218 -0.19112101 33.30078125 -0.1953125 C34.64142639 -0.2106604 34.64142639 -0.2106604 36.00915527 -0.22631836 C46.99510251 -0.22929518 57.1670665 1.15845194 65.75 8.49609375 C71.15964663 14.13565037 74.1569911 21.83118175 74.375 29.625 C73.85952606 39.24718029 71.37517955 47.10452451 64.1875 53.75 C55.05831337 61.26518679 44.0477326 62.32862862 32.6171875 62.1953125 C31.78195557 62.19329834 30.94672363 62.19128418 30.08618164 62.18920898 C27.01573055 62.17887641 23.94535877 62.15095575 20.875 62.125 C13.98625 62.08375 7.0975 62.0425 0 62 C0 41.54 0 21.08 0 0 Z " fill="#FEFDFE" transform="translate(216,419)"/>
<path d="M0 0 C4.62956355 3.98404706 7.87026113 8.96024219 9 15 C9.31069316 23.23336887 6.91544952 28.43667281 1.75 34.75 C-3.47219463 39.0227047 -9.03645224 40.62188063 -15.76953125 40.34375 C-22.19382723 39.35366586 -26.79449127 35.96097571 -30.74609375 30.921875 C-34.20162625 25.62554481 -35.77864169 20.34036803 -35 14 C-32.68431575 5.82956687 -27.77903757 0.81840677 -20.5625 -3.4375 C-13.00352753 -5.09678664 -6.57308228 -4.19637457 0 0 Z " fill="#D777EC" transform="translate(394,376)"/>
<path d="M0 0 C2.64 0.33 5.28 0.66 8 1 C9.125 6.75 9.125 6.75 8 9 C9.65 9 11.3 9 13 9 C12 11 12 11 11 12 C12.65 12.33 14.3 12.66 16 13 C16.70400221 17.06756833 17.02920508 20.03020896 16 24 C16.66 24.66 17.32 25.32 18 26 C21.59679066 25.67673447 21.59679066 25.67673447 25 25 C24.98839844 25.83144531 24.97679687 26.66289063 24.96484375 27.51953125 C24.95582031 28.60621094 24.94679688 29.69289063 24.9375 30.8125 C24.92589844 31.89144531 24.91429687 32.97039063 24.90234375 34.08203125 C24.86375234 37.06512169 24.86375234 37.06512169 26 40 C26.804375 40.2475 27.60875 40.495 28.4375 40.75 C31 42 31 42 32.3125 45.625 C32.539375 46.73875 32.76625 47.8525 33 49 C34.98 49 36.96 49 39 49 C38.95875 49.928125 38.9175 50.85625 38.875 51.8125 C38.72863661 55.15809719 38.72863661 55.15809719 41 58 C41 58.99 41 59.98 41 61 C41.84256348 60.74875366 41.84256348 60.74875366 42.70214844 60.49243164 C45.18290882 59.96080248 47.23604506 59.97515645 49.765625 60.12109375 C50.65507812 60.16943359 51.54453125 60.21777344 52.4609375 60.26757812 C53.38132812 60.32365234 54.30171875 60.37972656 55.25 60.4375 C56.18585938 60.48970703 57.12171875 60.54191406 58.0859375 60.59570312 C60.39098887 60.72506825 62.69557289 60.86002034 65 61 C65 60.34 65 59.68 65 59 C66.485 59.495 66.485 59.495 68 60 C69.66362417 60.34820041 71.32995171 60.68404492 73 61 C72.505 59.02 72.505 59.02 72 57 C71.401875 56.87625 70.80375 56.7525 70.1875 56.625 C68 56 68 56 65 54 C65.4021875 52.4840625 65.4021875 52.4840625 65.8125 50.9375 C66.03246519 46.31823111 65.14688984 44.98291429 62.421875 41.48046875 C60.86840117 39.7563624 60.86840117 39.7563624 58 38 C58.66 38 59.32 38 60 38 C59.505 36.02 59.505 36.02 59 34 C58.030625 33.855625 57.06125 33.71125 56.0625 33.5625 C53 33 53 33 52 32 C51.01 32.495 51.01 32.495 50 33 C49.80522261 31.37585622 49.61940542 29.75063577 49.4375 28.125 C49.28087891 26.76761719 49.28087891 26.76761719 49.12109375 25.3828125 C49 23 49 23 50 21 C49.60061233 18.90178785 49.60061233 18.90178785 49 17 C52.22749191 19.77809431 54.1356397 23.36796173 56.25 27 C57.0574588 28.36655666 57.86606041 29.73243869 58.67578125 31.09765625 C59.0723291 31.76684082 59.46887695 32.43602539 59.87744141 33.12548828 C61.87940371 36.46847797 63.99012675 39.74006199 66.09375 43.01953125 C68.56046815 46.87630574 71.00259772 50.74808068 73.4375 54.625 C73.88730225 55.33712646 74.33710449 56.04925293 74.80053711 56.78295898 C78 61.88483878 78 61.88483878 78 63 C42.64433325 66.46981013 42.64433325 66.46981013 33.95947266 61.13085938 C29.42807182 56.17208228 27.22144347 50.2064824 25.07910156 43.91943359 C23.45968843 39.53822495 21.04482598 35.83000471 18.5 31.9375 C17.61463996 30.50106356 16.73317491 29.06221968 15.85546875 27.62109375 C13.7271076 24.1663956 11.57897761 20.72442465 9.42578125 17.28515625 C8.82507813 16.32295166 8.224375 15.36074707 7.60546875 14.36938477 C6.42851172 12.48583683 5.24764421 10.60472563 4.0625 8.72631836 C3.53269531 7.8781958 3.00289063 7.03007324 2.45703125 6.15625 C1.98241455 5.40150391 1.50779785 4.64675781 1.01879883 3.86914062 C0 2 0 2 0 0 Z M30 46 C31 48 31 48 31 48 Z " fill="#9979D9" transform="translate(255,519)"/>
<path d="M0 0 C19.1503125 -0.0928125 19.1503125 -0.0928125 38.6875 -0.1875 C42.67287842 -0.21481201 46.65825684 -0.24212402 50.7644043 -0.27026367 C102.51334796 -0.47729071 102.51334796 -0.47729071 124 13 C126 15 126 15 126 19 C127.65 19.66 129.3 20.32 131 21 C131 21.66 131 22.32 131 23 C131.66 23 132.32 23 133 23 C133 23.99 133 24.98 133 26 C129.22222222 24.48888889 129.22222222 24.48888889 128.0625 21.9375 C127.711875 21.298125 127.36125 20.65875 127 20 C124.44480079 19.18828772 124.44480079 19.18828772 122 19 C121.01 16.03 121.01 16.03 120 13 C118.96875 12.87625 117.9375 12.7525 116.875 12.625 C113 12 113 12 109.9375 10.875 C106.55465565 9.86734423 104.39830059 10.19088081 101 11 C101 10.01 101 9.02 101 8 C100.05125 8.495 99.1025 8.99 98.125 9.5 C95 11 95 11 93 11 C93 10.01 93 9.02 93 8 C93.99 7.67 94.98 7.34 96 7 C95.01 6.67 94.02 6.34 93 6 C93 5.01 93 4.02 93 3 C81.8733505 2.97682857 70.74670675 2.95906038 59.62003803 2.94818783 C54.45347046 2.94296953 49.2869194 2.93589094 44.12036133 2.92456055 C39.13425217 2.91369433 34.14815889 2.90771522 29.1620388 2.90512276 C27.25985654 2.90327526 25.35767515 2.89966758 23.45549965 2.89426994 C20.7910334 2.88701 18.12663275 2.88601116 15.4621582 2.88647461 C14.67597107 2.88287933 13.88978394 2.87928406 13.07977295 2.87557983 C9.16736479 2.88294235 5.87644224 3.22471155 2 4 C1.67 38.32 1.34 72.64 1 108 C0.67 108 0.34 108 0 108 C0 72.36 0 36.72 0 0 Z " fill="#E378A8" transform="translate(179,388)"/>
<path d="M0 0 C0.33 0 0.66 0 1 0 C1 13.2 1 26.4 1 40 C1.66 40 2.32 40 3 40 C3.06058594 40.69867187 3.12117187 41.39734375 3.18359375 42.1171875 C3.26738281 43.02726563 3.35117188 43.93734375 3.4375 44.875 C3.55931641 46.23238281 3.55931641 46.23238281 3.68359375 47.6171875 C3.86989285 50.01110861 3.86989285 50.01110861 5 52 C5 52.99 5 53.98 5 55 C5.26103516 56.77890625 5.26103516 56.77890625 5.52734375 58.59375 C6.13591748 63.28202166 5.89566818 67.79735024 5.5625 72.5 C5.51029297 73.32242188 5.45808594 74.14484375 5.40429688 74.9921875 C5.27619538 76.99522899 5.13904939 78.99768871 5 81 C6.98 81.33 8.96 81.66 11 82 C11 82.33 11 82.66 11 83 C16.61 83.33 22.22 83.66 28 84 C28.66 82.68 29.32 81.36 30 80 C30.99 80 31.98 80 33 80 C33.33 80.99 33.66 81.98 34 83 C34.33 83 34.66 83 35 83 C35.33 59.9 35.66 36.8 36 13 C36.33 13 36.66 13 37 13 C37 37.09 37 61.18 37 86 C24.79 86 12.58 86 0 86 C0 57.62 0 29.24 0 0 Z " fill="#B37FD8" transform="translate(179,496)"/>
<path d="M0 0 C11.55 0 23.1 0 35 0 C35.33 47.85 35.66 95.7 36 145 C24.78 145 13.56 145 2 145 C2 141.37 2 137.74 2 134 C2.33 134 2.66 134 3 134 C3 137.3 3 140.6 3 144 C13.23 144 23.46 144 34 144 C34 96.81 34 49.62 34 1 C32.02 1.33 30.04 1.66 28 2 C27.67 4.97 27.34 7.94 27 11 C26.34 11 25.68 11 25 11 C25 8.03 25 5.06 25 2 C22.88658203 2.12568359 22.88658203 2.12568359 20.73046875 2.25390625 C18.8828294 2.35707393 17.03517218 2.4599219 15.1875 2.5625 C13.7943457 2.64661133 13.7943457 2.64661133 12.37304688 2.73242188 C11.48037109 2.78076172 10.58769531 2.82910156 9.66796875 2.87890625 C8.84578857 2.9260376 8.0236084 2.97316895 7.17651367 3.02172852 C5 3 5 3 2 2 C1.67 23.45 1.34 44.9 1 67 C0.67 67 0.34 67 0 67 C0 44.89 0 22.78 0 0 Z " fill="#6C84D7" transform="translate(679,437)"/>
<path d="M0 0 C10.89 0 21.78 0 33 0 C33 21.45 33 42.9 33 65 C32.67 65 32.34 65 32 65 C31.98969254 64.38914047 31.97938507 63.77828094 31.96876526 63.14891052 C31.86032412 56.77324532 31.74575838 50.39771075 31.62768555 44.0222168 C31.58445692 41.64496604 31.54277364 39.26768665 31.50268555 36.89038086 C31.44468976 33.4671975 31.38108046 30.04415666 31.31640625 26.62109375 C31.29969376 25.56353378 31.28298126 24.50597382 31.26576233 23.41636658 C31.16152189 18.18737043 30.89262995 13.1556527 30 8 C29.01 8 28.02 8 27 8 C26.67 8.99 26.34 9.98 26 11 C25.67 10.34 25.34 9.68 25 9 C24.34 9 23.68 9 23 9 C22.34 6.69 21.68 4.38 21 2 C18.58299013 2.14129287 16.16649571 2.28786487 13.75 2.4375 C12.72712891 2.49647461 12.72712891 2.49647461 11.68359375 2.55664062 C8.35551959 2.76666472 5.19744598 3.01934002 2 4 C2 6.31 2 8.62 2 11 C2.66 11 3.32 11 4 11 C4.04241723 13.33294775 4.04092937 15.66702567 4 18 C3.67 18.33 3.34 18.66 3 19 C2.85731047 23.13799644 2.97594231 26.8315962 3.5625 30.9375 C3.706875 31.948125 3.85125 32.95875 4 34 C3.505 34.495 3.505 34.495 3 35 C2.77246643 36.7037908 2.60526762 38.41573499 2.46484375 40.12890625 C2.37783203 41.16337891 2.29082031 42.19785156 2.20117188 43.26367188 C2.11416016 44.35228516 2.02714844 45.44089844 1.9375 46.5625 C1.80118164 48.2012207 1.80118164 48.2012207 1.66210938 49.87304688 C1.43737189 52.58172492 1.21685911 55.29068166 1 58 C0.67 58 0.34 58 0 58 C0 38.86 0 19.72 0 0 Z " fill="#CF74F4" transform="translate(364,438)"/>
<path d="M0 0 C2.36109579 1.79990269 2.95733004 2.69015453 3.36914349 5.68051434 C3.36499542 7.31347061 3.36499542 7.31347061 3.36076355 8.97941589 C3.36488754 10.22883469 3.36901154 11.47825348 3.3732605 12.76553345 C3.36264306 14.15252901 3.35173863 15.53952239 3.34057617 16.92651367 C3.33973008 18.38506554 3.3402047 19.84361868 3.34190369 21.3021698 C3.34276576 25.26478724 3.32510583 29.22713323 3.30418181 33.18968749 C3.2854503 37.32967621 3.28366736 41.46967088 3.28010559 45.60969543 C3.27077474 53.45075082 3.24614693 61.29168099 3.21605712 69.13268119 C3.18254543 78.05880269 3.16603524 86.98493011 3.15097082 95.91109884 C3.11959825 114.27413693 3.06681758 132.6370584 3 151 C1.35 151.33 -0.3 151.66 -2 152 C-2 151.34 -2 150.68 -2 150 C-0.68 150 0.64 150 2 150 C2 102.15 2 54.3 2 5 C-9.55 5 -21.1 5 -33 5 C-33 4.34 -33 3.68 -33 3 C-29.42525275 1.86083698 -26.21460618 1.96849338 -22.484375 2.12109375 C-21.23398437 2.16943359 -19.98359375 2.21777344 -18.6953125 2.26757812 C-17.39335937 2.32365234 -16.09140625 2.37972656 -14.75 2.4375 C-12.77386719 2.51581055 -12.77386719 2.51581055 -10.7578125 2.59570312 C-7.50496572 2.72534557 -4.25242833 2.86031156 -1 3 C-0.67 2.01 -0.34 1.02 0 0 Z " fill="#FDE7FF" transform="translate(396,432)"/>
<path d="M0 0 C0.33 0 0.66 0 1 0 C1 26.4 1 52.8 1 80 C1.99 80.33 2.98 80.66 4 81 C4 81.99 4 82.98 4 84 C9.28 84 14.56 84 20 84 C20 83.34 20 82.68 20 82 C24.75 82.875 24.75 82.875 27 84 C27.04898437 83.28972656 27.09796875 82.57945312 27.1484375 81.84765625 C27.22320312 80.92855469 27.29796875 80.00945312 27.375 79.0625 C27.44460938 78.14597656 27.51421875 77.22945312 27.5859375 76.28515625 C27.72257812 75.53105469 27.85921875 74.77695312 28 74 C28.99 73.505 28.99 73.505 30 73 C30.46651207 70.87423218 30.46651207 70.87423218 30.625 68.4375 C30.69976562 67.61121094 30.77453125 66.78492188 30.8515625 65.93359375 C30.90054687 65.29550781 30.94953125 64.65742187 31 64 C31.66 64 32.32 64 33 64 C33 70.93 33 77.86 33 85 C22.11 85 11.22 85 0 85 C0 56.95 0 28.9 0 0 Z " fill="#AD7AF7" transform="translate(364,496)"/>
<path d="M0 0 C1.65 0.33 3.3 0.66 5 1 C-10.21947334 14.03340353 -32.87594147 15.25442886 -52 14 C-62.54404043 12.74983905 -73.09171263 9.96537101 -82 4 C-82.66 3.01 -83.32 2.02 -84 1 C-82.8553125 1.495 -82.8553125 1.495 -81.6875 2 C-79.00930865 3.17436686 -79.00930865 3.17436686 -76 3 C-73 3 -73 3 -71.3125 4.375 C-70 6 -70 6 -70 8 C-64.555 8.495 -64.555 8.495 -59 9 C-59 9.66 -59 10.32 -59 11 C-58.1478894 10.99214478 -58.1478894 10.99214478 -57.27856445 10.98413086 C-46.46623741 10.89778962 -35.76663255 10.88138883 -25 12 C-25 11.34 -25 10.68 -25 10 C-23.35 9.34 -21.7 8.68 -20 8 C-20 7.67 -20 7.34 -20 7 C-13.68027076 5.80343362 -7.39205856 4.72362927 -1 4 C-0.67 2.68 -0.34 1.36 0 0 Z " fill="#7B97E7" transform="translate(841,571)"/>
<path d="M0 0 C7.115625 -0.020625 14.23125 -0.04125 21.5625 -0.0625 C23.79588135 -0.071604 26.0292627 -0.08070801 28.33032227 -0.09008789 C30.11734965 -0.09301084 31.90437771 -0.0955585 33.69140625 -0.09765625 C34.60563354 -0.10277222 35.51986084 -0.10788818 36.46179199 -0.11315918 C41.42037018 -0.11383062 46.11198059 0.15461543 51 1 C51 1.33 51 1.66 51 2 C49.69329346 1.99476318 48.38658691 1.98952637 47.0402832 1.98413086 C42.18547248 1.96601073 37.33066474 1.95454232 32.47583008 1.94506836 C30.37589007 1.94004419 28.27595354 1.93322375 26.17602539 1.92456055 C23.15510191 1.9124111 20.13422474 1.90675247 17.11328125 1.90234375 C15.70832146 1.89460182 15.70832146 1.89460182 14.27497864 1.88670349 C13.39444321 1.88662796 12.51390778 1.88655243 11.60668945 1.88647461 C10.83613724 1.884254 10.06558502 1.88203339 9.27168274 1.87974548 C6.52313283 1.97056808 6.52313283 1.97056808 2 3 C1.67 22.14 1.34 41.28 1 61 C7.290625 60.855625 13.58125 60.71125 20.0625 60.5625 C22.03484619 60.51939697 24.00719238 60.47629395 26.03930664 60.43188477 C27.62126447 60.39372056 29.20321491 60.355248 30.78515625 60.31640625 C31.59142456 60.29993042 32.39769287 60.28345459 33.22839355 60.26647949 C42.04592951 60.24343327 42.04592951 60.24343327 50 57 C52.04296875 56.8046875 52.04296875 56.8046875 54.1875 56.875 C55.445625 56.91625 56.70375 56.9575 58 57 C52.0021215 62.9978785 40.28383754 62.26390652 32.32421875 62.29296875 C28.44424151 62.28861396 24.56765498 62.23733416 20.6875 62.1875 C10.4471875 62.0946875 10.4471875 62.0946875 0 62 C0 41.54 0 21.08 0 0 Z " fill="#FEE4FB" transform="translate(216,419)"/>
<path d="M0 0 C2.64 0.33 5.28 0.66 8 1 C9.125 6.75 9.125 6.75 8 9 C9.65 9 11.3 9 13 9 C12 11 12 11 11 12 C12.65 12.33 14.3 12.66 16 13 C16.70400221 17.06756833 17.02920508 20.03020896 16 24 C16.66 24.66 17.32 25.32 18 26 C21.59679066 25.67673447 21.59679066 25.67673447 25 25 C25 27.97 25 30.94 25 34 C24.67 33.34 24.34 32.68 24 32 C22.02 32 20.04 32 18 32 C17.53851563 31.175 17.07703125 30.35 16.6015625 29.5 C12.32569317 21.91277656 7.86884883 14.47823878 3.15087891 7.15625 C0 2.21175584 0 2.21175584 0 0 Z " fill="#CE82F4" transform="translate(255,519)"/>
<path d="M0 0 C11.26909191 0.86685322 24.82705356 4.82705356 33 13 C33 14.32 33 15.64 33 17 C35.475 17.99 35.475 17.99 38 19 C38 19.66 38 20.32 38 21 C38.66 21 39.32 21 40 21 C40 21.99 40 22.98 40 24 C36.22222222 22.48888889 36.22222222 22.48888889 35.0625 19.9375 C34.5365625 18.9784375 34.5365625 18.9784375 34 18 C31.44480079 17.18828772 31.44480079 17.18828772 29 17 C28.34 15.02 27.68 13.04 27 11 C25.96875 10.87625 24.9375 10.7525 23.875 10.625 C20 10 20 10 16.9375 8.875 C13.55465565 7.86734423 11.39830059 8.19088081 8 9 C8 8.01 8 7.02 8 6 C7.05125 6.495 6.1025 6.99 5.125 7.5 C2 9 2 9 0 9 C0 8.01 0 7.02 0 6 C0.99 5.67 1.98 5.34 3 5 C2.01 4.67 1.02 4.34 0 4 C0 2.68 0 1.36 0 0 Z " fill="#EB78BF" transform="translate(272,390)"/>
<path d="M0 0 C1.65 0 3.3 0 5 0 C5.3403125 1.918125 5.3403125 1.918125 5.6875 3.875 C6.16555689 6.08787401 6.16555689 6.08787401 7 8 C8.65204456 8.70211894 10.31923769 9.36971413 12 10 C13.3125 13.625 13.3125 13.625 14 17 C15.98 17 17.96 17 20 17 C19.95875 17.928125 19.9175 18.85625 19.875 19.8125 C19.72863661 23.15809719 19.72863661 23.15809719 22 26 C22 26.99 22 27.98 22 29 C22.56170898 28.83250244 23.12341797 28.66500488 23.70214844 28.49243164 C26.18290882 27.96080248 28.23604506 27.97515645 30.765625 28.12109375 C31.65507812 28.16943359 32.54453125 28.21777344 33.4609375 28.26757812 C34.38132812 28.32365234 35.30171875 28.37972656 36.25 28.4375 C37.18585938 28.48970703 38.12171875 28.54191406 39.0859375 28.59570312 C41.39098887 28.72506825 43.69557289 28.86002034 46 29 C46 28.34 46 27.68 46 27 C46.99 27.33 47.98 27.66 49 28 C50.66362417 28.34820041 52.32995171 28.68404492 54 29 C54 29.33 54 29.66 54 30 C49.12570232 30.24810442 44.25510516 30.42902231 39.37597656 30.54931641 C37.71874984 30.59946677 36.0619627 30.6676137 34.40625 30.75439453 C20.62779745 31.45822173 20.62779745 31.45822173 16.54394531 27.79980469 C14.60562774 24.63308833 13 21.77288934 13 18 C12.01 18 11.02 18 10 18 C8.7069894 15.75076296 7.41555023 13.50064815 6.125 11.25 C5.76019531 10.61578125 5.39539063 9.9815625 5.01953125 9.328125 C3.2603169 6.25749632 1.53126626 3.19148125 0 0 Z M11 14 C12 16 12 16 12 16 Z " fill="#AF83FA" transform="translate(274,551)"/>
<path d="M0 0 C5.62366547 0.09360093 11.2469038 0.19971008 16.87011719 0.31738281 C18.78281195 0.35564968 20.69557811 0.39050658 22.60839844 0.421875 C25.35898342 0.46757527 28.10907783 0.52556145 30.859375 0.5859375 C31.71368103 0.59748871 32.56798706 0.60903992 33.44818115 0.62094116 C34.64897308 0.6507457 34.64897308 0.6507457 35.87402344 0.68115234 C36.92659332 0.70113785 36.92659332 0.70113785 38.00042725 0.7215271 C40 1 40 1 44 3 C29.48 3 14.96 3 0 3 C0 23.13 0 43.26 0 64 C-0.33 64 -0.66 64 -1 64 C-1.02314421 55.95074899 -1.04092572 47.90151183 -1.05181217 39.85223579 C-1.05703644 36.1148575 -1.06412584 32.37750193 -1.07543945 28.64013672 C-1.0862845 25.03510184 -1.09228028 21.43008884 -1.09487724 17.82503891 C-1.09672857 16.44789154 -1.1003436 15.07074541 -1.10573006 13.69360733 C-1.11296181 11.76856906 -1.11340824 9.84350888 -1.11352539 7.91845703 C-1.115746 6.82147491 -1.11796661 5.7244928 -1.12025452 4.5942688 C-1 2 -1 2 0 0 Z " fill="#D674AD" transform="translate(216,416)"/>
<path d="M0 0 C11.22 0 22.44 0 34 0 C34 0.33 34 0.66 34 1 C32.02 1.33 30.04 1.66 28 2 C27.67 4.97 27.34 7.94 27 11 C26.34 11 25.68 11 25 11 C25 8.03 25 5.06 25 2 C22.88658203 2.12568359 22.88658203 2.12568359 20.73046875 2.25390625 C18.8828294 2.35707393 17.03517218 2.4599219 15.1875 2.5625 C13.7943457 2.64661133 13.7943457 2.64661133 12.37304688 2.73242188 C11.48037109 2.78076172 10.58769531 2.82910156 9.66796875 2.87890625 C8.84578857 2.9260376 8.0236084 2.97316895 7.17651367 3.02172852 C5 3 5 3 2 2 C1.67 23.45 1.34 44.9 1 67 C0.67 67 0.34 67 0 67 C0 44.89 0 22.78 0 0 Z " fill="#689CF2" transform="translate(679,437)"/>
<path d="M0 0 C0.99 0.33 1.98 0.66 3 1 C2.01 3.31 1.02 5.62 0 8 C1.32 8 2.64 8 4 8 C3.67 11.3 3.34 14.6 3 18 C4.32 17.34 5.64 16.68 7 16 C7.680625 17.2375 7.680625 17.2375 8.375 18.5 C8.91125 19.325 9.4475 20.15 10 21 C10.66 21 11.32 21 12 21 C11.79375 21.61875 11.5875 22.2375 11.375 22.875 C11.25125 23.57625 11.1275 24.2775 11 25 C11.66 25.66 12.32 26.32 13 27 C12.34 27.66 11.68 28.32 11 29 C10.401875 28.360625 9.80375 27.72125 9.1875 27.0625 C7.09189663 24.79689611 7.09189663 24.79689611 4 24 C2.61836103 21.81955478 1.44383527 19.74279541 0.3125 17.4375 C-0.00058105 16.80360352 -0.31366211 16.16970703 -0.63623047 15.51660156 C-2.92057626 10.66004023 -4.01306892 7.26795839 -3 2 C-2.01 1.34 -1.02 0.68 0 0 Z " fill="#9A82EE" transform="translate(588,544)"/>
<path d="M0 0 C2.15478516 0.04833984 2.15478516 0.04833984 4.7890625 0.4609375 C5.73007813 0.60273438 6.67109375 0.74453125 7.640625 0.890625 C8.62546875 1.05046875 9.6103125 1.2103125 10.625 1.375 C12.11386719 1.60316406 12.11386719 1.60316406 13.6328125 1.8359375 C16.09026826 2.21400762 18.54563749 2.60242235 21 3 C21 2.34 21 1.68 21 1 C25.33333333 1 29.66666667 1 34 1 C34 2.32 34 3.64 34 5 C30.17254277 6.24006181 26.36654408 6.12692202 22.390625 6.09765625 C21.66381531 6.0962413 20.93700562 6.09482635 20.18817139 6.09336853 C17.87540506 6.08778792 15.56273688 6.07523904 13.25 6.0625 C11.67838682 6.05748249 10.10677211 6.05292002 8.53515625 6.04882812 C4.69006657 6.03782485 0.8450499 6.02057361 -3 6 C-2.42655063 3.13275314 -2.1385485 2.1385485 0 0 Z " fill="#DC8DEA" transform="translate(219,504)"/>
<path d="M0 0 C0.66 0 1.32 0 2 0 C2.33 1.32 2.66 2.64 3 4 C3.99 3.34 4.98 2.68 6 2 C3.9272365 6.83644816 1.14992449 9.70154788 -3.6875 11.75 C-9.85227946 13.82017641 -15.41514497 14.01161781 -21.375 11.25 C-24.32425303 9.60499831 -26.29303856 7.98718252 -28 5 C-24 7 -20 9 -16 11 C-15.67 10.01 -15.34 9.02 -15 8 C-13.576875 8.0309375 -13.576875 8.0309375 -12.125 8.0625 C-9.09333717 8.22551826 -9.09333717 8.22551826 -7 7 C-4.3276379 6.86584528 -1.67749512 6.95681459 1 7 C0.34 5.02 -0.32 3.04 -1 1 C-0.67 0.67 -0.34 0.34 0 0 Z " fill="#CB74E1" transform="translate(393,403)"/>
<path d="M0 0 C2.45198633 3.67797949 2.27259068 6.44480521 2.23046875 10.6953125 C2.23001053 11.44336151 2.22955231 12.19141052 2.2290802 12.96212769 C2.22606246 14.54068593 2.21819041 16.11924132 2.20581055 17.69775391 C2.18751639 20.12282773 2.18530117 22.54752053 2.18554688 24.97265625 C2.18063298 26.50521166 2.17480522 28.03776446 2.16796875 29.5703125 C2.16685593 30.29944855 2.1657431 31.02858459 2.16459656 31.77981567 C2.11606285 36.88393715 2.11606285 36.88393715 1 38 C0.84313751 39.55948542 0.74923361 41.12542668 0.68359375 42.69140625 C0.64169922 43.63564453 0.59980469 44.57988281 0.55664062 45.55273438 C0.51732422 46.54595703 0.47800781 47.53917969 0.4375 48.5625 C0.39431641 49.55958984 0.35113281 50.55667969 0.30664062 51.58398438 C0.20019702 54.0558415 0.09818072 56.5278031 0 59 C-0.33 59 -0.66 59 -1 59 C-2.81305261 28.87347956 -2.81305261 28.87347956 1 15 C0.34 15 -0.32 15 -1 15 C-0.67 10.05 -0.34 5.1 0 0 Z " fill="#CB86F5" transform="translate(213,509)"/>
<path d="M0 0 C3.26671657 2.80004278 5.17990554 6.45498525 7.3125 10.125 C10.70252136 15.87492573 14.20354355 21.5063042 18 27 C17.34 27.66 16.68 28.32 16 29 C15.1028125 27.576875 15.1028125 27.576875 14.1875 26.125 C12.18437474 22.86035803 12.18437474 22.86035803 9 21 C9.66 21 10.32 21 11 21 C10.67 19.68 10.34 18.36 10 17 C9.030625 16.855625 8.06125 16.71125 7.0625 16.5625 C4 16 4 16 3 15 C2.01 15.495 2.01 15.495 1 16 C0.80522261 14.37585622 0.61940542 12.75063577 0.4375 11.125 C0.33308594 10.22007812 0.22867187 9.31515625 0.12109375 8.3828125 C0 6 0 6 1 4 C0.60061233 1.90178785 0.60061233 1.90178785 0 0 Z " fill="#AF7AE0" transform="translate(304,536)"/>
<path d="M0 0 C0.66 0.33 1.32 0.66 2 1 C-8.44679198 8.85361666 -17.96971789 10.16608144 -31 9 C-34.83914572 7.98854122 -38.40341179 6.67491842 -42 5 C-41.34 4.34 -40.68 3.68 -40 3 C-37.4375 3.25 -37.4375 3.25 -35 4 C-34.67 4.66 -34.34 5.32 -34 6 C-32.0509375 5.7215625 -32.0509375 5.7215625 -30.0625 5.4375 C-27.84765625 5.12109375 -27.84765625 5.12109375 -26 5 C-25.67 5.33 -25.34 5.66 -25 6 C-22.46950598 6.07313567 -19.96695163 6.09247527 -17.4375 6.0625 C-16.37112305 6.05573242 -16.37112305 6.05573242 -15.28320312 6.04882812 C-13.52209987 6.03700864 -11.76103964 6.01907263 -10 6 C-10 5.34 -10 4.68 -10 4 C-9.44570313 3.79503906 -8.89140625 3.59007812 -8.3203125 3.37890625 C-7.59585938 3.10949219 -6.87140625 2.84007812 -6.125 2.5625 C-5.40570312 2.29566406 -4.68640625 2.02882813 -3.9453125 1.75390625 C-1.96351155 1.02083146 -1.96351155 1.02083146 0 0 Z " fill="#E9F7FD" transform="translate(826,550)"/>
<path d="M0 0 C0.66 0 1.32 0 2 0 C2.06058594 0.64066406 2.12117187 1.28132813 2.18359375 1.94140625 C2.56666315 5.89586118 2.97297522 9.81983483 3.5625 13.75 C3.98519711 16.8900357 4.15064359 19.83648452 4 23 C3.67 23.33 3.34 23.66 3 24 C2.76636119 25.84891946 2.58696365 27.70488031 2.4375 29.5625 C2.35371094 30.57441406 2.26992187 31.58632813 2.18359375 32.62890625 C2.09271484 33.80259766 2.09271484 33.80259766 2 35 C1.34 35 0.68 35 0 35 C0 23.45 0 11.9 0 0 Z " fill="#ED87D2" transform="translate(180,461)"/>
<path d="M0 0 C1.60031344 3.20062687 0.03173691 5.72271806 -1 9 C-6.51276102 9.12529002 -6.51276102 9.12529002 -9.1875 8.4375 C-11.2175204 7.77806294 -11.2175204 7.77806294 -14 9 C-14.66 8.34 -15.32 7.68 -16 7 C-14.58531689 6.03874097 -13.1681636 5.08111675 -11.75 4.125 C-10.96109375 3.59132813 -10.1721875 3.05765625 -9.359375 2.5078125 C-3.57207719 -1.1906924 -3.57207719 -1.1906924 0 0 Z " fill="#66ADFC" transform="translate(776,439)"/>
<path d="M0 0 C1.98 0 3.96 0 6 0 C6.23074219 0.51949219 6.46148438 1.03898438 6.69921875 1.57421875 C10.77715286 10.29422805 16.23078575 14.29268991 25 18 C27.72746439 18.78324477 30.27879284 19.16629962 33.109375 19.31640625 C33.86347656 19.35830078 34.61757813 19.40019531 35.39453125 19.44335938 C36.56048828 19.50233398 36.56048828 19.50233398 37.75 19.5625 C38.54277344 19.60568359 39.33554687 19.64886719 40.15234375 19.69335938 C42.10137815 19.79902991 44.05066748 19.89997966 46 20 C46 20.33 46 20.66 46 21 C32.76134251 21.62315856 21.60465861 21.72468583 10.875 12.8125 C9.89953172 11.89284209 8.93809262 10.95775324 8 10 C6.0745356 7.7763932 6.0745356 7.7763932 3 7 C2.25 5.0625 2.25 5.0625 2 3 C2.33 2.34 2.66 1.68 3 1 C2.01 0.67 1.02 0.34 0 0 Z " fill="#748EDA" transform="translate(766,539)"/>
<path d="M0 0 C0.66 0 1.32 0 2 0 C2.70400221 4.06756833 3.02920508 7.03020896 2 11 C2.66 11.66 3.32 12.32 4 13 C7.59679066 12.67673447 7.59679066 12.67673447 11 12 C11 14.97 11 17.94 11 21 C10.67 20.34 10.34 19.68 10 19 C8.02 19 6.04 19 4 19 C0.71232131 13.64993984 -1.59683075 9.31631828 -2 3 C-1.34 3 -0.68 3 0 3 C0 2.01 0 1.02 0 0 Z " fill="#B87FE3" transform="translate(269,532)"/>
<path d="M0 0 C1.43861294 0.08746284 2.87597508 0.19565348 4.3125 0.3125 C5.11300781 0.37050781 5.91351562 0.42851562 6.73828125 0.48828125 C9.40063848 1.09064532 10.31193548 1.89641191 12 4 C12.33 4.66 12.66 5.32 13 6 C13.99 5.67 14.98 5.34 16 5 C17.37562854 6.28965176 18.70766393 7.62689293 20 9 C20 9.66 20 10.32 20 11 C19.67 11.33 19.34 11.66 19 12 C19.66 12.66 20.32 13.32 21 14 C20.34 14.66 19.68 15.32 19 16 C20.98 16.33 22.96 16.66 25 17 C22.35261084 18.4606285 21.10551666 19 18 19 C17.731875 18.34773438 17.46375 17.69546875 17.1875 17.0234375 C13.72340583 9.29759589 9.68511821 5.14734585 2 1.625 C1.34 1.41875 0.68 1.2125 0 1 C0 0.67 0 0.34 0 0 Z " fill="#65A2EE" transform="translate(812,459)"/>
<path d="M0 0 C1.32 0.33 2.64 0.66 4 1 C4 1.66 4 2.32 4 3 C5.11375 2.690625 5.11375 2.690625 6.25 2.375 C9.32330841 1.95591249 10.42786866 2.38050989 13 4 C13 4.66 13 5.32 13 6 C16.11173575 7.78448519 18.64068326 8.34284631 22.203125 8.6328125 C23.1828125 8.71660156 24.1625 8.80039062 25.171875 8.88671875 C26.18765625 8.96535156 27.2034375 9.04398438 28.25 9.125 C29.28125 9.21136719 30.3125 9.29773438 31.375 9.38671875 C33.91615699 9.59848183 36.45769121 9.80263154 39 10 C39 10.33 39 10.66 39 11 C12.66932047 11.94506926 12.66932047 11.94506926 1 4 C0.1875 1.8125 0.1875 1.8125 0 0 Z " fill="#9282E4" transform="translate(603,574)"/>
<path d="M0 0 C1.21236328 0.01353516 1.21236328 0.01353516 2.44921875 0.02734375 C3.37154297 0.04474609 3.37154297 0.04474609 4.3125 0.0625 C3.9825 0.7225 3.6525 1.3825 3.3125 2.0625 C8.00223124 2.98579084 12.54846815 3.21436484 17.3125 3.1875 C17.99828125 3.19136719 18.6840625 3.19523438 19.390625 3.19921875 C27.00514472 3.47064132 27.00514472 3.47064132 33.3125 0.0625 C35.7875 1.0525 35.7875 1.0525 38.3125 2.0625 C32.05183052 6.23627966 23.84556861 5.24547073 16.5625 5.25 C15.5415625 5.26224609 14.520625 5.27449219 13.46875 5.28710938 C6.68355706 5.30002535 -0.14717903 5.03799733 -6.6875 3.0625 C-7.0175 2.4025 -7.3475 1.7425 -7.6875 1.0625 C-4.80538698 0.10179566 -2.98899956 -0.04331883 0 0 Z " fill="#9B7FEA" transform="translate(470.6875,579.9375)"/>
<path d="M0 0 C1.5 1.375 1.5 1.375 3 3 C3 3.66 3 4.32 3 5 C-8.88 5 -20.76 5 -33 5 C-33 4.34 -33 3.68 -33 3 C-29.42525275 1.86083698 -26.21460618 1.96849338 -22.484375 2.12109375 C-21.23398437 2.16943359 -19.98359375 2.21777344 -18.6953125 2.26757812 C-17.39335937 2.32365234 -16.09140625 2.37972656 -14.75 2.4375 C-12.77386719 2.51581055 -12.77386719 2.51581055 -10.7578125 2.59570312 C-7.50496572 2.72534557 -4.25242833 2.86031156 -1 3 C-0.67 2.01 -0.34 1.02 0 0 Z " fill="#EFCCFB" transform="translate(396,432)"/>
<path d="M0 0 C0 0.99 0 1.98 0 3 C-0.33 3.33 -0.66 3.66 -1 4 C-1.24273323 6.54869892 -1.38366867 9.09604532 -1.5234375 11.65234375 C-2 14 -2 14 -5 16 C-5.33 15.67 -5.66 15.34 -6 15 C-6 18.96 -6 22.92 -6 27 C-8.91321337 24.08678663 -8.91526734 21.86427316 -9.3125 17.8125 C-8.70269936 10.37293215 -5.60238522 4.82427616 0 0 Z " fill="#CA74D5" transform="translate(368,376)"/>
<path d="M0 0 C0.99 0 1.98 0 3 0 C5 2 5 2 6 4 C6.66 4.33 7.32 4.66 8 5 C8 6.65 8 8.3 8 10 C11.08809695 11.76462683 12.23312136 12 16 12 C16 12.66 16 13.32 16 14 C16.66 14 17.32 14 18 14 C18 14.99 18 15.98 18 17 C19.32 17.66 20.64 18.32 22 19 C14.66336182 18.04185695 7.21592896 13.19701173 2.0078125 8.01953125 C0.625 6.1875 0.625 6.1875 -1 3 C-0.67 2.01 -0.34 1.02 0 0 Z M2 4 C3.32 5.32 4.64 6.64 6 8 C6 6.68 6 5.36 6 4 C4.68 4 3.36 4 2 4 Z " fill="#A47DE8" transform="translate(434,560)"/>
<path d="M0 0 C0.67546875 0.20496094 1.3509375 0.40992188 2.046875 0.62109375 C2.93890625 0.89050781 3.8309375 1.15992188 4.75 1.4375 C5.63171875 1.70433594 6.5134375 1.97117187 7.421875 2.24609375 C8.27265625 2.49488281 9.1234375 2.74367188 10 3 C10.59941406 3.19207031 11.19882812 3.38414062 11.81640625 3.58203125 C21.14537562 5.36771948 31.30314971 4.72171199 40 1 C41.32753748 0.64428505 42.65983715 0.30471694 44 0 C42.625 1.5 42.625 1.5 41 3 C40.34 3 39.68 3 39 3 C39 3.66 39 4.32 39 5 C34.34785065 5.74734361 29.90132058 6.11936092 25.19140625 6.09765625 C23.95068359 6.09443359 22.70996094 6.09121094 21.43164062 6.08789062 C20.15482422 6.07951172 18.87800781 6.07113281 17.5625 6.0625 C15.60666992 6.05573242 15.60666992 6.05573242 13.61132812 6.04882812 C10.40750448 6.03709251 7.20377637 6.02067363 4 6 C3.67 5.01 3.34 4.02 3 3 C1.35 2.67 -0.3 2.34 -2 2 C-1.34 1.34 -0.68 0.68 0 0 Z " fill="#8C6ED9" transform="translate(468,554)"/>
<path d="M0 0 C8.25 0 16.5 0 25 0 C25 0.66 25 1.32 25 2 C22.36 2.33 19.72 2.66 17 3 C17.33 3.66 17.66 4.32 18 5 C16.35 5 14.7 5 13 5 C13 4.67 13 4.34 13 4 C10.03 3.505 10.03 3.505 7 3 C7 3.66 7 4.32 7 5 C5.35 4.67 3.7 4.34 2 4 C2 4.66 2 5.32 2 6 C1.34 6 0.68 6 0 6 C0 4.02 0 2.04 0 0 Z " fill="#9283EB" transform="translate(632,553)"/>
<path d="M0 0 C2.24609375 1.953125 2.24609375 1.953125 4.4921875 3.90625 C5.95936421 5.19572458 5.95936421 5.19572458 8 5 C8 5.66 8 6.32 8 7 C9.32 7 10.64 7 12 7 C12 6.34 12 5.68 12 5 C14.97 5.33 17.94 5.66 21 6 C21 6.33 21 6.66 21 7 C18.22970414 7.50314563 15.4588348 8.00263838 12.6875 8.5 C11.90181641 8.64308594 11.11613281 8.78617187 10.30664062 8.93359375 C9.54931641 9.06894531 8.79199219 9.20429688 8.01171875 9.34375 C7.31522217 9.46943359 6.61872559 9.59511719 5.90112305 9.72460938 C4 10 4 10 1 10 C0.01 7.03 -0.98 4.06 -2 1 C-1.34 0.67 -0.68 0.34 0 0 Z " fill="#A87CF8" transform="translate(516,468)"/>
<path d="M0 0 C2 2 2 2 2.125 5.125 C2.08375 6.07375 2.0425 7.0225 2 8 C2.66 8 3.32 8 4 8 C5.23076923 13.41538462 5.23076923 13.41538462 4.0625 16.375 C3.711875 16.91125 3.36125 17.4475 3 18 C2.34 18 1.68 18 1 18 C1.309375 18.86625 1.309375 18.86625 1.625 19.75 C2.1010814 22.60648841 1.64786707 23.64590418 0 26 C-2.125 27.25 -2.125 27.25 -4 28 C-3.71125 27.195625 -3.4225 26.39125 -3.125 25.5625 C-0.37946454 16.86830438 0.25434364 9.14224089 0 0 Z " fill="#D676C7" transform="translate(289,440)"/>
<path d="M0 0 C3.43140462 3.43140462 2.86494029 8.32202276 3 13 C2.81656389 16.04853349 2.44644074 18.97412388 2 22 C1.01 22.33 0.02 22.66 -1 23 C-1.02887512 19.35418313 -1.04675585 15.70839537 -1.0625 12.0625 C-1.07087891 11.02158203 -1.07925781 9.98066406 -1.08789062 8.90820312 C-1.09272461 7.42416992 -1.09272461 7.42416992 -1.09765625 5.91015625 C-1.10289307 4.99371338 -1.10812988 4.07727051 -1.11352539 3.13305664 C-1 1 -1 1 0 0 Z " fill="#E777E9" transform="translate(323,438)"/>
<path d="M0 0 C2.12161334 2.12161334 2.92986249 3.7733159 4.125 6.5 C4.47820313 7.2940625 4.83140625 8.088125 5.1953125 8.90625 C6 11 6 11 6 13 C7.32 12.67 8.64 12.34 10 12 C10 11.34 10 10.68 10 10 C10.66 10 11.32 10 12 10 C11.79375 11.2375 11.5875 12.475 11.375 13.75 C10.93892876 17.11909835 10.96596361 19.12841921 13 22 C13.66 22 14.32 22 15 22 C15.66 23.32 16.32 24.64 17 26 C8.44510974 22.20820366 4.72328295 13.99989649 1.06640625 5.85546875 C0 3 0 3 0 0 Z " fill="#7B95E1" transform="translate(740,546)"/>
<path d="M0 0 C3.05972981 0.47684101 6.01387074 0.39253329 9.10546875 0.328125 C8.77546875 1.318125 8.44546875 2.308125 8.10546875 3.328125 C7.33203125 3.28171875 6.55859375 3.2353125 5.76171875 3.1875 C-3.26042457 2.87485147 -8.95392579 4.54428711 -15.89453125 10.328125 C-16.55453125 9.668125 -17.21453125 9.008125 -17.89453125 8.328125 C-15.22786458 6.328125 -12.56119792 4.328125 -9.89453125 2.328125 C-9.22550781 1.7609375 -8.55648438 1.19375 -7.8671875 0.609375 C-5.14262799 -1.16023989 -3.09164774 -0.53364276 0 0 Z " fill="#FDE7FE" transform="translate(379.89453125,369.671875)"/>
<path d="M0 0 C6.45239352 2.6884973 10.27889507 9.351219 13.5 15.3125 C15.00352498 19.00866558 15.1684996 19.5175637 14 23 C12.66666667 20.33333333 11.33333333 17.66666667 10 15 C9.01 14.34 8.02 13.68 7 13 C6.01 13.495 6.01 13.495 5 14 C4.97421875 13.38511719 4.9484375 12.77023437 4.921875 12.13671875 C4.75034891 7.03484954 4.75034891 7.03484954 1.9375 3.0625 C1.298125 2.711875 0.65875 2.36125 0 2 C0 1.34 0 0.68 0 0 Z " fill="#9F76EB" transform="translate(532,446)"/>
<path d="M0 0 C3.97472087 3.70060219 6.87132836 6.72680102 7.1875 12.3125 C7.125625 13.199375 7.06375 14.08625 7 15 C6.67 15 6.34 15 6 15 C6 13.35 6 11.7 6 10 C5.01 10.33 4.02 10.66 3 11 C0.99124558 10.72428861 -1.01178687 10.39764263 -3 10 C-2.814375 9.05125 -2.62875 8.1025 -2.4375 7.125 C-1.71313368 4.10131207 -1.71313368 4.10131207 -3 2 C-2.01 2 -1.02 2 0 2 C0 1.34 0 0.68 0 0 Z " fill="#CC7FF6" transform="translate(291,518)"/>
<path d="M0 0 C0.66 0.33 1.32 0.66 2 1 C1 3 0 5 -1 7 C-1.66 7 -2.32 7 -3 7 C-3.66 10.63 -4.32 14.26 -5 18 C-4.01 18.33 -3.02 18.66 -2 19 C-2 19.99 -2 20.98 -2 22 C-1.34 22 -0.68 22 0 22 C0.66 23.32 1.32 24.64 2 26 C-1.85313152 24.48626976 -3.83035522 22.51632085 -6 19 C-7.22453256 14.51556321 -7.38895637 11.08498355 -5.8125 6.6875 C-4.07710804 4.11433261 -2.30698362 2.06833014 0 0 Z " fill="#DEF7FE" transform="translate(784,462)"/>
<path d="M0 0 C2.31 0.33 4.62 0.66 7 1 C7 1.66 7 2.32 7 3 C8.32 3 9.64 3 11 3 C11 2.34 11 1.68 11 1 C13.9719385 2.12451727 16.33440687 3.22293791 19 5 C19 5.66 19 6.32 19 7 C11.125 6.125 11.125 6.125 10 5 C7.972246 4.74250743 5.94371791 4.48792777 3.91015625 4.28125 C2 4 2 4 0 3 C0 2.01 0 1.02 0 0 Z " fill="#81A2FA" transform="translate(771,576)"/>
<path d="M0 0 C4.25885124 3.72014213 6.90818602 8.34364565 9.8125 13.125 C10.32748047 13.94871094 10.84246094 14.77242187 11.37304688 15.62109375 C11.85451172 16.40871094 12.33597656 17.19632813 12.83203125 18.0078125 C13.27264893 18.72598145 13.7132666 19.44415039 14.16723633 20.18408203 C14.44204834 20.78333496 14.71686035 21.38258789 15 22 C14.67 22.66 14.34 23.32 14 24 C11.525 23.01 11.525 23.01 9 22 C9 22.66 9 23.32 9 24 C8.34 23.67 7.68 23.34 7 23 C7.33 22.34 7.66 21.68 8 21 C8.84734307 15.06859854 6.29633568 11.63841521 3 7 C2.01 7.495 2.01 7.495 1 8 C0.67 5.36 0.34 2.72 0 0 Z " fill="#B979D5" transform="translate(289,512)"/>
<path d="M0 0 C6.992 5.472 6.992 5.472 8 9 C8.45704661 13.01370023 8.61431527 15.97614122 6.5 19.5 C6.005 19.995 5.51 20.49 5 21 C4.28262521 18.040829 4.01722009 15.69003847 4.1875 12.625 C3.94711527 7.97756181 2.44999586 5.9046809 0 2 C0 1.34 0 0.68 0 0 Z " fill="#E6FAFC" transform="translate(823,529)"/>
<path d="M0 0 C0.99 0 1.98 0 3 0 C3.495 1.485 3.495 1.485 4 3 C4.66 3 5.32 3 6 3 C6 3.99 6 4.98 6 6 C-5.55 6 -17.1 6 -29 6 C-29 5.67 -29 5.34 -29 5 C-20.09 4.67 -11.18 4.34 -2 4 C-1.34 2.68 -0.68 1.36 0 0 Z " fill="#9F82E0" transform="translate(209,576)"/>
<path d="M0 0 C0.99 0.495 0.99 0.495 2 1 C2 1.66 2 2.32 2 3 C2.8353125 3.37125 2.8353125 3.37125 3.6875 3.75 C6 5 6 5 8.0625 6.8125 C12.34048658 9.99823468 17.11293559 11.91165724 22 14 C20.4375 14.70703125 20.4375 14.70703125 18 15 C15.54284624 13.98874214 13.32346125 12.94401618 11 11.6875 C10.38382813 11.36587891 9.76765625 11.04425781 9.1328125 10.71289062 C7.41763772 9.81665659 5.70860186 8.90870217 4 8 C2.66923565 7.32821992 1.33732115 6.65863067 0 6 C0 4.02 0 2.04 0 0 Z " fill="#DFF5FD" transform="translate(752,503)"/>
<path d="M0 0 C0.33 0.99 0.66 1.98 1 3 C-0.0390625 4.8671875 -0.0390625 4.8671875 -1.625 6.875 C-2.17671875 7.57367187 -2.7284375 8.27234375 -3.296875 8.9921875 C-5.4117665 11.48543115 -7.61982788 13.759838 -10 16 C-10.66 15.67 -11.32 15.34 -12 15 C-11.505 14.278125 -11.01 13.55625 -10.5 12.8125 C-8.92080715 9.85151341 -8.71821688 8.28746971 -9 5 C-7.02 5 -5.04 5 -3 5 C-2.690625 4.360625 -2.38125 3.72125 -2.0625 3.0625 C-1 1 -1 1 0 0 Z " fill="#9D7EEF" transform="translate(546,555)"/>
<path d="M0 0 C1.1446875 0.2475 1.1446875 0.2475 2.3125 0.5 C5.03596236 1.09145396 5.03596236 1.09145396 8 1 C8 1.99 8 2.98 8 4 C8.66 4 9.32 4 10 4 C10.33 5.65 10.66 7.3 11 9 C7 9 7 9 4.375 6.75 C2.42334119 4.49018453 1.1132554 2.73253598 0 0 Z " fill="#EEF8FA" transform="translate(774,544)"/>
<path d="M0 0 C-4.35999624 2.65936944 -9.37504304 3.02622325 -14.33203125 3.76757812 C-16.23900279 4.08658168 -18.12305221 4.5359195 -20 5 C-22.29013653 8.4352048 -22.17842973 9.985331 -22 14 C-24.95183101 11.04816899 -25.08663988 8.04488053 -26 4 C-22.60563644 3.32570033 -19.20929807 2.6619172 -15.8125 2 C-14.37293945 1.71382812 -14.37293945 1.71382812 -12.90429688 1.421875 C-11.97294922 1.24140625 -11.04160156 1.0609375 -10.08203125 0.875 C-8.80162964 0.62363281 -8.80162964 0.62363281 -7.49536133 0.3671875 C-4.95954897 -0.00595229 -2.55918603 -0.06412996 0 0 Z " fill="#9A70DC" transform="translate(451,540)"/>
<path d="M0 0 C2.48360441 3.72540662 2.2315867 5.63062973 2.1953125 10.07421875 C2.1924826 10.7580513 2.18965271 11.44188385 2.18673706 12.1464386 C2.17555684 14.32697165 2.15045691 16.50709145 2.125 18.6875 C2.11496738 20.16731177 2.10584202 21.64712999 2.09765625 23.12695312 C2.07562481 26.751436 2.04111002 30.37567766 2 34 C1.67 34 1.34 34 1 34 C1 27.73 1 21.46 1 15 C0.34 15 -0.32 15 -1 15 C-0.67 10.05 -0.34 5.1 0 0 Z " fill="#DC85F3" transform="translate(213,509)"/>
<path d="M0 0 C1.65 0.33 3.3 0.66 5 1 C5 1.66 5 2.32 5 3 C6.65 3.33 8.3 3.66 10 4 C10 3.67 10 3.34 10 3 C11.65 3 13.3 3 15 3 C14.67 3.66 14.34 4.32 14 5 C15.32 5.99 16.64 6.98 18 8 C17.46375 7.89042969 16.9275 7.78085937 16.375 7.66796875 C8.26577686 6.02745157 0.13362385 4.51370171 -8 3 C-8 2.67 -8 2.34 -8 2 C-5.36 1.67 -2.72 1.34 0 1 C0 0.67 0 0.34 0 0 Z " fill="#A170E9" transform="translate(491,520)"/>
<path d="M0 0 C6.21342939 1.24268588 10.17230175 5.15828145 14 10 C14.73046875 12.2578125 14.73046875 12.2578125 15 14 C13.35 12.68 11.7 11.36 10 10 C10.99 11.485 10.99 11.485 12 13 C11.67 13.66 11.34 14.32 11 15 C9.0625 14.25 9.0625 14.25 7 13 C5.87122032 10.17805079 6 8.12179761 6 5 C3.05763218 2.78831775 3.05763218 2.78831775 0 1 C0 0.67 0 0.34 0 0 Z " fill="#6A9DE5" transform="translate(843,505)"/>
<path d="M0 0 C0.99 0.33 1.98 0.66 3 1 C0.46421396 3.02862883 -2.0714959 5.05617535 -4.625 7.0625 C-6.5457726 8.62944607 -8.29572385 10.20602511 -10 12 C-11.32 11.34 -12.64 10.68 -14 10 C-13.67 9.01 -13.34 8.02 -13 7 C-11.35 7 -9.7 7 -8 7 C-7.67 5.35 -7.34 3.7 -7 2 C-4.66666667 2 -2.33333333 2 0 2 C0 1.34 0 0.68 0 0 Z " fill="#F8EBFA" transform="translate(448,441)"/>
<path d="M0 0 C3 1 3 1 4.1875 3.0625 C4.455625 3.701875 4.72375 4.34125 5 5 C5.66 5 6.32 5 7 5 C6.79375 5.61875 6.5875 6.2375 6.375 6.875 C6.25125 7.57625 6.1275 8.2775 6 9 C6.66 9.66 7.32 10.32 8 11 C7.34 11.66 6.68 12.32 6 13 C5.401875 12.38125 4.80375 11.7625 4.1875 11.125 C1.99188856 8.86323046 1.99188856 8.86323046 -1 7 C-1 4.57202689 -0.49914315 2.37092995 0 0 Z " fill="#A088FB" transform="translate(593,560)"/>
<path d="M0 0 C1.60597325 0.45196245 3.20972508 0.91182327 4.8125 1.375 C6.15248047 1.75785156 6.15248047 1.75785156 7.51953125 2.1484375 C10 3 10 3 13 5 C11.39796533 5.36368892 9.79325797 5.71561952 8.1875 6.0625 C7.29417969 6.25972656 6.40085937 6.45695312 5.48046875 6.66015625 C3 7 3 7 0 6 C0 4.02 0 2.04 0 0 Z " fill="#68A1F4" transform="translate(784,488)"/>
<path d="M0 0 C6.37138916 3.53966064 10.69345972 9.67561908 12.8125 16.5625 C12.375 18.765625 12.375 18.765625 11.8125 20.5625 C11.58175781 19.91023437 11.35101562 19.25796875 11.11328125 18.5859375 C9.04211214 13.03553175 7.13555279 8.67467216 2.8125 4.5625 C0.14141902 3.60702419 0.14141902 3.60702419 -2.1875 3.5625 C-2.1875 2.9025 -2.1875 2.2425 -2.1875 1.5625 C-2.8475 1.2325 -3.5075 0.9025 -4.1875 0.5625 C-2.1875 -0.4375 -2.1875 -0.4375 0 0 Z " fill="#9773DE" transform="translate(537.1875,507.4375)"/>
<path d="M0 0 C0.91007812 0.10183594 1.82015625 0.20367187 2.7578125 0.30859375 C3.45648438 0.39238281 4.15515625 0.47617187 4.875 0.5625 C3.39936775 3.5137645 1.37420648 3.63173915 -1.6875 4.6875 C-2.69941406 5.04070312 -3.71132813 5.39390625 -4.75390625 5.7578125 C-5.53636719 6.02335937 -6.31882812 6.28890625 -7.125 6.5625 C-7.125 4.5825 -7.125 2.6025 -7.125 0.5625 C-4.50184968 -0.74907516 -2.89466564 -0.33399988 0 0 Z " fill="#D97FF6" transform="translate(295.125,497.4375)"/>
<path d="M0 0 C0.66 0 1.32 0 2 0 C2.33 0.66 2.66 1.32 3 2 C6.02934491 2.65772428 6.02934491 2.65772428 9 3 C9 3.33 9 3.66 9 4 C14.28 4.33 19.56 4.66 25 5 C25 5.33 25 5.66 25 6 C16.42 6 7.84 6 -1 6 C-0.34 5.67 0.32 5.34 1 5 C0.67 3.35 0.34 1.7 0 0 Z " fill="#B58EFC" transform="translate(181,575)"/>
<path d="M0 0 C1.65 0 3.3 0 5 0 C5.3403125 1.918125 5.3403125 1.918125 5.6875 3.875 C6.16100084 6.06932132 6.16100084 6.06932132 7 8 C9.48313064 9.59688639 9.48313064 9.59688639 12 10 C11.67 10.66 11.34 11.32 11 12 C10.34 12 9.68 12 9 12 C8.67 12.66 8.34 13.32 8 14 C6.66397562 11.85580015 5.33107996 9.70976582 4 7.5625 C3.6184375 6.95083984 3.236875 6.33917969 2.84375 5.70898438 C0 1.11328125 0 1.11328125 0 0 Z " fill="#AC7EE3" transform="translate(274,551)"/>
<path d="M0 0 C5.53011927 -0.30164287 9.62053384 0.29730059 14.8125 2.19921875 C17.83286871 3.30488944 20.90114198 4.14286906 24 5 C23.67 6.32 23.34 7.64 23 9 C21.4840625 8.13375 21.4840625 8.13375 19.9375 7.25 C13.67194754 4.07756838 6.78443515 2.66077319 0 1 C0 0.67 0 0.34 0 0 Z " fill="#DAF5FD" transform="translate(820,496)"/>
<path d="M0 0 C0.33 2.31 0.66 4.62 1 7 C-0.65087847 6.40975852 -2.29562407 5.80233994 -3.9375 5.1875 C-4.85402344 4.85105469 -5.77054687 4.51460938 -6.71484375 4.16796875 C-9 3 -9 3 -10 0 C-3.375 -1.125 -3.375 -1.125 0 0 Z " fill="#F57FCE" transform="translate(278,417)"/>
<path d="M0 0 C-1.59043379 5.08938811 -4.7446951 8.87456643 -8 13 C-8 9.58900832 -7.50854594 6.36911686 -7 3 C-6.34 3 -5.68 3 -5 3 C-4.67 2.34 -4.34 1.68 -4 1 C-2 0 -2 0 0 0 Z " fill="#CD74E4" transform="translate(320,478)"/>
<path d="M0 0 C0.66 0 1.32 0 2 0 C1.34 6.6 0.68 13.2 0 20 C-0.66 19.67 -1.32 19.34 -2 19 C-2.05380578 16.20807795 -2.09357669 13.4171859 -2.125 10.625 C-2.14175781 9.8309375 -2.15851562 9.036875 -2.17578125 8.21875 C-2.19335473 6.14507985 -2.10335168 4.07116759 -2 2 C-1.34 1.34 -0.68 0.68 0 0 Z " fill="#DFF8FF" transform="translate(745,463)"/>
<path d="M0 0 C3.7910119 1.44950455 7.3874638 3.15172566 11 5 C8.14917204 5.95027599 5.78896626 6.29191216 2.8125 6.5625 C1.46091797 6.68818359 1.46091797 6.68818359 0.08203125 6.81640625 C-0.60503906 6.87699219 -1.29210937 6.93757812 -2 7 C-1.34 4.69 -0.68 2.38 0 0 Z " fill="#81A4FB" transform="translate(778,553)"/>
<path d="M0 0 C0.66 0 1.32 0 2 0 C7.28199678 9.17275334 6.37738963 18.78951389 6 29 C5.67 29 5.34 29 5 29 C4.94392578 27.65808594 4.94392578 27.65808594 4.88671875 26.2890625 C4.39098278 17.1714087 3.2562054 9.14390816 -1 1 C-0.67 0.67 -0.34 0.34 0 0 Z " fill="#E3FAFD" transform="translate(858,515)"/>
<path d="M0 0 C2.171875 0.20703125 2.171875 0.20703125 4.75 0.8125 C5.63945313 1.01230469 6.52890625 1.21210937 7.4453125 1.41796875 C8.28835938 1.61003906 9.13140625 1.80210937 10 2 C11.99810662 2.34450114 13.99722415 2.68377223 16 3 C15.67 3.99 15.34 4.98 15 6 C10.25 7.125 10.25 7.125 8 6 C8 5.34 8 4.68 8 4 C4.7 3.34 1.4 2.68 -2 2 C-1.34 1.34 -0.68 0.68 0 0 Z " fill="#EEFAFB" transform="translate(774,518)"/>
<path d="M0 0 C0.99 0.33 1.98 0.66 3 1 C3.33 2.65 3.66 4.3 4 6 C5.32 6 6.64 6 8 6 C10 9 10 9 9.625 11.6875 C9.41875 12.450625 9.2125 13.21375 9 14 C8.34 14 7.68 14 7 14 C5.52734375 12.20703125 5.52734375 12.20703125 3.9375 9.8125 C3.41027344 9.03519531 2.88304687 8.25789063 2.33984375 7.45703125 C0.96190733 4.93014494 0.40767177 2.83357045 0 0 Z " fill="#6B9FE9" transform="translate(747,492)"/>
<path d="M0 0 C-0.33 0.99 -0.66 1.98 -1 3 C-2.9216767 3.23599538 -4.84343215 3.47137125 -6.765625 3.703125 C-8.78999262 3.97209692 -10.80275693 4.32508732 -12.8125 4.6875 C-16 5 -16 5 -19 3 C-16.77228658 2.49356447 -14.54275924 1.9951038 -12.3125 1.5 C-10.45044922 1.08234375 -10.45044922 1.08234375 -8.55078125 0.65625 C-5.57601782 0.10645874 -3.00631398 -0.13795705 0 0 Z " fill="#E2F8FC" transform="translate(849,475)"/>
<path d="M0 0 C0.66 0 1.32 0 2 0 C2.33 1.32 2.66 2.64 3 4 C3.99 3.34 4.98 2.68 6 2 C4.12906079 6.36552483 1.68423608 9.1373425 -2.5625 11.3125 C-5 12 -5 12 -8 11 C-6.01388388 9.01388388 -4.55856751 8.08545288 -2 7 C-1.01 7 -0.02 7 1 7 C0.34 5.02 -0.32 3.04 -1 1 C-0.67 0.67 -0.34 0.34 0 0 Z " fill="#BB6BD8" transform="translate(393,403)"/>
<path d="M0 0 C0.33 0 0.66 0 1 0 C1.43494462 4.43643516 1.54001196 6.32863378 -1.3125 9.875 C-4 12 -4 12 -7 13 C-7.33 14.98 -7.66 16.96 -8 19 C-8.66 19 -9.32 19 -10 19 C-10.69921875 17.203125 -10.69921875 17.203125 -11 15 C-9.70703125 13.359375 -9.70703125 13.359375 -7.8125 11.75 C-3.95147226 8.19013243 -2.10040813 4.78893053 0 0 Z " fill="#F5EDFD" transform="translate(547,555)"/>
<path d="M0 0 C0.66 0 1.32 0 2 0 C2.06058594 0.69867187 2.12117187 1.39734375 2.18359375 2.1171875 C2.26738281 3.02726563 2.35117188 3.93734375 2.4375 4.875 C2.55931641 6.23238281 2.55931641 6.23238281 2.68359375 7.6171875 C2.86989285 10.01110861 2.86989285 10.01110861 4 12 C3.0625 14.125 3.0625 14.125 2 16 C1.34 16 0.68 16 0 16 C0 10.72 0 5.44 0 0 Z " fill="#CF8FF2" transform="translate(180,536)"/>
<path d="M0 0 C0.33 0 0.66 0 1 0 C1.10812003 2.75105422 1.18734945 5.49785087 1.25 8.25 C1.28351563 9.02730469 1.31703125 9.80460937 1.3515625 10.60546875 C1.45154648 16.45453185 1.45154648 16.45453185 -0.953125 19.359375 C-1.62859375 19.90078125 -2.3040625 20.4421875 -3 21 C-3.33 21.99 -3.66 22.98 -4 24 C-4.66 24 -5.32 24 -6 24 C-5.731875 23.21625 -5.46375 22.4325 -5.1875 21.625 C-2.82133445 14.40196832 -0.70323442 7.59493177 0 0 Z " fill="#FCE5FD" transform="translate(326,456)"/>
<path d="M0 0 C0.66 0 1.32 0 2 0 C2 2.31 2 4.62 2 7 C2.66 7 3.32 7 4 7 C4.90413673 10.83724172 5.10576898 14.37502274 5.0625 18.3125 C5.05347656 19.38113281 5.04445313 20.44976562 5.03515625 21.55078125 C5.02355469 22.35902344 5.01195312 23.16726563 5 24 C4.67 24 4.34 24 4 24 C3.70996094 22.38931641 3.70996094 22.38931641 3.4140625 20.74609375 C3.15122282 19.30986267 2.88819176 17.8736666 2.625 16.4375 C2.49867188 15.73302734 2.37234375 15.02855469 2.2421875 14.30273438 C1.40718633 9.77285303 0.33276044 5.40969867 -1 1 C-0.67 0.67 -0.34 0.34 0 0 Z " fill="#FBDEFA" transform="translate(322,420)"/>
<path d="M0 0 C1.98 0.66 3.96 1.32 6 2 C0.12727938 5.91514708 -7.10483495 5.13004726 -13.9375 5.0625 C-14.81212891 5.05798828 -15.68675781 5.05347656 -16.58789062 5.04882812 C-18.72529047 5.03714834 -20.86265463 5.01921689 -23 5 C-23 4.67 -23 4.34 -23 4 C-21.91460937 3.93941406 -20.82921875 3.87882813 -19.7109375 3.81640625 C-18.26561514 3.73193936 -16.82030318 3.64729449 -15.375 3.5625 C-14.66214844 3.52318359 -13.94929688 3.48386719 -13.21484375 3.44335938 C-9.09547303 3.19770883 -5.03077746 2.93638061 -1 2 C-0.67 1.34 -0.34 0.68 0 0 Z " fill="#8A73D8" transform="translate(503,580)"/>
<path d="M0 0 C2.125 0.9375 2.125 0.9375 4 2 C2.8141763 5.37503669 1.72426311 7.64722731 -1 10 C-1.99 9.67 -2.98 9.34 -4 9 C-3.67 8.01 -3.34 7.02 -3 6 C-2.34 6 -1.68 6 -1 6 C-1.33 4.35 -1.66 2.7 -2 1 C-1.34 0.67 -0.68 0.34 0 0 Z " fill="#64A8F3" transform="translate(781,457)"/>
<path d="M0 0 C2 2 2 2 2.23046875 4.86328125 C2.21628906 6.00152344 2.20210937 7.13976562 2.1875 8.3125 C2.18105469 9.44300781 2.17460938 10.57351563 2.16796875 11.73828125 C2.02015783 14.60856308 1.65474022 17.20818772 1 20 C0.34 20 -0.32 20 -1 20 C-1 19.34 -1 18.68 -1 18 C-2.32 18.33 -3.64 18.66 -5 19 C-4.6390625 18.55011719 -4.278125 18.10023438 -3.90625 17.63671875 C0.3170904 11.78269969 0.58595797 7.08358078 0 0 Z " fill="#9472DD" transform="translate(517,535)"/>
<path d="M0 0 C4.65987191 3.0657052 5.85485202 5.58657319 7 11 C6.34 11 5.68 11 5 11 C5 11.66 5 12.32 5 13 C4.01 12.67 3.02 12.34 2 12 C1.375 9.625 1.375 9.625 1 7 C1.66 6.34 2.32 5.68 3 5 C2.2575 4.319375 2.2575 4.319375 1.5 3.625 C0 2 0 2 0 0 Z " fill="#63AAF3" transform="translate(847,448)"/>
<path d="M0 0 C-1.32 0.33 -2.64 0.66 -4 1 C-4 1.66 -4 2.32 -4 3 C-10.435 3.495 -10.435 3.495 -17 4 C-17.33 3.34 -17.66 2.68 -18 2 C-11.85221129 0.3722167 -6.35987804 -0.20190089 0 0 Z " fill="#F5E0FC" transform="translate(493,458)"/>
<path d="M0 0 C1.45945288 0.08708669 2.91765868 0.19526907 4.375 0.3125 C5.59316406 0.39951172 5.59316406 0.39951172 6.8359375 0.48828125 C9 1 9 1 11 4 C11.69313908 5.65583225 12.36474424 7.32110979 13 9 C9.26130751 9 8.63449295 8.09514308 5.9375 5.625 C5.24527344 4.99851562 4.55304687 4.37203125 3.83984375 3.7265625 C2.53923035 2.50602933 1.26120903 1.26120903 0 0 Z " fill="#EEF9FA" transform="translate(845,505)"/>
<path d="M0 0 C0.33 0.66 0.66 1.32 1 2 C0.67 2.99 0.34 3.98 0 5 C0.66 5 1.32 5 2 5 C1 8 1 8 -1 11 C-1.4603764 14.19806665 -1.4603764 14.19806665 -1.625 17.6875 C-1.69976563 18.86699219 -1.77453125 20.04648437 -1.8515625 21.26171875 C-1.92503906 22.61716797 -1.92503906 22.61716797 -2 24 C-2.33 24 -2.66 24 -3 24 C-3.55353075 7.1070615 -3.55353075 7.1070615 0 0 Z " fill="#5F96DB" transform="translate(748,461)"/>
<path d="M0 0 C0.66 0.33 1.32 0.66 2 1 C2 2.65 2 4.3 2 6 C1.071875 6.433125 0.14375 6.86625 -0.8125 7.3125 C-3.47184073 8.72038627 -5.08105905 9.76123556 -7 12 C-7 8.19654123 -5.86213669 7.22298985 -3.5 4.3125 C-2.8503125 3.50425781 -2.200625 2.69601562 -1.53125 1.86328125 C-1.0259375 1.24839844 -0.520625 0.63351562 0 0 Z " fill="#F0F0FD" transform="translate(678,561)"/>
<path d="M0 0 C6.625 0.75 6.625 0.75 10 3 C8.8553125 3.2165625 8.8553125 3.2165625 7.6875 3.4375 C4.91827092 3.9632594 4.91827092 3.9632594 2 5 C-0.73812607 4.54451823 -3.3201176 3.74685247 -6 3 C-6 2.67 -6 2.34 -6 2 C-4.02 2 -2.04 2 0 2 C0 1.34 0 0.68 0 0 Z " fill="#71A0F1" transform="translate(810,521)"/>
<path d="M0 0 C-6.75 4 -6.75 4 -9 4 C-9 4.99 -9 5.98 -9 7 C-10.65 7.66 -12.3 8.32 -14 9 C-14.66 8.34 -15.32 7.68 -16 7 C-14.58531689 6.03874097 -13.1681636 5.08111675 -11.75 4.125 C-10.96109375 3.59132813 -10.1721875 3.05765625 -9.359375 2.5078125 C-3.57207719 -1.1906924 -3.57207719 -1.1906924 0 0 Z " fill="#659EE2" transform="translate(776,439)"/>
<path d="M0 0 C1.32 0.33 2.64 0.66 4 1 C4 1.99 4 2.98 4 4 C6.475 4.99 6.475 4.99 9 6 C9 6.66 9 7.32 9 8 C9.66 8 10.32 8 11 8 C11 8.99 11 9.98 11 11 C7.22222222 9.48888889 7.22222222 9.48888889 6.0625 6.9375 C5.711875 6.298125 5.36125 5.65875 5 5 C2.44480079 4.18828772 2.44480079 4.18828772 0 4 C0 2.68 0 1.36 0 0 Z " fill="#F679D3" transform="translate(301,403)"/>
<path d="M0 0 C1.4540625 0.7425 1.4540625 0.7425 2.9375 1.5 C-0.48156007 2.63968669 -1.6170959 2.28304639 -5.0625 1.5 C-10.56153249 0.37982671 -13.87591951 0.70057412 -19.0625 2.5 C-14.11589021 -2.91771548 -6.46909023 -2.79317134 0 0 Z " fill="#BC6DCC" transform="translate(389.0625,373.5)"/>
<path d="M0 0 C0.66 1.32 1.32 2.64 2 4 C1.01 5.485 1.01 5.485 0 7 C-1.32 7 -2.64 7 -4 7 C-4 7.66 -4 8.32 -4 9 C-4.99 9 -5.98 9 -7 9 C-7 7.35 -7 5.7 -7 4 C-5.824375 3.8453125 -5.824375 3.8453125 -4.625 3.6875 C-1.66954819 3.22404978 -1.66954819 3.22404978 0 0 Z " fill="#D57DED" transform="translate(311,484)"/>
<path d="M0 0 C2.64 0.33 5.28 0.66 8 1 C8 1.66 8 2.32 8 3 C8.66 3 9.32 3 10 3 C10 3.99 10 4.98 10 6 C11.32 6.66 12.64 7.32 14 8 C10.0397381 7.43726296 7.47032673 6.26476935 4.1875 4 C3.39730469 3.46375 2.60710937 2.9275 1.79296875 2.375 C1.20128906 1.92125 0.60960937 1.4675 0 1 C0 0.67 0 0.34 0 0 Z " fill="#9A77E4" transform="translate(442,571)"/>
<path d="M0 0 C0.66 0 1.32 0 2 0 C4.00270089 3.00405134 4.34388613 4.5554022 5 8 C5.5259375 9.299375 5.5259375 9.299375 6.0625 10.625 C7 13 7 13 7 16 C2.99567803 11.71951789 0 6.00016083 0 0 Z " fill="#F5EEFE" transform="translate(617,531)"/>
<path d="M0 0 C1.63542086 3.20970449 3.14031997 6.46807572 4.625 9.75 C5.07101562 10.73484375 5.51703125 11.7196875 5.9765625 12.734375 C6.31429687 13.48203125 6.65203125 14.2296875 7 15 C5.02 15 3.04 15 1 15 C1.020625 13.88625 1.04125 12.7725 1.0625 11.625 C1.26380718 8.16784079 1.26380718 8.16784079 0 6 C-0.039992 4.00039988 -0.04346799 1.99952758 0 0 Z " fill="#E3F6FE" transform="translate(745,488)"/>
<path d="M0 0 C0.85207031 0.16628906 1.70414063 0.33257812 2.58203125 0.50390625 C7.11554556 1.16191347 11.50565791 0.97157849 16.07421875 0.83984375 C19 1 19 1 22 3 C21.01 2.98839844 20.02 2.97679687 19 2.96484375 C12.26199467 2.9102781 5.67000397 2.91101976 -1 4 C-0.67 2.68 -0.34 1.36 0 0 Z " fill="#6097E0" transform="translate(789,456)"/>
<path d="M0 0 C-0.67097672 4.19360449 -2.8558394 7.40334352 -5 11 C-5.99 10.01 -6.98 9.02 -8 8 C-4 0 -4 0 0 0 Z " fill="#E6F8FD" transform="translate(753,451)"/>
<path d="M0 0 C0.66 0.33 1.32 0.66 2 1 C1.01 1.33 0.02 1.66 -1 2 C-1 2.66 -1 3.32 -1 4 C-2.98 4.99 -2.98 4.99 -5 6 C-4.67 7.98 -4.34 9.96 -4 12 C-5.98 11.34 -7.96 10.68 -10 10 C-7.59983652 5.05848696 -4.47726973 2.95668756 0 0 Z " fill="#AF6EE0" transform="translate(449,443)"/>
<path d="M0 0 C5.28 0.66 10.56 1.32 16 2 C16 2.66 16 3.32 16 4 C13.70800823 3.85936865 11.41640814 3.71234057 9.125 3.5625 C7.84882813 3.48128906 6.57265625 3.40007813 5.2578125 3.31640625 C2 3 2 3 0 2 C0 1.34 0 0.68 0 0 Z " fill="#FBECFD" transform="translate(472,521)"/>
<path d="M0 0 C4.53099675 0.54371961 7.83672603 1.71302455 11.8125 3.9375 C12.76769531 4.46214844 13.72289062 4.98679687 14.70703125 5.52734375 C17 7 17 7 18 9 C17.01 9.33 16.02 9.66 15 10 C13.203125 8.890625 13.203125 8.890625 11.25 7.25 C7.63054199 4.36783899 4.31991276 2.61996728 0 1 C0 0.67 0 0.34 0 0 Z " fill="#5B9ADF" transform="translate(826,437)"/>
<path d="M0 0 C0.33 0.99 0.66 1.98 1 3 C3.97 3.495 3.97 3.495 7 4 C7.33 5.98 7.66 7.96 8 10 C6.2063257 8.8782037 4.4151227 7.75245517 2.625 6.625 C1.12839844 5.68527344 1.12839844 5.68527344 -0.3984375 4.7265625 C-3 3 -3 3 -5 1 C-2 0 -2 0 0 0 Z " fill="#FCE6FA" transform="translate(301,396)"/>
<path d="M0 0 C-0.99 0.495 -0.99 0.495 -2 1 C-3.0745356 2.7763932 -3.0745356 2.7763932 -3 4 C-3.33 4.99 -3.66 5.98 -4 7 C-7.465 5.02 -7.465 5.02 -11 3 C-7.11595442 0.41063628 -4.5725325 -0.12358196 0 0 Z " fill="#83A2FA" transform="translate(768,569)"/>
<path d="M0 0 C0.33 0.99 0.66 1.98 1 3 C0.34 3 -0.32 3 -1 3 C-1.20625 3.556875 -1.4125 4.11375 -1.625 4.6875 C-3.62143247 8.04513643 -5.78478875 9.74935212 -9 12 C-11.1953125 11.63671875 -11.1953125 11.63671875 -13 11 C-12.48050781 10.62488281 -11.96101562 10.24976563 -11.42578125 9.86328125 C-7.27747551 6.81914561 -3.52678314 3.74720709 0 0 Z " fill="#E3F5FE" transform="translate(854,564)"/>
<path d="M0 0 C0.268125 0.969375 0.53625 1.93875 0.8125 2.9375 C1.204375 3.948125 1.59625 4.95875 2 6 C2.99 6.33 3.98 6.66 5 7 C4.67 7.66 4.34 8.32 4 9 C0.125 8.125 0.125 8.125 -1 7 C-1.99 7.495 -1.99 7.495 -3 8 C-3.33 5.69 -3.66 3.38 -4 1 C-2 0 -2 0 0 0 Z " fill="#C181F9" transform="translate(308,544)"/>
<path d="M0 0 C0 0.33 0 0.66 0 1 C-1.35544922 1.29003906 -1.35544922 1.29003906 -2.73828125 1.5859375 C-3.91777344 1.84632813 -5.09726562 2.10671875 -6.3125 2.375 C-7.48425781 2.63023437 -8.65601563 2.88546875 -9.86328125 3.1484375 C-13.12920445 3.85695531 -13.12920445 3.85695531 -16 6 C-16 5.34 -16 4.68 -16 4 C-17.65 4 -19.3 4 -21 4 C-17.80734232 1.87156155 -15.92624957 1.46755654 -12.1875 0.875 C-11.17042969 0.70742188 -10.15335938 0.53984375 -9.10546875 0.3671875 C-6.03757182 0.00444245 -3.0859734 -0.06457941 0 0 Z " fill="#7592E0" transform="translate(760,541)"/>
<path d="M0 0 C0.33 0.99 0.66 1.98 1 3 C-1.73456852 7.81284059 -5.33552232 11.87135515 -9 16 C-9.99 15.67 -10.98 15.34 -12 15 C-11.32904297 14.38125 -11.32904297 14.38125 -10.64453125 13.75 C-6.25326061 9.55535342 -2.97928993 5.28583698 0 0 Z " fill="#FCE0FE" transform="translate(319,480)"/>
<path d="M0 0 C0.66 0 1.32 0 2 0 C3.125 7.5 3.125 7.5 2 12 C-1.63 11.67 -5.26 11.34 -9 11 C-9 10.67 -9 10.34 -9 10 C-5.7 9.67 -2.4 9.34 1 9 C0.67 6.03 0.34 3.06 0 0 Z " fill="#DEF6FD" transform="translate(859,464)"/>
<path d="M0 0 C1.43861294 0.08746284 2.87597508 0.19565348 4.3125 0.3125 C5.11300781 0.37050781 5.91351562 0.42851562 6.73828125 0.48828125 C9.47684402 1.10788699 10.32112526 1.76970599 12 4 C13.1875 6.6875 13.1875 6.6875 14 9 C13.40832031 8.59007812 12.81664062 8.18015625 12.20703125 7.7578125 C11.41683594 7.21898437 10.62664063 6.68015625 9.8125 6.125 C9.03519531 5.59132813 8.25789062 5.05765625 7.45703125 4.5078125 C5.0323391 3.01984561 2.6666501 1.97571922 0 1 C0 0.67 0 0.34 0 0 Z " fill="#659DE0" transform="translate(812,459)"/>
<path d="M0 0 C7.47394574 -0.37369729 13.82140651 0.95938459 21 3 C21 3.33 21 3.66 21 4 C20.071875 3.835 19.14375 3.67 18.1875 3.5 C13.92516686 2.85498435 9.74823976 3.05385454 5.453125 3.2578125 C3 3 3 3 1.171875 1.4921875 C0.78515625 0.99976563 0.3984375 0.50734375 0 0 Z " fill="#D4F0FC" transform="translate(796,458)"/>
<path d="M0 0 C4.95 0 9.9 0 15 0 C14 2 14 2 12.234375 2.62109375 C9.85849677 3.02399618 7.65820483 3.09791478 5.25 3.0625 C4.45078125 3.05347656 3.6515625 3.04445313 2.828125 3.03515625 C2.22484375 3.02355469 1.6215625 3.01195312 1 3 C0.67 2.01 0.34 1.02 0 0 Z " fill="#62B0FE" transform="translate(797,435)"/>
<path d="M0 0 C5.59282842 1.36410449 8.91193811 4.15383526 13 8 C12.01 8.66 11.02 9.32 10 10 C9.6596875 8.7934375 9.6596875 8.7934375 9.3125 7.5625 C8.879375 6.716875 8.44625 5.87125 8 5 C6.34385343 4.61781233 4.67542976 4.28604898 3 4 C1.1875 1.9375 1.1875 1.9375 0 0 Z " fill="#FEE6FD" transform="translate(271,422)"/>
<path d="M0 0 C0.33 0.66 0.66 1.32 1 2 C1.66 2.33 2.32 2.66 3 3 C2.34 3.66 1.68 4.32 1 5 C1.32326553 8.59679066 1.32326553 8.59679066 2 12 C-0.61500768 9.63404067 -2.38999603 7.13950774 -4 4 C-3.67 3.34 -3.34 2.68 -3 2 C-2.01 2 -1.02 2 0 2 C0 1.34 0 0.68 0 0 Z " fill="#C57ED5" transform="translate(253,507)"/>
<path d="M0 0 C2.1793144 1.75864246 2.93686419 2.69396 3.51171875 5.48046875 C3.56972656 6.37378906 3.62773437 7.26710938 3.6875 8.1875 C3.75324219 9.08855469 3.81898438 9.98960937 3.88671875 10.91796875 C3.92410156 11.60503906 3.96148437 12.29210937 4 13 C3.01 13 2.02 13 1 13 C-0.10228696 8.59085217 -0.07654536 4.51617599 0 0 Z " fill="#E476F2" transform="translate(361,389)"/>
<path d="M0 0 C7 9.1 7 9.1 7 12 C6.34 12 5.68 12 5 12 C4.67 12.66 4.34 13.32 4 14 C3.80664062 13.43410156 3.61328125 12.86820313 3.4140625 12.28515625 C3.15367187 11.55167969 2.89328125 10.81820312 2.625 10.0625 C2.36976563 9.33160156 2.11453125 8.60070312 1.8515625 7.84765625 C1.14728587 5.81317884 1.14728587 5.81317884 -1 5 C-0.67 3.35 -0.34 1.7 0 0 Z " fill="#E8F3FD" transform="translate(742,554)"/>
<path d="M0 0 C2.76544722 3.45680903 4.84921278 7.14341602 7 11 C6.01 10.67 5.02 10.34 4 10 C3.01 10.99 2.02 11.98 1 13 C1.020625 12.21625 1.04125 11.4325 1.0625 10.625 C1.18684063 8.01885039 1.18684063 8.01885039 0 6 C-0.039992 4.00039988 -0.04346799 1.99952758 0 0 Z " fill="#8F7EE1" transform="translate(618,538)"/>
<path d="M0 0 C1.98 0 3.96 0 6 0 C6.98120464 3.05263664 6.98120464 4.94736336 6 8 C5.01 7.67 4.02 7.34 3 7 C2.25 5.0625 2.25 5.0625 2 3 C2.33 2.34 2.66 1.68 3 1 C2.01 0.67 1.02 0.34 0 0 Z " fill="#799BE8" transform="translate(766,539)"/>
<path d="M0 0 C0.68359375 1.796875 0.68359375 1.796875 1 4 C-0.21484375 5.703125 -0.21484375 5.703125 -1.9375 7.25 C-2.50339844 7.77078125 -3.06929688 8.2915625 -3.65234375 8.828125 C-4.09707031 9.21484375 -4.54179687 9.6015625 -5 10 C-5.99 9.67 -6.98 9.34 -8 9 C-5.50174717 5.78796065 -2.9297008 2.82506863 0 0 Z " fill="#E37CE8" transform="translate(287,468)"/>
<path d="M0 0 C2.52588702 2.36292656 3.88820837 3.66462511 5 7 C1 7 1 7 -2 5 C-1.34 3.35 -0.68 1.7 0 0 Z " fill="#B484FD" transform="translate(322,568)"/>
<path d="M0 0 C0.99 0.66 1.98 1.32 3 2 C2.01 2 1.02 2 0 2 C0.99 5.3 1.98 8.6 3 12 C1.68 11.67 0.36 11.34 -1 11 C-2.25 3.375 -2.25 3.375 0 0 Z " fill="#E9F5FE" transform="translate(739,542)"/>
<path d="M0 0 C3 1 3 1 4.75 3.4375 C5.36875 4.7059375 5.36875 4.7059375 6 6 C5.67 6.66 5.34 7.32 5 8 C2.525 7.01 2.525 7.01 0 6 C0 6.66 0 7.32 0 8 C-0.66 7.67 -1.32 7.34 -2 7 C-1.34 4.69 -0.68 2.38 0 0 Z " fill="#B87CE2" transform="translate(298,528)"/>
<path d="M0 0 C1 3 1 3 -0.00390625 5.04296875 C-1.57351747 7.20265938 -3.05947149 9.16228095 -5 11 C-8.375 11.5 -8.375 11.5 -11 11 C-8.702779 9.25728062 -6.40133271 7.60088848 -4 6 C-2.9590934 4.35857037 -1.95495674 2.69287785 -1 1 C-0.67 0.67 -0.34 0.34 0 0 Z " fill="#D97AD7" transform="translate(284,468)"/>
<path d="M0 0 C3.6875 0.875 3.6875 0.875 7 2 C6.01 2.33 5.02 2.66 4 3 C4 3.66 4 4.32 4 5 C1.69 4.67 -0.62 4.34 -3 4 C-3 3.34 -3 2.68 -3 2 C-2.01 1.34 -1.02 0.68 0 0 Z " fill="#BD76F9" transform="translate(467,457)"/>
<path d="M0 0 C0.33 1.32 0.66 2.64 1 4 C-3.56087444 4.12002301 -5.98213116 3.00893442 -10 1 C-6.21812119 -0.83691257 -4.05431692 -1.15837626 0 0 Z " fill="#66ABF1" transform="translate(826,436)"/>
<path d="M0 0 C-5.73230171 2.85288164 -10.59859065 4.53444296 -17 5 C-14.35029405 3.23352937 -11.98501901 2.02985003 -9.0625 0.8125 C-8.20785156 0.44769531 -7.35320313 0.08289063 -6.47265625 -0.29296875 C-3.81725523 -1.05225403 -2.55820275 -0.93187432 0 0 Z " fill="#8D84DA" transform="translate(660,579)"/>
<path d="M0 0 C3.3 0.99 6.6 1.98 10 3 C10 3.66 10 4.32 10 5 C8.02 5.33 6.04 5.66 4 6 C3.67 5.01 3.34 4.02 3 3 C1.35 2.67 -0.3 2.34 -2 2 C-1.34 1.34 -0.68 0.68 0 0 Z " fill="#9C75E8" transform="translate(468,554)"/>
<path d="M0 0 C2.74277578 3.19990508 4.6302836 6.00499382 6 10 C5.21625 9.505 4.4325 9.01 3.625 8.5 C1.21447673 6.83462035 1.21447673 6.83462035 -1 7 C-0.67 4.69 -0.34 2.38 0 0 Z " fill="#FAEEFE" transform="translate(274,552)"/>
<path d="M0 0 C0.66 0 1.32 0 2 0 C2.33 2.31 2.66 4.62 3 7 C2.01 7.66 1.02 8.32 0 9 C-2 6 -2 6 -2 3 C-1.34 3 -0.68 3 0 3 C0 2.01 0 1.02 0 0 Z " fill="#C782F6" transform="translate(269,532)"/>
<path d="M0 0 C0.99 0 1.98 0 3 0 C3 0.66 3 1.32 3 2 C3.66 2.33 4.32 2.66 5 3 C6.1875 4.8125 6.1875 4.8125 7 7 C6.55078125 9.13671875 6.55078125 9.13671875 6 11 C4.99735282 9.35577799 3.99794896 7.70957779 3 6.0625 C2.443125 5.14597656 1.88625 4.22945312 1.3125 3.28515625 C0 1 0 1 0 0 Z " fill="#FCE7FD" transform="translate(297,523)"/>
<path d="M0 0 C0.66 0 1.32 0 2 0 C2 0.66 2 1.32 2 2 C2.66 2 3.32 2 4 2 C5.37562854 3.28965176 6.70766393 4.62689293 8 6 C8.66 6.66 9.32 7.32 10 8 C8.02 8.99 8.02 8.99 6 10 C4.99723227 8.52270825 3.99785546 7.04311423 3 5.5625 C2.443125 4.73878906 1.88625 3.91507812 1.3125 3.06640625 C0 1 0 1 0 0 Z " fill="#F6E8FE" transform="translate(538,450)"/>
<path d="M0 0 C6.625 -0.25 6.625 -0.25 10 2 C9.34 2 8.68 2 8 2 C8 2.66 8 3.32 8 4 C6.02 4.33 4.04 4.66 2 5 C2 3.68 2 2.36 2 1 C1.34 0.67 0.68 0.34 0 0 Z " fill="#F87ECB" transform="translate(278,394)"/>
<path d="M0 0 C0.33 0 0.66 0 1 0 C1.36923077 7.38461538 1.36923077 7.38461538 -0.5 10.5 C-0.995 10.995 -1.49 11.49 -2 12 C-2.79953138 8.71303767 -3.09658936 7.28976808 -2 4 C-1.34 4 -0.68 4 0 4 C0 2.68 0 1.36 0 0 Z " fill="#DCF1FE" transform="translate(830,538)"/>
<path d="M0 0 C1.65 0 3.3 0 5 0 C5 0.99 5 1.98 5 3 C8.465 4.98 8.465 4.98 12 7 C11.01 7.33 10.02 7.66 9 8 C6.9921875 6.85546875 6.9921875 6.85546875 4.875 5.1875 C4.17117188 4.64480469 3.46734375 4.10210937 2.7421875 3.54296875 C1 2 1 2 0 0 Z " fill="#A36CE6" transform="translate(441,506)"/>
<path d="M0 0 C2.97 0.33 5.94 0.66 9 1 C9 1.33 9 1.66 9 2 C3.19233704 3.5056904 -1.9981863 4.21824777 -8 4 C-8 3.67 -8 3.34 -8 3 C-5.36 2.67 -2.72 2.34 0 2 C0 1.34 0 0.68 0 0 Z " fill="#9371DD" transform="translate(528,473)"/>
<path d="M0 0 C0.66 0.99 1.32 1.98 2 3 C1.71125 3.556875 1.4225 4.11375 1.125 4.6875 C-0.0413253 7.08494645 -1.0339881 9.51596939 -2 12 C-2.33 12 -2.66 12 -3 12 C-3 8.7 -3 5.4 -3 2 C-2.34 2 -1.68 2 -1 2 C-0.67 1.34 -0.34 0.68 0 0 Z " fill="#DA7CE9" transform="translate(323,463)"/>
<path d="M0 0 C-3.3 2.64 -6.6 5.28 -10 8 C-10.33 7.01 -10.66 6.02 -11 5 C-10.34 5 -9.68 5 -9 5 C-9 4.34 -9 3.68 -9 3 C-8.34 3 -7.68 3 -7 3 C-7 2.34 -7 1.68 -7 1 C-3.375 -1.125 -3.375 -1.125 0 0 Z " fill="#D8F4FD" transform="translate(765,443)"/>
<path d="M0 0 C2.475 0.99 2.475 0.99 5 2 C5 2.66 5 3.32 5 4 C5.66 4.33 6.32 4.66 7 5 C8.6875 7.875 8.6875 7.875 10 11 C9.67 11.99 9.34 12.98 9 14 C8.60167969 13.32453125 8.20335937 12.6490625 7.79296875 11.953125 C7.26316406 11.06109375 6.73335938 10.1690625 6.1875 9.25 C5.66542969 8.36828125 5.14335937 7.4865625 4.60546875 6.578125 C3.17453304 4.28027203 1.66105577 2.13493054 0 0 Z " fill="#D074B7" transform="translate(279,425)"/>
<path d="M0 0 C0.66 0.33 1.32 0.66 2 1 C2 1.66 2 2.32 2 3 C2.5775 3.268125 3.155 3.53625 3.75 3.8125 C6.0325868 5.01719859 7.9737942 6.40798115 10 8 C6.66666667 7.33333333 3.33333333 6.66666667 0 6 C0 4 0 2 0 0 Z " fill="#A46CE1" transform="translate(465,482)"/>
<path d="M0 0 C-4.29 1.65 -8.58 3.3 -13 5 C-13 4.01 -13 3.02 -13 2 C-12.34 2 -11.68 2 -11 2 C-11 1.34 -11 0.68 -11 0 C-6.79405774 -0.72795155 -4.19895255 -1.04973814 0 0 Z " fill="#DDF5FE" transform="translate(779,437)"/>
<path d="M0 0 C0.99 0 1.98 0 3 0 C3 1.32 3 2.64 3 4 C2.34 4 1.68 4 1 4 C1.33 5.65 1.66 7.3 2 9 C-0.79872437 6.47211993 -2.45773019 4.79588866 -3 1 C-2.01 1.33 -1.02 1.66 0 2 C0 1.34 0 0.68 0 0 Z " fill="#BD79E0" transform="translate(266,531)"/>
<path d="M0 0 C1.65 0 3.3 0 5 0 C4.67 0.66 4.34 1.32 4 2 C5.32 2.99 6.64 3.98 8 5 C6.41532272 4.71572583 4.8322943 4.42225182 3.25 4.125 C1.92742187 3.88136719 1.92742187 3.88136719 0.578125 3.6328125 C-1.86947744 3.03203736 -3.80599857 2.22002883 -6 1 C-4.02 1 -2.04 1 0 1 C0 0.67 0 0.34 0 0 Z " fill="#966CE1" transform="translate(501,523)"/>
<path d="M0 0 C2.5 1.375 2.5 1.375 5 3 C5 3.66 5 4.32 5 5 C5.66 5 6.32 5 7 5 C6.67 6.65 6.34 8.3 6 10 C3.25722422 6.80009492 1.3697164 3.99500618 0 0 Z " fill="#B87CD4" transform="translate(255,519)"/>
<path d="M0 0 C1.32 0 2.64 0 4 0 C5.88391785 3.26545761 6.49287967 6.28111761 7 10 C4.3513141 6.80331012 2.06007659 3.60513403 0 0 Z " fill="#FBEAFC" transform="translate(289,511)"/>
<path d="M0 0 C3.81684226 1.55500981 6.19195732 4.03595495 9 7 C4.71193127 6.52354792 2.73352513 5.34097516 0 2 C0 1.34 0 0.68 0 0 Z " fill="#DEF6FE" transform="translate(817,462)"/>
<path d="M0 0 C0 0.66 0 1.32 0 2 C-4.455 2.495 -4.455 2.495 -9 3 C-8.34 2.67 -7.68 2.34 -7 2 C-7 1.34 -7 0.68 -7 0 C-3.86650268 -1.04449911 -3.01031744 -0.93423645 0 0 Z " fill="#BD73F8" transform="translate(484,437)"/>
<path d="M0 0 C3.43595166 1.52708963 6.11912454 3.59927045 9 6 C8.67 6.99 8.34 7.98 8 9 C7.67 8.34 7.34 7.68 7 7 C6.34 7 5.68 7 5 7 C3.97895449 6.02149805 2.9793879 5.02019573 2 4 C1.34 3.67 0.68 3.34 0 3 C0 2.01 0 1.02 0 0 Z " fill="#DC77BC" transform="translate(305,404)"/>
<path d="M0 0 C1.1875 1.5625 1.1875 1.5625 2 4 C0.875 7.6875 0.875 7.6875 -1 11 C-3.1171875 11.70703125 -3.1171875 11.70703125 -5 12 C-4.72285156 11.46890625 -4.44570313 10.9378125 -4.16015625 10.390625 C-3.79792969 9.68421875 -3.43570312 8.9778125 -3.0625 8.25 C-2.52302734 7.20585937 -2.52302734 7.20585937 -1.97265625 6.140625 C-1.04441818 4.09775567 -0.46833422 2.18884624 0 0 Z " fill="#FBE3FE" transform="translate(402,397)"/>
<path d="M0 0 C1.06546953 3.1964086 1.07427838 5.65747276 1 9 C0.67 8.34 0.34 7.68 0 7 C-1.32 7 -2.64 7 -4 7 C-2.92598892 4.08482708 -2.22189824 2.22189824 0 0 Z " fill="#C383FB" transform="translate(279,544)"/>
<path d="M0 0 C1.98 0 3.96 0 6 0 C5.67 0.66 5.34 1.32 5 2 C4.34 2 3.68 2 3 2 C3.66 3.32 4.32 4.64 5 6 C2.525 5.01 2.525 5.01 0 4 C0 2.68 0 1.36 0 0 Z " fill="#C781E9" transform="translate(262,528)"/>
<path d="M0 0 C5.37992836 0.33990833 9.53273547 0.68557793 14 4 C12 5 12 5 9.1796875 4.22265625 C8.08914063 3.83980469 6.99859375 3.45695312 5.875 3.0625 C4.77929688 2.68222656 3.68359375 2.30195313 2.5546875 1.91015625 C1.71164062 1.60980469 0.86859375 1.30945313 0 1 C0 0.67 0 0.34 0 0 Z " fill="#D3F1FD" transform="translate(786,488)"/>
<path d="M0 0 C3.64775386 3.88309282 4.58525633 6.71201818 5 12 C2.74754119 9.31158141 1.11786042 7.35358125 0 4 C-0.66 3.67 -1.32 3.34 -2 3 C-1 1 -1 1 0 0 Z " fill="#9772DD" transform="translate(542,457)"/>
<path d="M0 0 C1.2077558 3.62326739 0.54311128 4.64146369 -1 8 C-1.99 8 -2.98 8 -4 8 C-4.33 6.68 -4.66 5.36 -5 4 C-3.35 3.34 -1.7 2.68 0 2 C0 1.34 0 0.68 0 0 Z " fill="#BF75FC" transform="translate(448,445)"/>
<path d="M0 0 C-0.33 0.99 -0.66 1.98 -1 3 C-3.31 3 -5.62 3 -8 3 C-8.33 3.66 -8.66 4.32 -9 5 C-9 4.34 -9 3.68 -9 3 C-10.32 2.67 -11.64 2.34 -13 2 C-11.20873548 1.66451233 -9.41697413 1.33167645 -7.625 1 C-6.62726563 0.814375 -5.62953125 0.62875 -4.6015625 0.4375 C-2 0 -2 0 0 0 Z " fill="#F2E9FE" transform="translate(512,582)"/>
<path d="M0 0 C3.25438355 1.62719177 3.70359632 4.73080811 5 8 C5.33 8.99 5.66 9.98 6 11 C2.67631776 9.89210592 2.38436907 9.51563783 0.75 6.625 C0.39421875 6.01914062 0.0384375 5.41328125 -0.328125 4.7890625 C-1 3 -1 3 0 0 Z " fill="#F7E5FD" transform="translate(313,546)"/>
<path d="M0 0 C0.66 0 1.32 0 2 0 C3.28317892 3.84953676 3.06643637 6.94738135 3 11 C1.5 10 1.5 10 0 8 C-0.27345479 5.28153765 -0.13491285 2.74322801 0 0 Z " fill="#F8E9FE" transform="translate(515,535)"/>
<path d="M0 0 C-1.1858237 3.37503669 -2.27573689 5.64722731 -5 8 C-5 7.01 -5 6.02 -5 5 C-5.66 4.34 -6.32 3.68 -7 3 C-6.34 3 -5.68 3 -5 3 C-4.67 2.34 -4.34 1.68 -4 1 C-2 0 -2 0 0 0 Z " fill="#C573D4" transform="translate(320,478)"/>
<path d="M0 0 C0.66 0.33 1.32 0.66 2 1 C-0.35684596 4.34920216 -3.06799526 7.14723863 -6 10 C-5.58578031 5.16743695 -3.53586014 3.17320782 0 0 Z " fill="#FDEBFE" transform="translate(471,462)"/>
<path d="M0 0 C0.99 0.33 1.98 0.66 3 1 C2.67 2.65 2.34 4.3 2 6 C1.34 5.67 0.68 5.34 0 5 C-0.66 5.99 -1.32 6.98 -2 8 C-2.125 5.125 -2.125 5.125 -2 2 C-1.34 1.34 -0.68 0.68 0 0 Z " fill="#D476DC" transform="translate(323,460)"/>
<path d="M0 0 C0.66 0.33 1.32 0.66 2 1 C2 1.99 2 2.98 2 4 C0.02 4.33 -1.96 4.66 -4 5 C-4.33 4.01 -4.66 3.02 -5 2 C-2.625 0.9375 -2.625 0.9375 0 0 Z " fill="#DB73F9" transform="translate(392,406)"/>
<path d="M0 0 C0.99 0 1.98 0 3 0 C3.33 0.99 3.66 1.98 4 3 C4.66 3 5.32 3 6 3 C6 3.66 6 4.32 6 5 C3.36 5 0.72 5 -2 5 C-1.34 3.35 -0.68 1.7 0 0 Z " fill="#B58AFC" transform="translate(209,576)"/>
<path d="M0 0 C0.33 0.66 0.66 1.32 1 2 C2.89533342 2.46523063 2.89533342 2.46523063 5.0625 2.625 C6.361875 2.74875 7.66125 2.8725 9 3 C9 3.33 9 3.66 9 4 C4.545 4.495 4.545 4.495 0 5 C-0.33 4.34 -0.66 3.68 -1 3 C-0.67 2.01 -0.34 1.02 0 0 Z " fill="#78A2FA" transform="translate(816,576)"/>
<path d="M0 0 C2.25245881 2.68841859 3.88213958 4.64641875 5 8 C4.01 8.33 3.02 8.66 2 9 C1.67 7.68 1.34 6.36 1 5 C0.34 5 -0.32 5 -1 5 C-0.67 3.35 -0.34 1.7 0 0 Z " fill="#FBEAFD" transform="translate(268,542)"/>
<path d="M0 0 C1.32 0.33 2.64 0.66 4 1 C2.37660195 2.70884005 0.70680947 4.37446717 -1 6 C-1.66 6 -2.32 6 -3 6 C-3 4.68 -3 3.36 -3 2 C-2.01 2 -1.02 2 0 2 C0 1.34 0 0.68 0 0 Z " fill="#C273D9" transform="translate(307,491)"/>
<path d="M0 0 C0 0.66 0 1.32 0 2 C-3.78187881 3.83691257 -5.94568308 4.15837626 -10 3 C-6.84916414 -0.15083586 -4.41812253 0 0 0 Z " fill="#E1F7FF" transform="translate(796,459)"/>
<path d="M0 0 C-0.99 0.495 -0.99 0.495 -2 1 C-3.13350534 3.01669827 -3.13350534 3.01669827 -4 5 C-5.32 4.67 -6.64 4.34 -8 4 C-7 1 -7 1 -5.125 -0.25 C-3 -1 -3 -1 0 0 Z " fill="#BC74FA" transform="translate(458,442)"/>
<path d="M0 0 C0.99 0 1.98 0 3 0 C2.67 0.99 2.34 1.98 2 3 C2.38932856 5.14255793 2.38932856 5.14255793 3 7 C2.01 7 1.02 7 0 7 C-0.66 5.35 -1.32 3.7 -2 2 C-1.34 1.34 -0.68 0.68 0 0 Z " fill="#F27CD2" transform="translate(285,424)"/>
<path d="M0 0 C0.66 0 1.32 0 2 0 C2.33 1.32 2.66 2.64 3 4 C3.99 3.34 4.98 2.68 6 2 C5.1875 3.9375 5.1875 3.9375 4 6 C3.01 6.33 2.02 6.66 1 7 C0.34 5.02 -0.32 3.04 -1 1 C-0.67 0.67 -0.34 0.34 0 0 Z " fill="#C372DB" transform="translate(393,403)"/>
<path d="M0 0 C0.33 1.32 0.66 2.64 1 4 C-1.64 3.67 -4.28 3.34 -7 3 C-7 2.34 -7 1.68 -7 1 C-4 0 -4 0 0 0 Z " fill="#A584FA" transform="translate(515,576)"/>
<path d="M0 0 C0.99 0.66 1.98 1.32 3 2 C1.02 4.31 -0.96 6.62 -3 9 C-3 5.30581799 -1.71820705 3.22163822 0 0 Z " fill="#FDE7FC" transform="translate(284,463)"/>
<path d="M0 0 C1.32 0 2.64 0 4 0 C4 0.66 4 1.32 4 2 C4.928125 2.2165625 4.928125 2.2165625 5.875 2.4375 C8 3 8 3 10 4 C9.67 4.99 9.34 5.98 9 7 C7.4972763 6.02501855 5.99788037 5.04490611 4.5 4.0625 C3.6646875 3.51722656 2.829375 2.97195313 1.96875 2.41015625 C1.3190625 1.94480469 0.669375 1.47945313 0 1 C0 0.67 0 0.34 0 0 Z " fill="#DFF8FE" transform="translate(838,441)"/>
<path d="M0 0 C0.99 0.33 1.98 0.66 3 1 C0.53846154 4.81538462 0.53846154 4.81538462 -2.1875 5.75 C-2.785625 5.8325 -3.38375 5.915 -4 6 C-3.6875 4.125 -3.6875 4.125 -3 2 C-2.01 1.34 -1.02 0.68 0 0 Z " fill="#A580F7" transform="translate(512,554)"/>
<path d="M0 0 C1.65 0 3.3 0 5 0 C5.33 1.32 5.66 2.64 6 4 C5.01 4.495 5.01 4.495 4 5 C2.64567325 3.68799596 1.31266518 2.35368596 0 1 C0 0.67 0 0.34 0 0 Z " fill="#B181EE" transform="translate(274,551)"/>
<path d="M0 0 C1.32 0.33 2.64 0.66 4 1 C4 1.66 4 2.32 4 3 C3.34 3 2.68 3 2 3 C2 4.32 2 5.64 2 7 C1.34 7 0.68 7 0 7 C0 4.69 0 2.38 0 0 Z " fill="#D380ED" transform="translate(281,504)"/>
<path d="M0 0 C3.3 0.33 6.6 0.66 10 1 C8 3 8 3 5 3.1875 C2 3 2 3 0 2 C0 1.34 0 0.68 0 0 Z " fill="#D67BEB" transform="translate(290,497)"/>
<path d="M0 0 C0.33 0 0.66 0 1 0 C1 2.64 1 5.28 1 8 C-0.32 7.67 -1.64 7.34 -3 7 C-2.67 5.35 -2.34 3.7 -2 2 C-1.34 2 -0.68 2 0 2 C0 1.34 0 0.68 0 0 Z " fill="#EB7DE6" transform="translate(292,456)"/>
<path d="M0 0 C2.79872437 2.52788007 4.45773019 4.20411134 5 8 C3.68 7.34 2.36 6.68 1 6 C0.34 6.66 -0.32 7.32 -1 8 C-0.67 5.36 -0.34 2.72 0 0 Z " fill="#D574BE" transform="translate(314,412)"/>
<path d="M0 0 C2.16874252 0.50603992 3.99967627 0.99983813 6 2 C6 2.99 6 3.98 6 5 C5.01 5.33 4.02 5.66 3 6 C2.01 4.02 1.02 2.04 0 0 Z " fill="#F8EBFD" transform="translate(325,569)"/>
<path d="M0 0 C0.66 0 1.32 0 2 0 C0.55746343 3.36591866 -1.33264727 5.51047079 -4 8 C-4.66 7.67 -5.32 7.34 -6 7 C-4.71937515 5.2925002 -3.38232443 3.62626404 -2 2 C-1.34 2 -0.68 2 0 2 C0 1.34 0 0.68 0 0 Z " fill="#8971D7" transform="translate(540,563)"/>
<path d="M0 0 C1.32 0.33 2.64 0.66 4 1 C4 1.66 4 2.32 4 3 C0.53846154 6 0.53846154 6 -2 6 C-2 5.01 -2 4.02 -2 3 C-1.34 3 -0.68 3 0 3 C0 2.01 0 1.02 0 0 Z " fill="#F0EEFB" transform="translate(664,544)"/>
<path d="M0 0 C1.32 0.33 2.64 0.66 4 1 C3.67 2.98 3.34 4.96 3 7 C0 3.375 0 3.375 0 0 Z " fill="#FBEEFE" transform="translate(458,538)"/>
<path d="M0 0 C2.29013653 3.4352048 2.17842973 4.985331 2 9 C0.4375 7.875 0.4375 7.875 -1 6 C-0.6875 2.8125 -0.6875 2.8125 0 0 Z " fill="#8A8EE3" transform="translate(676,530)"/>
<path d="M0 0 C4.42857143 5.14285714 4.42857143 5.14285714 5 9 C4.34 9 3.68 9 3 9 C2.896875 8.360625 2.79375 7.72125 2.6875 7.0625 C2.460625 6.381875 2.23375 5.70125 2 5 C1.01 4.67 0.02 4.34 -1 4 C-0.67 2.68 -0.34 1.36 0 0 Z " fill="#FCE6FF" transform="translate(259,527)"/>
<path d="M0 0 C4.31392226 0.4793247 6.16569547 1.7457985 9 5 C8.67 5.66 8.34 6.32 8 7 C2.25 2.25 2.25 2.25 0 0 Z " fill="#E2F8FE" transform="translate(845,505)"/>
<path d="M0 0 C2.29013653 3.4352048 2.17842973 4.985331 2 9 C2.66 9.33 3.32 9.66 4 10 C3.01 10 2.02 10 1 10 C0.01 7.03 -0.98 4.06 -2 1 C-1.34 0.67 -0.68 0.34 0 0 Z " fill="#9570D4" transform="translate(516,468)"/>
<path d="M0 0 C0.66 0.33 1.32 0.66 2 1 C1.34 2.65 0.68 4.3 0 6 C-0.99 6 -1.98 6 -3 6 C-3.99 6.495 -3.99 6.495 -5 7 C-3.70700306 4.11562221 -2.34058637 2.12780579 0 0 Z " fill="#5F9BDF" transform="translate(758,447)"/>
<path d="M0 0 C0.99 0 1.98 0 3 0 C3.80688405 3.94476647 4.00000429 5.99998285 3 10 C2.01 6.7 1.02 3.4 0 0 Z " fill="#FCE2FD" transform="translate(400,384)"/>
<path d="M0 0 C0 0.99 0 1.98 0 3 C-2.5 5.1875 -2.5 5.1875 -5 7 C-4.67 5.02 -4.34 3.04 -4 1 C-2.68 0.67 -1.36 0.34 0 0 Z " fill="#7195E0" transform="translate(854,562)"/>
<path d="M0 0 C0.99 0.495 0.99 0.495 2 1 C2.73075648 3.3140622 3.40138258 5.64828869 4 8 C3.34 8 2.68 8 2 8 C2 7.34 2 6.68 2 6 C1.34 6 0.68 6 0 6 C0 4.02 0 2.04 0 0 Z " fill="#DEF6FD" transform="translate(826,470)"/>
<path d="M0 0 C1.65 1.65 3.3 3.3 5 5 C4.67 5.66 4.34 6.32 4 7 C3.34 7 2.68 7 2 7 C1.01 5.02 0.02 3.04 -1 1 C-0.67 0.67 -0.34 0.34 0 0 Z " fill="#F5E1FD" transform="translate(511,467)"/>
<path d="M0 0 C4 1 4 1 5.8125 3.4375 C6.204375 4.283125 6.59625 5.12875 7 6 C6.67 6.66 6.34 7.32 6 8 C4.02 5.36 2.04 2.72 0 0 Z " fill="#E1FAFF" transform="translate(848,448)"/>
<path d="M0 0 C2.475 0.99 2.475 0.99 5 2 C1.91190305 3.76462683 0.76687864 4 -3 4 C-3 3.34 -3 2.68 -3 2 C-2.01 2 -1.02 2 0 2 C0 1.34 0 0.68 0 0 Z " fill="#F482C7" transform="translate(263,416)"/>
</svg>
